<mxfile host="app.diagrams.net" agent="Mozilla/5.0 (Windows NT 10.0; Win64; x64) AppleWebKit/537.36 (KHTML, like Gecko) Chrome/130.0.0.0 Safari/537.36 Edg/130.0.0.0" version="24.7.12">
  <diagram name="Page-1" id="dj9L_9YW0mAaz-IpVVYT">
    <mxGraphModel dx="1189" dy="476" grid="1" gridSize="10" guides="1" tooltips="1" connect="1" arrows="1" fold="1" page="0" pageScale="1" pageWidth="827" pageHeight="1169" math="0" shadow="0">
      <root>
        <mxCell id="0" />
        <mxCell id="1" parent="0" />
        <mxCell id="blICFfli1qGLsLNeWDGJ-9" style="edgeStyle=orthogonalEdgeStyle;rounded=0;orthogonalLoop=1;jettySize=auto;html=1;entryX=0;entryY=0.5;entryDx=0;entryDy=0;flowAnimation=1;fillColor=#dae8fc;strokeColor=#6c8ebf;endArrow=block;endFill=1;dashed=1;strokeWidth=2;" edge="1" parent="1" source="blICFfli1qGLsLNeWDGJ-1" target="blICFfli1qGLsLNeWDGJ-2">
          <mxGeometry relative="1" as="geometry" />
        </mxCell>
        <mxCell id="blICFfli1qGLsLNeWDGJ-1" value="Snowpipe Streaming" style="shape=image;verticalLabelPosition=bottom;labelBackgroundColor=default;verticalAlign=top;aspect=fixed;imageAspect=0;image=data:image/png,iVBORw0KGgoAAAANSUhEUgAAAZMAAADECAYAAABa4MyaAAABhWlDQ1BJQ0MgcHJvZmlsZQAAKJF9kT1Iw0AcxV9TpVIqCi0o4pChOlkQFXEsVSyChdJWaNXB5NIvaNKQtLg4Cq4FBz8Wqw4uzro6uAqC4AeIs4OToouU+L+k0CLGg+N+vLv3uHsHCM0KU82eKKBqNSMVj4nZ3Kroe4UfQQxiCJMSM/VEejED1/F1Dw9f7yI8y/3cn6NfyZsM8IjEUaYbNeIN4tnNms55nzjESpJCfE48YdAFiR+5Ljv8xrlos8AzQ0YmNU8cIhaLXSx3MSsZKvEMcVhRNcoXsg4rnLc4q5U6a9+TvzCQ11bSXKc5ijiWkEASImTUUUYFNURo1UgxkaL9mIt/xPYnySWTqwxGjgVUoUKy/eB/8LtbszA95SQFYkDvi2V9jAG+XaDVsKzvY8tqnQDeZ+BK6/irTWDuk/RGRwsfAQPbwMV1R5P3gMsdYPhJlwzJlrw0hUIBeD+jb8oBwVvAv+b01t7H6QOQoa6Wb4CDQ2C8SNnrLu/u6+7t3zPt/n4A35By0n2F+CMAAAAGYktHRAD/AP8A/6C9p5MAAAAJcEhZcwAACxMAAAsTAQCanBgAAAAHdElNRQfoChMQGiSu127lAAAgAElEQVR42uy92ZMk15Xe+Tv3untsuWfWviILKGwEQGLhJpIiu4vd6m6Zuk0zaJlsbGxsxmToh7F5mRf2n8B+mBfNgwYcmxfJTDMCJdPWmwS02BvZBAgQBEDsqL0qq7IyK9fY3P3ee+bBPSIjlypUgQCyCojPzC0zMmNx97j3fGc/MMQQQwwxxBBDDDHEEEMMMcQQQwwxxBBDDDHEEEMMMcQQQwwxxBBDDDHEEEMMMcQQQwwxxBBDDDHEEEMMMcQQQwwxxBBDDDHEEEMMMcQQQwwxxBBDDDHEEEMMMcQQQwwxxBBDDDHExwIZ3oKbY071mdTxrI1YVpjc4QYuAxh4YafX3+jvvyoCnAJQmB38e+9xKM9VinN4xcIPysdntr5OYVbgjMKshR/sFzkz/OaHuBNwVcNsjjynMKswqcXa3mmfbX28vG2vKre0rlU276lfFQqTAssBJr0D70G9p5JYKhHfPSDywuWufv9QVf5wSCafQVxSfW4Jnp4PxSr4u9cWcZL0/7+0XKxVLVe2qpY/t9xSNZ/I+QXZ/Ln9jysf9zacGMFoIFFBCFiz+XxEDEECLuowM1Vndu80h0cbPDACE/DDwyK/P1wNQ3zaClwTnr2Qw7nrXRbbOefn1+g6IctyvHM33A99MlGzjWJEb1H4fyxScYPyvApehcgYqpFQNZ7De6eZGatxcMqyrwF7gErGK0cq8uSQTO52DShLZ3OTPJfDE10DL55u8cFykzeuXOP08hqVqX14kg29xwihTyCKBu0TiWr4VMhEpHhvI9InjoIgZNPmkqAYrxAUkY3nGJHisclojMe47jquvUrUWuVIo8qXjhzhK8eOcqABD9ZkuFaG+MRwWfX7AU5dDTzx/kLGS++e5b35ZdaCZWTfQbpU6OSBbrdLmqYkSXUbgegNbJVbJZGPn1RC/1xstVbsQ5cS+ZwkZCR4amKoaYen7jvIIwcneWQyWj4qMnW52/z+oerIXWWpDAXEwGJ+Y4nvvTq3yJtXr3N+PWctxBCNUJ+Y4PraMmpCIXzVYAeEct8i+ISI48Osk8HzGNxMg5vhZhvKaiBRjyEQJGBwWA1UvCPxgbG8zf/83Sc5MQ4PW5G5le4zByeqPxiumiE+Drytqv/1fJvXLs3zwYUrrHYcjam9RLUxchPR7LpCeZNBMa03tUy2KnJGP/re+miSNfTPdPC9rCg2QKQBG8BSegzEM1mBh2cafGHvGF89WOd+ubsUuM89mVzy+tzZVZ7+45+9x9m241Ka0oxidGwPwVbJUmitN5mYrGNKTUNVCRrQoNvcS7tBJIPWyeb/3xq52QCJepCAYnADL4sCNHybI9Lm0X3jPH7kAI/ui145InevOT7EnYHTueo7CzlvLHf58/fP062P47zBI6Rdj4liAgYXQCLAbKzxsNW9K24Hl5bZ4vr6lIikJyfMhoeiktTK8wmIQtps988nCGQCsTpGshZ7bcbjhyb59sPHeLhhXtEsnT1aqU4NyeQOxVyqzyxFPPvTS56/fPs8cyFiTQ0uKMHEmKSCk4hON6PZajIeJ4iCGPruIRFBywW+oSmFTZpJ+ITu8NYgpDFyU81sY5OVrrGB/wVxEOWAK/9v+q9XgTgEkk6bsHydQ2MV/tHXH+drB2Ea/uCgyNBCGeL29p7qM2cynv3ZxRX+7uwSF5uBrklopgUhVKtVatUqzvviBXFMK1PCADlsUt7EIWQD1kCPOHaXTEJ5PhosaBUNFqMBwVGpxv3fMYKzMTiQ3JF4RxRa7IkcXzk6w+89OsOejBP7K3d2Ysznlkz+ak31z18/x08vr9CsjbOYK2oTIrFYY0jzrAia1SqMjYwS1tvYsHkRB9kgDd+Ln8hmQhlcmDdazEG2k0OM4EPARBbvfD8ecjMy+VDfcEkgqgURGjWIghpHGnVRE4jUEmuEqMFrABNhFIzLIc2oq2Mqhi8d28PXjk7wxQmGVsoQt4xfpqpzKfzovcu8eGGR86mlPnOQkAciYwkhJ88LYeuzHPWBuFKj44Vg7MAG0E0uJUMGA9ZJb23fOsym3eVNscfMjrljbCOtQY9UKGWAqhbWlEagVYxUMDiCOkRzlBzRgBhBogTvhZD39runpin7JOWhsYh/9p17mHb8wcH4zlXePndkcinT516/ztN/+sE8P74wRytOaEzvw2cBH5Tce5x6xFoQixrBKMSh0OojMRuuLtlMLioQgm7ylw66n4SdYhvF61ILWi5oGwzVIORpTtxI6OQZkbmd7RB21LRUwElBJkbBeCEJQjCBbqIECSQSY3xA1GAxoAZRhxGHCYEoGGwIeNfmvomY3zo5w68dHv2jQ3J3pzUO8cnjA1X9q3n4zz97n8urKWZymqxaoZnnGC1cUwZQoxBZXJaTOEWDgE1A7A2kWNi05kVLgtFb3DED1rgNoBJIo4A3AVO6pW5EJBZB1GxkcYrgKWWDbMQqlah0zYWS9AKKx2go4q8alXst2pAdBBLvqPs2+0zK//Z7j/BtEbkyv3DqwL49L9xp3+/nikyuqJ569SrP/4dXL/Ly9TWyyXE0jljvtKh6S2QsNo4IVnABPIVmIQpRKDSdnkYfZCCLSkyZXdXLqtoSHPQBCWGTn9cMCH1vIDfgxYBGRERUsoAGBxVLrh7UbyGicEO9amfbpbSArKCAISJGiEJABTpWCUDkA5IXmp+qoGJBAjEeK4rRGBXDarfNvlHLl/dYntxb4xuHxpmVYcbXEDvjrVT1by62ef7cOu8spVQb4wQrNCUjcw6LEJkiGUTVk4pDRGhQw2DxQbfFSW7VzrixRVEQSRAIYgpyKMmkG5fJKApyA+tEgiJqEN8jFC0USkAigwyyUGlJeVO8r5qCpIyG0ooqCW0H17RVx96RiD3pEv/0wQP87vGJO3KfRZ+XxXwx15dfmeeJP/5gkRcXVsniBlWp4umWmUyCUdtfUBLKBac91g0906K/tHzQHa0UVb+x4Er5apHCnBUZ9Kr2NakkOLxE5BIRvOIlIopj0ryFRCDGfKQgv6jpbxwLhAAuBAJdMqVIJDCCRoIVIfYU1kkcEYwlNwanAbyivogMBQxaGWNZ4KWFFkvLq1SzEc63VY/Vh4QyxAYuLC4s5ZMzk//lsueF8+u8udBG66NU45g0S/HBILZWmiQOoYshIwoOEYuYACIgHhV/S1Qh2ttZ5oZE0nc/l65oFfDlKwpyKQ4bwGD68Y/NUr4gAbERRg1GZCOoHnI0bBBS7Aq5kUWQG0Mo386GaON8bpAN6o3huoOFpXV+dCHh+cWg944I91TvrL32uSGTNxZ54j+9ep6/u76Mn5ihUR9jdXUZtTkT4+PkqeJdwGlAnWJMhLFbBLiaTcZcr1Zj00LuFwVuLL5e3cl2zWrwuYXQNz1TOTgqSUKeO+pRgnOOW83O2skioTSfDUJkQ+kyCEjvLbU029WAQu5zvPFkUgQ+I4nKuhYHEogkIU0D86knqONPV05jHzvBJdXnDov8/pVO+9SBWv2FoTj9nGN6hjcWu/yX1y5yMYxRmdoDxpKmTfCBKE5I6iO0O03ESLH3bFQU15qILAuoC4VCJbe2/gv3krnpftjqAuuRRZHJeIufo4pXxZDjg/QVN1Ut3OGbzrdwYvfdXlLGK8uojCAoOyuLimG1lTE9dZifX50nuPf5J3/v5NAy2Q28sKz6r148z7stj6mPk/qMjC7JaA3nLcvtvMjOiiNCcBgMURSVftzSvWWK+hKjEILH544QtJ/NtUEwus3V1K9KL83gbYIe8IXvibgW0VpfpxEVmlsIGWpisAqqG5bGhyol0lfTAhESNcAkZHmXrNvGh5xaLcGI4FzAmggkIpjytT5HgyMQEKMEAgHFSo4F6gASoUmVNEv5u4UF5PwcduzI0+dU9cDQ5fW5x8VUX/55szP5/736BotummAjNMsJoYWlSxRBMEq3fZ1ICnGKsXRU8bbIfrI2wqCFoqVhU9HtZsHuN+019MOIYGP/KRBHNdbXVzFeqY3U+2+gUnioBtN4N1tBHi2VTBXIEMDS8R5rLElUJWjAaY7iUSOINaWiGtDSRFGnINvrwUQEwTASNXC5o1ub4s3VNZ77yfv8xZLqr0/dOfvsM08mf72q+u9ePct7Hc8iEYkRIqt00i5qBBtXiNTg1BeWg5G+dRE0EPIc6xxJ3iJRxZoi2yuJ4sJvNLCA+wtDlb4za6AqXYzZlCvfW5wBU5yPClXnqLl1xpIRgrWsNddxLkJuFHy8Jf9xQLtNKibCuBSfrjNarxCFLlmW0up2CC4iSuoQx+QKKpZghdjEhRsveAIOj8OILbWs0vVXjUkOH+W1pRWqb59ndPTYUJIOwflUn/jPr7/P6TbkUYIv17uNLEaEzGWoV+IoRkPRUSKKY2IbkYcczTpE3Zwk91RsQoLtxyP77mNjQEKhW4nvWy8flsllFDwBtFDygoeGVTARed5BowhvNgLzAbMp9bjvmTCCSBk8F4uYgoBMHrBpRtzukOCJIw9GyTNPloIzEc4WbuTglUhiYms3WG7LuRo1KBGZVFmP4NWr15kaX+QXTdUvjtwZhPKZJpPXmqr/5t1l/vbqGm5imkgFnzmsiTAIvmcKS8CEIpVPFCQEJGREYqjGCWNR4OGZBuN0qMQJSZIQxzHGFFbCphYl/YW+sfCchr5JvJN2A4ZON0JEqNYi1pqe2sg0i8Gyur6E8wrW9C2j20XVd6l31jg20eDgzDjj0TTSbTJaT4jjCrmOce7qCusE5rprXHewGiyeOpG3mJ6LSwQHEAyCwYoSiUMFomqdVpbx+poy8v4yf93K9Z5q9soR2ximDX8O8deZ6n/65Vlem89o1/fgMXgJmBDhRRBJUAI2GGJfCHZXpoYYIMnbTFc9xxuePdYyXRvBBrOthZCxhetVbF64bcs9eFObXbe7xbp5RqU+xnoXzq62eX+9xToVnFTxxmBKxal4bZk0HEKxy12OCQmeHGcdaMq49czUlCMSMWED+/ZVcD4ndzFpqHLdRVzsOC51u3SiCPH02x1tjo0aghh86bqzYsi1SqcyxU+urFCJUl53qo9Gu08on1kyOe1U//j1JX5+cYX1aKQgEGuwUQWCYI0lz3NcliFBsbbQwJFAHAJRs8WeeoX9IzEHKwm/98U9TBhoxCwn8GQKpze+bl7Z2r13u9+z6OJ7Iy7wFIbOcRF5N6jmAu8rvHJ5nCUTk+U3N93DloKtOASS4Kj6NqOuzW89+RAnJqscmYAxWCZMctTK1FXV2WbO6e4De1lI4d3FLr+8co3T6xkrWZf1riOYKmINDgEbF59RZrspARWhubLC+PgkbQ38zTuXqWdVfvsLR54AuLgy//KRiX1DUvmc4F1V/X/fnONvTl+lGU0R7ChOfRGXI+CDJ2igVquROAjOIdaQCPi8jW11mJQOX5gc4e8d38f9eyaYiAobQTY7cQf316afclNLffPvoXydpWipXTkzztm3Pij/a/oZX4WF4Mr9qogtXeAIkVjqgEiXKk1OToxw/+Q4TxycYHYM0o13Q4H31+EXF9q8dHGZy80OzozgbYzaCCOWkBcuP7VFRwBM4QkwGDJRkrFpzi1e5seXljh8aF8/Vjkkk48ZF7q69Ofncl44u0BamcBkGSE35L7QKiKJiIkIPseoMlJJyDoKxhDVY9zKAicTw1cPTvKtL4wzaeBEso35PzFN4H4j8oGq/vKtLgsLi9h9hzZllhW7ZmNLOBvINKU2UqXV6jIqMayvczBW/vGX7+GLhypMys7FhWW7eZlz+kys+bPfOV6Tt1T1L86u8tNzl5mLlMWuJ0itDChKn7wMAU+EEWiMJXS7bfAxcW0vb660aXywwjuqemQYP/nsx0euzr98ZP++J8+o6p+/n/PzM226dg9SqRWxASnSfiPaiCptVYJJcJEjzTJqI2O41jqVvMk+Un7r3nv49skpHqmIXO342f2x/USrv686ne1YTnvg715/iywaZ2xsH2cuXmLPvr2kWadwq5V7MFVI4hjBEbIc8ZC4Lg/si3nqyCxfO15j3MPsDhbDFa+nfmdMXjgbVL+2/wivXJznv72/yJUsIdTqJJVRuq2ARAmV8TFWWutYAiqBvMwq7WQdKlN7WDA5/+6n7/HYbz/09NxK85mDEyO7VtT4mdvkc6k+c7rNs//ixXOczRM6GZBU6UiR411kMAlWY9QHjHRJjKHT7DBSSVDf4kgU+B8ff4AvTsJ9u5Tq+icrqv/ihTfo7jnAheV1KknjhqmDzgZCLKhPmazFrJ45xxN79vJPvnYP98bw0G36VK909VRW4flf5vCfXz7Da3NNWvE4XVvtdyQedLeF4PAhp2Ir4Cvk7TaSLfGFfSP8d4/fw5N7Cq0lusWFV+YiLKsyWaRcF0fYwTLb2kVGPuyNP2xDSHkU57jcm0fTUZ4etPx67hIp74WYcq6N8ELvNQZeuJXZMFdVZ4NyqjejpjyPM73ZM733GiD/2xeWqrMenhm4/2cGZ+3c7H2vqs4GOKXKrEhxTjudzzlV/Zur8Pxb87y50qFTbRCskpd+pUgDic9QVVKTYKKEWDN8niLB03Bdvnxkiu+ePMgTY59+Z4UPVPVf/mKJF6+ucp0q17uesdEpOp0OEhWtT+Lg8CrkJsFEEZFm2LRDtdPlyWN7+daJaR6ehEduw+30VivTny8pf/zqO5xupyQTB2mtg9oq2qjR8TlojjEbiTy9eJG1EXvdGv/wUIV//Mg+7tlFxe0zRSZXfPfUvKk8/8dvrvCn713DjR+gud4irtTo+ryIjUi3/EKqmKhoKR98G6RLPW3yYCXidx66j//hWLJr9+ZNr/rPX7rMzxY6+EqDzGmRmqtmR3kYxBA1RvBri8QrV/m1Ewf5zXv3c28dZn+F4NwFDUun2zL571++xN8tZ6zFIzt9Okah2+4wNjJOozqKV2WttUrV5OxPhKrPqESbW1OEGzgfjGw2lk0/wCob8SnZqEreSM0ua3b6j+2HODhuRCaCiJY1QdrfwOOjY8VnDFRWi4IRLcuPysCvFCmgvSagVqQIzGLLJAwZIKSNOqORkUrxu9l89luzYaVXWV1eprGFthz7sibC7LQ+oD5ZvM5uECV2i9vI3EAwSO98w8b59D+/vIp2Du9cg5cuLfHeaofrGuFsjGjRMiTSXsKGK046VAnOYzWjEWWMaMo3jh/gN49O8s1dCii/sKb6f7zwGsuNGTIRFlfaHNhzjJWVFWwCwThUHCIxaELIPZaMKWnzyGSFb99/iKemLSc+gkC/mOvLr1xpPvGnp+d56dICydR+Uo3ppgYbV9AYAn7z91qOvqi7FvvcIv/7736ZB3zgnqrdlfv3mXJzpRI/fy6FF89fIa9O4DFIEuE0L3vkFNqFAqmmVGyMRQhpSuKXmB2L+ccPP8BX9plXdo0QVU+9mcOLH1zEHn2I1uoq1Wod8s00Isb0s8eMgmu1qaQpxyPPbz64n9+Y/NU35FExU3/rVWtjDXQlu+lzp6dmaDdbXF+/goksoVLBVxvMe8/8lQWmpsaK1M9NBsJApkz5eENYDjTT7FlkofT1ifaF8aZ9K4OP/W2RyDba6Ql7KbpDy7V2mX46QCZ9MgtlCmfx2Psi4aKX0FGQnu0Tx1YLZzBLSMo6heJw26hXDP3uC4aizsmIUPEBU1KA2ZLR5KQIbns2zsfK1vWkW6yucm2ZsmV6WQclpje7Z6OjgxfD+PRe5ta7rEd11kxMMDEuBBIjWARbNm0MUsQgrI2gk1LzXWY059sPH+HLB0f55qcwN+eK11MHrGyqgTqnqv/ypTmua0w3SnBZm8nxBusrqyQ2AXLQ4lq9KsnA+U/EKd/9wn08OAYNOHFhZWHp6MSe2+ryeyQurLB/dbat5y9fpRsFUlW6a03qcVQkee1wZ0IItDLP9ajOj966zv4Hp4cxk48DC+uOv3znGk3ToNVyNCoG1BcV30kFX1bGqgRy60E6+LU2E3mHh0aE/+krj/FYg13tM9WG5//Dj3+Jrc/Q7QS8Lwq5VHWTSFQ/ICxDhus2eXhPnf/1609xaEBOXLt27dTevXtvu3jwcqrfvxjzvT+5mPOjq9do28YWzZ++BaACrW4LIVBJQNWRO0faArER+/ftJeAIfqD53YCgl03Vv0Wn4n5AVTf05GClFLw9fXhzc74bG9rhtgjF9DZu2cZ/wzqwAwJ3sJHgBqmz6bW9axiYwrllxkwv82+jtZNses1OVmjveYOdcY0Mvt/GdYjYGwx52tK/rde1QbYSXNj8dUnYYvQFghgurYMygvcR1lmsOurWFMWGAxaODYAJ+NDFuCbHasKX90/xO7OjTAb94aexx7YSCcBbi/CLS0tk1QnaKkRWyL0jTQNTU6O0swykGMmgBILJqEjGQ1N1fv2+Ezw2Bvdu3PyP1C7+wnq65BsJmXuc/+elt8hqExw4epj560tExP1NMVgoHRmD1EaIaxP85K0LfGFyjHe6qg/sQnX8Z4ZM5lSf+Yuzy/zi7FXSqaPEFaHdXKPSiMk6bYIqgu1vvjg2+LRDLe8w2zD87mMPcNwqh8TsasPCv7y8xnsrXXwySbub0aiPkqUdKgMdU4MP+J5VIkKFlCnb5tceuId7EpaPikxduL62dHR6bOqjEMn7XdW/vNjiJ5cXecsJC5kliaIbCmpVLToOVwxVU0NE6aqS50UHWK8OjQxiNrqrBmFgHozZxgO6xU3TE2RhiyZ/y9bHbQwuC7Ll3bbMhvECJmw/5524bHD6pciW7rJ9ktnIEOoRiQbZ8foCA+nosr3F+layF7nB9yabXSa6NSC16R4PjlPYfu97DQ17PaasCCMmxuPJ86KrRGSkcAlK4SHIOyvsTQJP7Jvk107s55Fd9PW/mar+61evcdVZ1pwnN44kqZJ1WoyMTtPtdstsquI7thporlzjQD3hiQPTfOPwJiL56J6A0coUwJtd1dNrx/nxlSVWV69v7xiuG1akGINRQztTRCP+0yu/5OTvfWlomfwqeD/l2Z9cWqRbm+T6WofR0QadThulilQMUe6JJEJDgjeOqFrBpWvcEwd+/b5jfOtg44fda4tP7557Kz31fic8/4O/fQ+mjtJt+7KvaNHgUYNit4zjNSLEScKkdPlH9x/kqzPCUZEpgKPTY1Nn5hZ19uDMLS/yc81UT+cJ//bcCn/+7rucW+swOnKEQzOHWVpbx5stUr50A4kUmSaZc3TbHu+UeHSEyFapiiG4jNxAiDY0daOg/d4SO8xdGfgM2zdTAjcv3TS/kmtrRw66QceCje/B3Jy8giEEh5ITdPMAJzNgZWxqFCqy7XN77idTZvMULq2w7Z4J0icCFUDSG8znMFvIWzf/tTz/Xic6lbCpOeng/RAMaoq+b0jRS8ugUHanjnrGjIVggbzDpHE8dWiGv39iiq9M7h6RzKk+82dnr/DTC1dZiSYQGxOpkOeKSA2bROTNNnHZwLFI4snYW4Enj0zz1aMj3PcxE+HDVZGfB9Wss8p/ef88Ywdn6bjQdxEWXorQL672weHzjGqjznuda7xwocnbTvXBT7n2xHwWiOSi6ss/v9zmtfl11lIYn5jCo0RJwlpznciWMzlCIZitQuIdk+p4aCzm106MEVrdU/fu27Nri7pN8vyr569zvhW4lgWy4EkqllanixFbCAotNGJjDVEkNKpwoOo5nuT8o3tmmPHNTW6C2yESgMVKwp+9e4l/8/IvWR6dZPToveQasb7c2uayMVoGl3vdUANgDdWRUWpjY8XExgC5D4iNStfWYGfU8ucAkch2D9EtLtHi/YxuVAub8DEcpaYtunGuJpgPt3IGr0kEG1mi2JAkEZVK3D/ipPi7iYUoslhrtrmpjG4O1m93VQ0cUgS4tSR3cEWH2g85+q/dapmU/zOi/c+QkmB6MZd+7Eo3XuPUFfOAfIaxhiRKiCQikhgJUPGB2UrM3zu2l29OVnY1Ceh8Hp796enLLDhDMjZBHEXU4oiQK6Oj43SzDkRlW/zynld9xpdmxvj27CRfa4hcvn71+x+7K0757qkHjvL48f3EnRZxCP01aYNBghlYG0VI1cUJ0b4D/MlPf87F5tAyuW2cW1nWFvBfX32PtLa3bECYgiiWmPHKGMYJHk8QQSUg4smWlznRsPzTbz7EF+zu10Fc68LP3l9hTWs08xwCxCLEtVF8WhZWGkNWDraSKOBbV5iNavwvv/bQr9T+/bLT77/Z5Hv/919d4KWr8zB9kCyzWImoVut4F0oXTOnP96HIXvJSFlgFrBTdU50L9ELBEhRvFE9AECT4TVr25jM2m/sf9QZ5mVDGKgKDzvqetj0YN9CBtuL0//8r6EtlUH3QUlLZOU9skzDe5ELyA347sy09WbY0OO8tRUW30+imwWy6OXAvUjYOHJxf02sLdHNSNto7E7Opm7UpgzFeFduLF0lhYoTgsWIJuv08VSGYgGDLdzQEtVgMMZZ8/jK/8e3HeWravHKlvX7qQH10VxqCnvaqP5oLXG6PUBmt083TIgYRApGBTrpeWI9RKNPTPbFTas0mv/OVB/ntUZHLa63vHxprfOyu8QNWXphT/YOLJ48/+95fvEw8nuBtgvUGguJtQehBIHjBRRat1BEbSLXKz967yAdB9V7z6cm2u9oyuZqlszoyxutzbTq2TibVjS3Y0yTVgNdNGl8cHPtN4NcfuJeDhh/u9nVcCLr0k3ebXMkiukmV6uhY0dTO+dISMGhQkiQhzTOMscSasa9q+M3HZpnsuF/BvaanfrEYvvcfX7/GS1dX6YxOEY9O4dNyUI8RcvGbMpNUPc5lEByRWJIkIbJx30qhLGgUUwzcGvS1S1+DDps0b6M7adkbjwfbgg8O+woDCcdF4L4M4JdH+FWOfs1ycRTC2dzittlyPTfbhLrzsSNhDR47xHr692aT5Wc+XAxoVO4dQ68qKGDwavEeUufIs5S8m+LSDHUlSw2MVTKkNbIAACAASURBVNhkjRkDpsggy8WTBo/3DppNvvHgSU5OxBwx8uRuEcnlrn5/MYc35tZY9lVcGVuSEMB7IlOuyfI+p6FIca7mHb75wL08VIbYPwki6eGgyA8e22f5zmP3Ebk2Vl2hMJT7qe9yNYGoWqHrc5ZXW1RGpnlvYZX5bGiZ3DL2J5Uzb6ryl2+eJTe1m7ocTK8vFoa6C3xxcoRvHq5xONrdFgQA715LJ1+6dJZFG+EjKSySJMa5HK8xkTVYY+j6DEli8DkV3+HRI/t4aKb6kfLae3izyfN/cvoyLy0s0xqpEY/UyFwx+S5SKQoi8XQ7XSpxTK1WJ6lXCC7De0/mWjhH0bJfZJOFMaixBxGMhs2BdRMGBO+N4xR9rWfT3Hqz4VoBwkCftU16koSPpmXtIMxvZQTzx6an3fbsGtn5kYQtZ7L9fohG5aS/aPN3IIUFaqIcazIihBhBXdHl2gGZFuaKRXe8J1pm32lFIe8yY1r8gyeOcbi6u3tOKpx5/1LGW5fnaJvRvhW3/fsthLYTpS45RyrCdx6epCr80adxnocsf/T375v63ssXLtGVNi6KcGXwslKOkTAaiBLD2lqTuolxNuKDpSVeu5IWSvf15uz+6ZFPfH783W2ZqM6+swaXu0Jubs6LXgpNKQ6OmuvynYfv5bE7oDnae071l1evM587tF5Dg5B3ulRMhLiAqMdawcSGtdYqI2MNfNZhvNPkd754kEpaVF5/FPztguqf/XKOV+fXyEYmsBNjZCHQbadUBMSXBWexYXx0hHqlQp52WF9Zod1u45wjsjFJHBea6E5adtjQkEO/Dr7U9PtHNPD7gEa96Yg2WQlGb3x8Usv6plaDmo/34OaHuYXn9OJS0psSOnDYsHGY3rUNvLLwohnwFGvSBzLn6WYOF3w/dmZFP3ROepBAXDFUTJdHD01wbw2Omd3de0vw7IsfXGQ1RFCr3iB9eoNQKhFMVy1PHtvLgQgO2U+nfOCQyB/O1uCxY5MkeRMhg4j+QC8oan+seLJOm4mJKZodR1qf4CfvneflVNXX6s8MLZObEUlzZVZh9qWzC1wNEXl040txBpwRVAO2u8rjJw4yO7P7xf+XVb//9jq8NnedNQ+VSoO0mWE6nqRi8CEQmYBxDokM9XodLykmW+W7J49zUjixv/rR2mu8kqu+8PYSr8+3aNkRnKngnWC8JQ6eJAhWc7BFe2/RQHCO2FpsUi/a0nvFp55u7mjU62xO8TWbNPrB1FMt4wghKMYMzqcI7GxkmSIOxmCluWAHWpIP1mXIh2jig+6YwZ9b5dvNx8RuyYa6RUti62eJmH4B4EY9iqIfYlBtzdAKN3vBQM1I/z5jN1JOVcrYzkasJ+5V7ItBRQi2hrHguh2arTZjjRqGgPHaLzK9kX5q1SHdNuN0+dq99zLG7ruW316A08uOPK7R7mYk0RbLZGAtWA2MimcqpHztnike/pSJ8D4R+Y9Nr3OrKW8sd8ijiCiyBA39GS8+d4w2Ruh220hSIcQNTi9f4efn1/mH942e+TTO864lk/0jE2deCnr6tQvz5NVJvP8QbTQSQqvF4QS+fM8exu6AaxA48878GlczCFGtELhaZGt5BI0MNjK4PMd7iBJLlKccGK3wjZN7YD3/SJ97RlX/7Zvz/PXZBdakwXoaiOsWFzw29LqhBrz35N4XvnjnScQQK9i8g80dmntiynhUu7O5bmRAeKopqrTV2L7w7AvN/iwY3VGAGxkYd2ykTz69z+gNI1PtZYuFHWIXN/Ak9ccub56EWRBlGeMpPztYKSdr7mD5qLmBML9J0PtDpgaGm7jndjSM0BsQTdj2vkU9SsCE8lp3tMI2py23W13iRp04NtiRWjFOQQ0GW9b+6A3vdaSBMZNzcm+DE9MG6/QHu7nvLqk+989fbLLsq9hahRqCD/6Gz49DYEJz7hmrMFtnV7pjHKsYvrhvimtZi3PNFFOp9L9rQchzT63WoNPuUKnUWMuVvSNTvH5pgUePjD57JdczB2L5RONTdy2ZnFHVf//aVZYzh4xV0bbfvMvK/k1aTHAma7eYTFt864HDPDoGx+6ATrYennnj4hyrNkZNBeeVLARsrcY6XUIiVCJDJ0tJ4jqSZtSaq/z6k/fx5Y/Yv+iS6nM/XWjzs6uLXOg6koalkgjeK4oQKhFpGQwPVshMjtiIatLAZhk26zDqHXtj4ejkKMdnJhmpGJLKVkE+UORXkkboVbKH0o++RRvv5dAPCsResLHZbJam/QYRFc8pSKTZcqBK2KFC/1bQ7Xa2WRnFT8ULLHeaA64Qs400wo4i3tyYxPTm1szN/rdT3cjg83UgG25rXYyGHokWBKi96Z/l8wcLJzdiKlBvt4lllLReAyK6poJqjISk3GfdTc/fiEEEouAYDU2+OvsIe+CPJHTO7Oa+O73C02/NrdPWEWqqoBl5EJwxG6nSA+smVsd+a/jysUN82s0ne/hiLPIXq6qvL2ScW1ojiis4U+4HEdQXbuBgHEEc3hm0VuP9xQVOLwcO7zHPMNDYc0gmA7GSeeDVSwv4uM7C4gqjtREia8lcXo76BA0eUCI1TCaGZGWZp44/yv13AJHMLbWfWQ48cX6phU4chFwJ+cCIX4qBOCoBsZZKrc7a/Bz3T0c8ecxwqdN67nCtcdvJA68vd5/+r2+f5moeY8ZHcc4SR1GRQGUN6h2enFyKbCyJksK9ZRTfXOVAXXj8+F6+cf9ejtWgDn+QtXi2UuW7g11ut8nTfpYRs73ZLwqzvdds/dn7f6lbnxJGzyjMBjgV4AktnTLyofbHjW2UwRrMwZ9hy998+Vx/E6q4lc/XgedurS8fnDDQ65J8KySyQVA3fm6PBHtPcVqSSq8bs2ycoKcoPtTyOUGKRpIjFVhowqvz67y50OTCmiMXg+2lZQdBDERiyUPok4khUAkZJxoRX52ukHc73ztUa+xal4nTqvrvXrlCWknQuIqXlG47LVLwXYaJy8acoTceO1B1joemJvjq/nhX3XP3jMIj+yc5O79ExzuwNbohKxIgbEKrk9Ko13C5x1hDFgztZIS3ry7zlf3Tn3hB9l1JJqutzuk3Qo1LTshtQqNaLcdmFqM/LUW32Tzz2ACNBFavXOCffOcpZmq6q+feai7MNkb2nMnHas/+8YuX0Nok3VRxWAhCIgmSOWJTTKETiv471udMRMpXjkxyWOCjEMmb67n+mwvXeKvpWKFSCoMi/7/iTFEXYgNOPVneplofwZDQqIzQvHyBr584wG/dv49HJ6Cm/HBgGM/tuC3OfITnvsAQu6zAudkwYU8dnBh99t0PLpGEEbwFNdkAUxqiOKGbd4lrVdZWVtk3WaPaTvnvn/rix14pfrs4q6oXgF9cu8pqGCcXz2qzw+TYNKIQul2kEiEKCTGttTX27dvDvsjxO1/ay24Pn5o1Ii951ddeT3m7uU40PVrG1zyxxFQig8sDIQixFTqa4qIaL565xHdOTDPn9JmDkXxiLsa7MpsrsxFvXl4lrY3S7joqcYJKYaL3YmMeAWsQazAh56G9M9xTszwSmV1b0D0iATjXhoupx8cj5F76vZgiY4o5K16I1KLeE6FEPmVPw3D/vnGO38amvNh0L19q63MAr19d4vW5NVZokEu1tH4MvhdvCIJ1ivGCkRrqlNh5wvIC35g9wFN769xf89wnIofN7qdUD/HpYb9EZw6K/GB5rYif6aaan6LIr1d3Eoyw3moyMTaC6XS4b880R0d29/wvNdefaymcXg0smYiUAFFAophcAz44IhuV+9BgTMTkyBj50gL3zYwzqh89a/LjxDTw+NF9JCFDfTFavHAz9opjTdmhuuhjl5qIVlzll/MLtC3PfpLndleSyXxXeeuD83RTj5ioqDmIBJenJFEhgL1zSBzhqwEXmnxhepIHypkRu4UekQC8Nr/E64sLtILvz4bfyWEiwRCFQLp8hQcOzTB78Nau4ar3s6832/q3ly4/8ePFtaef76i+uuiYW4OgdYxGmHIcaW4gtZDZMsYkCdhR8iyi7rvcU8v4hyf38q39db5QjYZTEz+n+EBV376ywopa0ijGW1tm1QmxjfDO0/UOSQSnDvFdotYS33j4CIl+OnUZN8LhkdHfzxReOzfPckhIvSWyVRIL6ro416FaSzBqcN7QRpEoUGkv8vX7R4mVO0J5asCJx+47yHgdXHeFWiUmNvG21O9B5Mbw2oXLXPNwpZmeGpLJoKm6lnP5+jpOomLAVWlsOO+LdgjqcQG8eIgd4tZ55OBe9hr+4E64hjnVZ145d5l0dJzVbhfnb17BHqlj3DoeP7H3lrPQsvb6yyvzV3jrjdf52Zvv8t/eWeadFYdPJrDRKBKifr2ECnhT1OI4YwhiqNdGod1hMu9w6uRxHp0SHqwPieTzisud7PvrwLnlFk0T4ShaFGkZeDEUqfcueLCWRq1CtrbE8fEqs9NwKJI/3O1ruLLseO/yMqkdIVWLtbZsn+LxwYHdyApsd7uYkHL/vlGONXZuW78b0E42e88onDwwQeRaVK0tBsrdpG1QbgzvL69xqaUcGKl8Ytdx15HJEvDyuTmSif3FXPK4Qpq5Ij0zeEQDWqZ1OufI1xY5NGI5OQMHq/KDO+Eazrd49nIXFlOPF0O9Vr/p8+PgODnV4P6pW89COzo6MfWtEyfkn/3G3+cP/sFTnLu2yqXUkFEhiYs6EVNqlb0iNvUBL8XckOBSDo3V+I0HT3DqntHbcq0N8dnDoVryhxcWlQvXO/i4UQ7aCv02OLn3SBThUULIiTTDtJZ49NAk++8QBe5aCxbWAy1vSRojrDWbJHExbVWsKa5BpKgrqVlc8zrfevgE43dAXUwPB0YqLyTwypcfOMJk4mg310hdPjBQTbdlAnoi1qIab88vcVV1dkgmFGmtZ9bgWi6kUsVLUTkdpCja6k+poxjKFIfAOI6TM5NMVe8MqwTg1UtrdE2VzCck1RHyPL9p249YHY8d3svt1Flm7WunAERYfn8hZz0YfFIn9cr6+jp5nhNHMXFUwWUZ1WqVTqeFGCXG0Zk/xwPTdb4+W/uV2rUM8dnAGVV97/I11vKigFGDYIIv+rSh5HiIir5oxisVH9hTT7h3zygxux9vuNjm2feurOCkiqFSxnzKNHNj0SgiKxqOYcUT+5RDY3VO7rO7HnjfJg/g94+Mw8HRhEokuNzf9PleIlw8xumFVZYdp4dkAmTw9HvXVrnW9mQ2QctmdDtemImpYNjnDV86eoiDsvtWyVWfz/5cVX9xZZ5OZhhJxpAy8O5Vy5bgZlufIBsCXzo2zn1bKm+vdNdu6P9M6sVQrOv1xuSP3jtN0ztElMhAUIeJDZnP8XlOpVKhkzWp1iIin1PP23xpT51v3DPJXjsUpENABrx76SqtTEmSetkAJxBMwJlAaoufokWRH90OJw8d4OhMlSjku+7iurQKb1+8jpFG0QofB+IIUrTzySXCiSFIwGqGba9yct8Eh2JO3Enfw0pnYXa/yJkjwH37i8FdztBvuNk7BhHE4CTh0vV1Lix/ct0f7yoyyYELS6tcz33R5lw3+goVrTwsXos88VgMDVUmNOf+mTtDIu638ZnTTbjSzelkORNjo3TbbUQsxui2OoJIHRVtUw9N9u7QGM+l2U3nKFzy7rlla3jl8jUWW21C8MSJEMdQGykskW67RWwimmtt9u2dQXxG0l3jtx+9l6/uBdvJfjgUpUPMBZjLIBOLMWZTp2c1G911owBxANNc5aGj+xkzcNAmu6rIzak+c6Vb7DtbiSlbHmPKUoKAQbUYp6DBYcmYqgYePDJNGj45Tf6jYKJWJPFEwMnpMaYrEWO12rag+1ZosLRT5YPFFS5pkd35uSeTd+evEk1NYUVJoNCQev2OTEzuiw623aXr1FzG4ycOM83uZpL0TW2nL7ccXFnuUh9vsNZcJI5tqT1QbMiy0V+9VkfTJklzjt/95mPU2N7G4cj4zE2rcYOxp/71C2+xxDhSHyPH4TQHAt1ul2q1SrVaBe8ZjUe4dvYydfGcPDDJ1w9ArZX/0eF65fevryzMDsXp5xt/80FGOn2M3BhWVxbLnmgbw5p6JGJDROJhXz3h4cMxE+y+Zt+FZ1++eBk3PcWapmAdYLA2xmuOGI/RQCyCOEdVcybiNsf3gNHdaZ/yYTgmIo/vbWCbK9isu63ZphjpHxZLQoSYGj99b45rgU+kgPGuIZO5TJ85v+zIJCb3vU5EOUZDf7qeNRHBF5bKzFiDusmZnZlGHGfuhGvwlic+uJxiG+M45wjBDZikmxdDs92iXkuYsTlH6/a22zhcWm4+d3mFyaurHqlO4qWMLQXXnxPSa0/iyxkOe0ZGGfMpTx07SAN+eGgk+UOA6Yk9Z4bi9POLi6ovn19pcz1THEqSbLb0jYItK8ZFA3Fw3L9nihmF/SK7vnaurMJ8O6VtDCRSjE/2vujkFsp9CIjzWFFin/LIof1MA0ei3WmfcitowCsnZqaohRz7IZ1BRQS1CV1T5/T859zN1bQ8++aFOfAWn3mcDeQ29BvXARjbG4zlyd06E6MxswdjDsZ3RhbXioPzV64SV2u4QH96HQPX0HMXrOddIHBsaopDI7cf/85HGk+/cfkaK+0Um1T6X/VGoVn52ARUHKZqiELKgyM1vn64cmv9Qe4mgejyl+dceIYhbl+RW+eJC1eu4LwvLFlAxPataFGDDWVPLlO4iZ46fJTH7Z2RuHF2fpX1VocQAnEUE0JAXeiNoOy77fI8I45BfMZXjx7hoTs88cTAC48cP8SY5kToJmtkm5tLFRXDepZxZWWNy06//wmcz92BNQNnrq3gfERwvvR1FnnuQT0ED0GL2dSaE4cW9x6epn6HLIe5oM/Mr8Nyt4PaGJG4sKLKOSA+BCyCobgeHxyu0+K+PdPMyO1noq1E8JP3zmIbk3j3ITdBAtVIqWmHX3/wXh4REav5D+56Iaj6zF8trOmfLa7rX11aeuLFxc6zf7Wu+npblSFunYhXOrSzHGMM1VqVPN9cF1X0SZMykzLHapd7990Z535J9blLq20kjtGwMXF1UOCqatmKKcdGEPmco2N3/vdi4Qf3zlQYDV0ivXmtWhAIRmh7uLbeITN87+M+n7uiN9dV1dk3AlxqebxUixHbSejfJEOhGUFACcTkzFThi8dHoHtnyA0vPPPGxausZDktk4IUGhLGoC5HvBBFFqyQ+ZS9kxM0Vjs8PnvgtjPRrqrOvpTCmXagW4sQW0HDjcfHWg1ErsW+qvBAOY70QJTc1f2w3nGqL5x3/OTyMuebTToe0vQKiQ9MW+X/fGdFv3ZsnCdrw7Tnm+EDVX3u53OoraCq/bkyqoUmrKFIHHGhGJRlJWNmsspk4w5RQuHp+XZOjkXEEgLbCvwKQQtqDFne4sTxg4T8zv9u9ouc+UCVIyMJ1zo3Tg/2qohArkIUxcwtrdH0Hz/b3xVk4uD7569Dyya4UEElQoIv3TWKopiyNWowARsy7p0a43gModu6I65hQXni4so6uTGkQYmIMOL7szSkHN6FOKx4GsZyYGSMPfXb/6yW5/RLZ5bJRqdodg2xWnae9VEaJuqo+BaPHD3Kyc+AcD3TVX3+vQ4/vrzMG6vrrCcRqRqq1TGqDlZbq1Tm16iMjfBWqvpQZUgoN8JigGvdDOKYEDwaFGvMpmFnPQeHVc9ocMzumbljBMt8F5ZzCCbGWINzO2vwxghoYNpa7pmepnKXpMTfKyL/11vX9BcfrNz0eWoEj8HZmLVuxvzqJ+J2u/OhMPv+xUU6UiGPYjQy5YzyIi3Rm1AWIAVUAlYdD++Z4BERqSZ3RjbGchcuL6+QR0KuARcgihJylyEWbJyQOkfqMqoRuOsrPHz4GOMfoQXM9XV4+fRF1uMqUqmTp+6mUwNjdUwaxxP3j34mBOB8F/7ig/O8206h1mB6ag8jlQbjySgT0SSNyh7emFvhP7z6Lj86v8arzaHb64ZrqQNX1tuojVFVfCimQg765o1CQsSIN+zPhScPzVC5QzIoryzDcjcvElD8zsqUUaiZmErqOUyFxw+MEsudU+T8oYRyZA+2dHOZsH0wgtlkgcWs5o656y0uBF262u18bJmadwWZ5PDExcUVuhIXs9zZ3tCsN7PBBqh4x+HxBle8njpSHd31bIyrqrPrObS8FHUwRlD1RDbCOVfMTzAVchVSFGOFJGvyyFHI3a13+ryy0jwFcKWVs9zJWU8DtbFxWt0ORmT7fPbyqHjHw9OjnJQ7QwD8ygIwU650HWmtgYsrXL++DBjWV9dYW2uRS0ReGWMuN/z44nVenG9yVoeEshUXVV9e9jDf9uSqeL8xVnnQMhGFWAw1lKmQ8uAEWGXXY25FC5WMldzhws0zSiIDlTzngCoP1HnloJG7JmY4Uy0UwtgHNLiCUIzBhUAkFg1aJPioKarhJWG+3WXNM7m/WvvYsu3uCjJ5/exCUXRn4uJLN0JkEyKbUCWhKgnGRDinWK+MxjHjDbljmrMFOPXBpTW8qZF3PY1KQhJDN12jXqsTPKyvpdQbM9QmpminbcZtxsE6RLeh4R2YGHnhqursT959i8rIOGONMTrdJo2xKkY8RhRTVsHL/8/em/1Yll1nfr+19xnuGGPOQw1Zg4qjJCQpShSbEqWi1GrBbtjuYr/YBgwDRcCA/eIH8sEvfjBQ/AOMdhaMfhC6DTdLltyUWpZUJVLNZnNosjiINVdlVmblFJkZ8x3PsPfywzk34kZkRGRWRmTljci7gIOMSMS955x99lnfGr+lnrTfI+l1ifKELz9zhpPy4Mn4dgXaK60zAB9cXyC3lp532LhSWKXeY6MQV4WuyQniCnnQ4I1Vx//ziw/4y/dz3hsDym0RgR++cYVlrZCUqsKIrPV1DQNKnqe4dJXffOY4U/DqMfPgS4Izz7lLi8sse3BmZ1XXbrdoBPC7zzz+wKYp3qs0A3j6+FHc6hKSr4PmoLBAhtS9EpAGIa/PL7ASsKdcXfsiZ5IkPTTtY6S7Priv3NCD0GYUVej0V5mKIx47MkEzHq176Ky2yPsJYe6xnRbWCWSOUANwcKQ2Q3tlnp62mfZtDtmMIAVDeteAeLXdf2EBvrbcWSFp96DiiMNKMbvcOXSIndi5nBioVms8GtUf+LyJvZBjk80Ll/v6k3/53TfAGyphlXa7RxTWwBe9Sc74NU0pJiSNQxayhL/+5SWS3lEuqeqjYy4yALow3dYQqQZ47zHbLYt4bCDUvGe2ZkZGGScK15dX0LCyLe1SoWI9BqUiOVPR/ntOMbx0vFl/rsINsnKyiS+Qf6hSza+BSi4BC2mf6104U+MM7E0f3r4Ak9l6lRnTw0hrff/Kpthgf4FJ7XG8fpinZyaYZnRinidEXvzfvvPauWkSrBWs6xFISG481kKqDkluEvc7HIuURyZifkUskw6O1+6eMtrn+bNpWzlaiziRpKz6RZJOgs+Vyeokdiie6vJitGdTQk6FhorhQNCmmExfOVKvnW0sO9KuwSRCpV4h1YTNBQgDyzqzMVf6wnfeu8F0LeS8qo7JLeFWB5ZabbzcqTTLUw1DqmqYnRidvNvNDsyvdvBxtBYG3xILFULjicXT3IdpQwOvnD5cf64mShJY2qpFT00YkicJBin7goq8SW5gpZdyY6GLr9WeZY8mme4LMHl8dpr/8b/4HTpDVzu8N8ICnfFl3G66VOCjdA//7e9+4tXP9zmbCKiFioU8BwkhLz0sD+CgqdBswRO1D6fQQpGvHG5UXvinv/0bz/1BbEik6AEwpSWuQ9WDZVsO1Qoch5FjRr1XOdk0X//Bkn7tO3MXmFtdptq8c41qjjBx6AhLrWX+7atv0es/wpte9WPm4QWUK6rf/N71NjeXV0mqMWK2VxVGoWqFqlUmaqNh2l9XffY7l3qkYskRRM1GpbHJM6moIxZHtbL/ntUJkRdfSfVcVVMyWe+lMcaQek8UBAhSNGviwAitNGd+JcGfqO3ZsKx9ASZP1EMBuOqKrk1Vzgz/a7RAVtHCXTsRj17ybOD6X/P6vHrOnDTy9Ws9fT6Dc74AkyUrvHgyvPe8xbHJ+gUoJsLNOT3j4dlBlYJHnh14+qqcIQCvnLU5L41CsnQv5dAEPHK4xvWbXW75LjZu4HtDLANbWKat5RUmo4ib2uSvfnkFJOQtVX3mIfVQUnjuresL9LxggnBTKfCm9cOTdpc5PNtgdkTCywm8/O6NJVIsaiweRdi63td6iPOME9OTGLM/n9eJEE5NNngzS5BKBVTxrtDwzngCCXFZQXCpkcXUJljpeazZu3c/2E8LdtLu7wQxwHCVyImqvAj3R5Efs3Jh03cfKMDYSSqGV//g08fORu/3+btLH7DQSgmDKtvWm4jHBpbVJKHWmOBW1/N3710jdUd4T1WffAgBZRm42c0Jag18FJH1kx08E4/xGScPHcUyGrPSl4APllcJ6k18LpvC4rdffy0wPHH6OPv1QUfA8WaNN+f7IL7wRFTBSNlU6hBrMECOgkSsdDO6Hc7tlW4IGMtYDpgMvMDvLqiqOcF3L11j1efksnUIRoGwUeHGzetkQURzos6FVpve+Tmm6zEXVPXMQwYoy8DV5RYaTJHld2gHF4/RhMcfaSKMBqnqfB/mWn2YmC4YM3a6fCDC8dSjNfYrmlgPpw/PYG9dIcsyjC3mIvmiF5NQlSAIEHKyPEdsyMJqj6XlvbsGM1Y9YzmocqbKS//lpxt8ohHSzPpEPkfKJLyoQTQo7SnD0tISR48cJQgsrX5CXm2yQMxfvXae71/LuPiQlQ0vdaHtIM1zet3eHRSZp+L6PFphJCq55ryeud6GLgHtJMfandvZjXoaAUyGEDr/6n58XnHOV49P1LDqUVewIBuKkRYiQpbnWBtiJCLPi363pX6f+XTvhmWNwWQsB1ZO1eQrpxxf/p++9Dinpc9s4GmEFp8r5AHiAKj8nQAAIABJREFUQrI+oAHVoELa6mFyS0QEmZIScjmv83//8A2+f63HhYcIUOZu5TitEYUV6tWdEyGhpnz69AyjUo3fSjl/swMtYjJX5A52ciyt5jw2W2PSw+nIfmY/Pq8Tsbx4qmFomIjAG8QXVE1GBC1L2QIbsbKUUa1MFx+qBbzWWtizfT0Gk7EcaDkeyCuHPE/891/+NMfpQnuBZjWiVqniHExMNAhKCvL1V6Kw5pwEtEyFW6bJn7/6Hj+8mnBZ9ScPw7ott1PUVnFOSbNkbTTC1krEM1sNqI3I3ILcwHy7j0YVFEP/Dp6VIWcyhuo+f2Z1C5PViFhYGwkgJamlMQZ1jtCEiCvAJRXP9bTHXtF0jcFkLAdejlm58AcNka985gyPNgyR9Lgxf4XaVESnu0SrvYgPFG/s2uHEFJ3zxtIJaryZTvB//fQqv1ji7ABQ5haXD+QEymuqz8/NL5GWBqulnC2+zawMUTg6OU0NMxLJdydwee4GYkOCMMCYnQ1vI8JUvU4Ir+7n5xZFcGiySSw5Vn3REI3B+DLUlaWEocX7HGOUzDlurbbojsFkLGP5cPJPj8Ty3/zOMxzOVjhzuEpv6TqhyZmZ2nl4RSYBaf0QV32Nf/Xv3+S1Jc6ed6rHZqYO5ATKDM6t9DKyXIiiiFpc2cCDtxlQjMJUtUEEIxEicgLzq20ydcRxTK0asxOeGIWJOCY07Oteqyjgpal6SKR+fViZ8+XoXsG5FBMpnhRRj6qy3O2RsDe0KmMwGctDJc94+PoffoIngzZHbA/p9Zmdmi1CAvi1Y8BjZqQYuCaakocB76rlX3z7Z1xWeKOrOuADO0iymkE/K0gBM6cbwGNAsGqsWZ8xrnC0GY7EiF6A+Rb0VcnFkGQJqq4YoLeNWFGOTjdG5vp3I8dnG8SSY7zDYhGvBGLXpzCKB+uolhz7K6mn5cDBrqeQjsFkLA+VPF0TOQr817/zDE9M1jHO8f6VqxT8A9sc4glCS995VohYrs/wL/7dL/nAAxONA7dGyy1IEDSI8E7Jvb+NjsQ7vza5MDSW5gg1Gaz20yJcaYVcMxzujnQqE5X9/9wMvDJZhSpFg64VAa8YPOId1hoynxaDsvKkKBsOY+Y7BxhM5hYXzzCWseyhXFruKsDF1VWNDC89GsAXP/YYUWyIJ2t4Kxt4+VX82uGlGKmc9PpMTM6ymAb8bEX5Nz+f452M85fdwUrK31xqk3qDmBiH4n2GMRYRXWMNTrO0mGsihigIaYwQmKx023greGtwPl8zCgYzjyiV7SD0ZUVHCgzvXZn7V2abEFmwCoLFaDnnSZUwDMjyBKwjTTNy7yCMuLGwghYsVLuSkVjCa6rPr2Sc62XQS3LeTFN+2itpQEp+qU6/HNO7Df6Z7SyP7WKlB6wFzd+puG9TNY6W67i5YnLwu8jdfd2gqHBw/rUiw6Hr8b74/72srN1cNzSYWLnd/f6iq3zrWk/f8yGs6nMmFOZbMDE7y42VNrVKtOE7N1/pyvIiJ06coNVaIcVgZo/x07klzN8v8t996eNn51TPHIQwCcB8u1tMBC05aK2xqM832p6pQ0SwgSW2RWPcKMhl1Z/82zdugbHgHMYIvtycqutDkLw6DBYrUnTwH4DndkzshR+rUtccxeBM0bQoWgw0s0GAyx2iBpd7AhujQchCK92TOrwHDiZvqOrL19u8/IvLrLiIfr9PmqaEQVgshAha/utLBbfusq5vAfXjURR3ApDNrv29OKijuspbTZI0O8CQJyA1EZ0wohpEJUW9bGtt1OsVVleXQTxhaOj3eoRRjXdzOPedd/kfvvjU+Uu58mggcvHWRX3s8GP71lxZ6CQkVsgkw1AoWz9ER2I91MOYRhiQpT2OHmmMjHGWwtlearDe4JI+QWhQdWBDiskeilGPyxNMFGGNZXZmAntAXvkp4OT0BG/cMKwkHmNscc8idNpd6tU63glx1MTnjq6LmF9xe3LuBwomr7a6+qc/e5NfLGTctLN0TJVUU3LrCMNgg8sxABK/zaYdg8mHdYnvgEO6Gbi39ghGRTZ7PeZDbAejdwmSJTirV6IgxCEsS4h1yl/+4gp//KlTAOxnILms+pP/43sfkHiHCwMCDF48OtgTWvTkqHeIg4o6pmujkXC4liXPt4GFVnfNXQ6MLTzjLYyKwCiGlGa1emDe6wq8OhXbs6oeZ8Bag2qKkVKfqinSgCYCyennQqubkev91yn3Tc471R9dX+GVS/P8w3KP1dSTpimqirWDEMx4RtFYPiJwVbPjcdvfl3s0dzkrqeeHV5b4j5cW16Y13li58fx+XIdl5Ww7c8VkSgQjplBAmLXQqBdweHKXElrD7OQEdgReVfWcyYFbyytkCOqVIv1c6BKjFBVOaghMSGAMkvWZadYOTCVSCF+ZrMdYzYnKEJeqFsa2mo0RCWvI84x2t0Oyn8HkWh9eu94iiQ9RPfwovcyT524MImMZeRkulfXO03PC1dTys2srXFzuA3B08ui+ZGluZdBzRW5SxOLVYDRAvUVVykPJ1ZM5R2SVqcaH8wTvl3gJns2A+U4brwKmoJ+HAhC994hfNw4CA4HLmIyjA7M3j4lcmKhEVCRHyPE+v23PFk6bYo3BGEvmHclHEO24L3I1cS+8dXWFty/O45MqvfmEOKwQhkHRaVseYxnLXSv4oX0z3K19t8e9goqxBhNXCGeOcn5phaurPa6pPr9f1/FmB1rO42058tUJ6i2eAE9QKGUM3gjVRgXX7zERg5ER6B5XQxfoeCVD8ARFktnb0nMRjNi1ewjEELmcU7MxloMxaRTg+EyDiYolcBm1SgX1hZeG18JLGQoJG2NwqtxoZfsTTE7G9utL/YRwahYnAWFcX7uUMYiMZb8BmAp0XUoC3FhYxMOz+/F+rqq+0HPQzj1KkRsp2JUN6gumWUcBMoQBuc/RLKEi6wPqHqTknrOrDlwQ4sRgw5g080VlF8V9GKISHA3OOQKfUQ+LHo2Dsi8bVTA+IxAH3iFsXR/hy/nwaoRW2ueaZrsygj5yMFm8ef2bANVmgzQ2dAJHFnuc8WPtNJYHERxhp7KCzS2Mw0Ay/Fe5bxMGObEV1LPWJ7W6VOz3/SA5fK2TQystQyPrbTd4KXMmWvxrQiF1CeQpsWUkqrmcepZ6QFBwUkVRRJrmGBMgYov8ly/Cd2BI0xSTZTTjgwUmzRACcRhyVItKrs2e+8A7MaUxtNJtk+DP7ea8H3k118yR418BePJ4Df/jZTRukvkAS4AMYZspd6cfeqkLXxW0rKrZ/f41d6FohrzozT0ZexwnNnd1FR9RxGBfOIg7PL8dRvRuuD8Zhgmzw9cVfRXqBINd+x01IJ5IPc0QHjt6BJckZwefm5g+vq/4njIHSerxcck2O2js0xwn4Cx49YRBhGQ91OUEZn1k9oMFE6HTB2+KtgJjDLnLC7JHBRXBGV8UD6iQZTnGZ9QNHJQeIYACKvMy+e5QIwy12GzpnXR6GcW8xn0EJgM5ksHnT57gr67NEzUO0V7pEtiIIAywxhaWoPqtS1PL/9uQ9DP3ouiHwGvLsZ5+QylycS3rikfuQB63tTYrgdCbewITvVsPTs1926h76hds6nbbrrFx6/W88z0Onp84WePfMsZgbIXMp6jPEFNgj3pd//shz0ONx2uOyzKqZoJqpUav36Xb6TJ7+Cj99jJRK+HjTx7jUC3ksVplX8ZqBZbynOkgiIs4u1FQB2SEmoOB3JTeSVdoaky9GlKPRsOyj2pC1oN2qkWlUpoSx3GZJwA1Sj/ok2uOyz2VsMKU1HEZB0pC4MTR45yfW93+WW/wrAPSFoS7zBs9MDA52xR5ZUl1Th3/6coHzNRnUHFYARVHkiRriks3LMJGpXxH5X2Xyna7JKwdNLnJQJFubcXefn6zjV+xPulvp88PKk4KKo+h/hq5Wz9lfxQ7mk3gcddd8ncJlmYQrnGCUYP1xVp20zbViSoShvSSLiYIt/R1B8aMWEMtnsAklpWlZeoTdZrNJr3VFaK0xWcfO85vnZrkZGN/83L0ug5rgg1gXKSrcxCPlwBDQGgqRYI3Ckem4U+BXgYmqAwZfoPcD2AVZxxuYMA4Rz0MiQ/Y8HJTUOmfRQovTCTYuZFKDfh41wbBA13Gj0/x1T94cuZcjR4XF1dJNcbnjtx7GmXVwVrX+yZL04vfZVhmE5hs+wV+019vDSaeuwSTNR4Ss7Pq142fX+vJlAfrmey5ArgDmAx7hhsaVu/y/qw1BCpUUSIfEpgYFYOrWRb7K/RSoVKrk3q/ZUOsaEE9o4SgIaKuHP1rEM0JXY8nJwN+79Emnz0U8pgx+7aCxMF0wWs1xCwhHl/mTAr6kWJLxmEEWYdGLSBmdMJEvZ4WuRLR8rpvc4ULAkQMminNyRq1A1bzI3ABODt4n4wxIEV+ZDi8teHZG8jhBeCeS9ofKJicEHnxfdVzh5tP8c7VFfouIMtznHrEGKwxtyuR8nfdpFQ3/82d7Vuzg9s3FCYrz7PuOWwDJred32yj/LePz28Im+n65zfi3MHyTDYzF2xFi6JbAYqau75DyR1x5rC5gAYFb1Et4kqrxxsLPa53+0hc2SEJV4R2Wu0uNWuZnJ6i3+3hW4s8MRXw7DOPc/a45Qmzv0sRcw+dpI8O99GUpUA5glB4duqEKLbgcmpBwKgY9hZI07SY+e63D+2IFgO/jFOaUYWD0/++tltfAZ67TadsZy7LGpjsiuzxge+Dx0XkYqb6K09NvXSHxdl5QTaVYyp8KObhzX9fontpLXPGKK+o3v6dIsXfeSnOP/j9w55/LFtaV3cIkd2lW67Qa/G1J6cKbfLeiuqTkyI/VtU/Oz/N37x+g/6O5oeHIMAH0BfBpAluZZlnJqr8V588xedPW+rwxH5fcy+w0u+SmQDRYqASRvAieB8QYLEllUrS7RLhmalXGaWWvzRNSZIEiSoFESWCls9WSsp8gBBD3UZMVuoHhpdr+N2pVirYQSo+91jslobawFhr9bvkuzzvSBgVj4V7YtG9yFjGsr18ffFm+8zMkcaFJyeL/fbOez3eOb/KSrtFPLn9XBIRAecKT1kcQZ5x2KZ86elH+dxJyxMHpDnKCCQ+x5kA3LofrJiy6icock7OI1awKPU4IhwVLxfo9XpFWGcQFdBSvW6KAIQIZDlVsRhYOqib3kjZsCg7GxFdl9LfvUc0lrE8HDJzpHFhbnHxzHXVZ7+1ovrdW6u8n/UJZ6dwwwUOm/NxRUEToQo1UiZ1ld//lSm++HjM08HB6bK1QN+naLDeQKxCGfYq+jMsFoPFWIuxMNWoIiOijHOg3W6vg8lWhkHZNxOIxSUp1SBCPAdq/LLAheGI68DWUdnmALr9Pj3YFXvDGEzG8nDJ9DQXHS//2U/e4adzC7QRwkp8e6J2CFCsKIFTamnCRHeFT83E/P7HTvHrlYNF1xDAUj4gRxQQU8z9GPTibKw49Bg8zSgaie53gEyhk6SoDXCsU4cMijqGmzABcpcRWD+6VNi7QpQcr27b0NZmSbKcnLsLL++wf8YylodD5lTPvLrkz//5q+/wXgv6pkZoQvJ2Z324mhrEaJH0F18kax1UUCZcwm8cbfKPP/kon68dPN6fFKbFWZyY9c5pr0VpuslALP2+J7QWLx6fZxyeqHPKyEg0ZuYKq5my5BIkCnHiMGrLufXFtJqBbs1EadZj6tVgZMBwr0ThjJCjZKiPC6vgDj5Ft5/TAI6L3PNajMFkLA+NvNPi/N9fmOPtjmNV6vigjldXjKYtwwEhhe/vhjyTUHMmsowvnD7Ml5+a5Mnm/k+2b2vQSohqMURqQLtRWPNF+M8bj5qgtPgddpTGCClF2beYIu3uFe+16NmSzVWDJfOBHDzPpCj+Kea+S1G6tqMUPubuoWAMJmN5KOR7XdW/fO0aP7qxxEpcR10Vj5BQKEixhkANuILZwKpZa9ir5Dm/caTGl5+c5AvTB5eJ1GxUSGAK1oANFc9qMGJRyYv1GcHVGFyzF8EgiBdEb09CH2R2ctmQM7H4jwAxxzmTsRx4uaCqL782xw/fn+dGX3CmhlOLc76goBfBmGLehXFKqIUpZzWnmqdMZW3+8JPHeHLy4Hokd62kSwPfeYfqCJr0H7JZtxwH/uxBek4PitpmDCZjOdDy857qK++2eGMpY0XqVIJpqlJDfBG+CRxEKkRqMM4hucdYISUllIRnJmL+2Wc/xe9OixyzcmG5d2vcPwR3ndgdGQUrhRslRtaaMr0UYHI6ls8cOC9T11X8RzW4bAwmYzmw8qZT/cGlZf72jUtc7uXktQmwEVk/KQdoKUYsxgSoegJjimFXPqNpHIck5XOnpvnCY3C9754FmKoevnBQ12ugc9SXs+63AIwNBJh+tABFNkWyBpxcw0pujYVc1lDmQHuSoqyNXb7fMs6ZjOVAyutO9XsX2vyH84tc6BiyqQgXGXJVfJIRaBFLTgIhFyVAqQQBagwkXR4JlN86c4pfPxny9EMysW0raBCxqB+egTEUizfCKK6MWQO9cn4Hsl7GtQkYRcb29BhMxlIozZVcV7yhm8t6490msQp1q0wZ+NiUOfCK8YrqN799pcN33vuA8y3BNWboqRAYi7gUVYcxIb6kCxEgT8HGhoqmxMkiv3r0CF8+U+NsIHK1u/zCydrU1x8WMBmAxpaeSbl9ZAS30XAPydo9ycFsIxmDyVj2FkhaTv+X//c/sFo/XDIsm21eMk+kwpG8y8VU9bHo4Frac2ly5gY89xdvvMXFLCQ8dJjFWy2as0fAgWSK1YLwMYojvEvo9PvUq5P0F25xKOryR59+hD96fIZPlt3tDwOQrFvrxXAXMWVZsNg1o74IfxUcT4VXMrpWvXAH1vWymbFSGavAMZiMhb41LMTTLFQPgXfb0tMbb4qRpSZkOTvYa3Isii/8+c0uc4ln3hlqvZSJqUlyFJfnVLwjMIYUpddpE0bKkcka7aVFTtUt/+jUcT53coZPVh6O0NawDFIgA4/Eb1Gttca8e4DCQ3NOzxyzcmGsUXbpGY6XYD9bkXcf9/WqZC5npXvw1+XylSWcq2JNFZcqFWvJfBdv+qh1qPhiTkd5WPpM6iKfO93knzx9iCdjvvow7if1W4xiKHMlA09lK2AZufdiu5HNMrohujGYjGV/WJwCHsWp0OonBxtIUv1Jp93D5Z5aYwrvhV6akatHAgNGyD0YEzBRb1ATT37rCr91eobfeXyWRys8cSKWMQM1oL4geETNWv/GumcyegpZdPuJq2veln8IMyglt9oYTMbyId5+s/VRvvxRJSZTd6CXIIWzj555hNVui7gakYngCMBH4Ct4reCJIFVMt88hlM8ePsQ/+9Rj/NoETzzM4Y51T3fjMayQVQuaknUSxdG5fmshjmOssXi3hfI0BeeYArV6HRVod/oc6GcuHx143pecyQeqi23HtLFQAUL4RgJfu033HXSPYOhfR5EUjIHQ82qY85Vj8d5s4gGV9PZT1UzBN4XSTvtcU33+hBxM67uqfPVwMzw3Ewv9Tht1HmNiKoHSSxOcehphCGlC0F/mmUOT/PEnHuUEozN69oGFKWRjOKiYB2I2eLhG7m5634MCE1P2CqnmUI5Y1tIzt1K8AxbIXI7znsw55lTPHMRnP6CX37dg8qOO07+7vsIvr8+z3IfWakqvm35NbXjbjR700NKwhCZkuhJzpBFxKNSzzxyun38vVZ7cRWWVlHOdRQTdYU1FIVdPro7VbgeYObDrfiKWF8/neu43nzjJq/NdOrnFZg4sGFKczXFBQk37fPxIg99/aop/PCVyfaX3LGMZ4uHyWwQu1n83IwgoAWCDgNBbkjzHq2JNAYgiRee7URBjcLnD5TnOpeSu/gLwlYOri/xHtv57Ju/0VP92bpW/f/8yb84to1GTSjyFrc+SDLmdDwxIPuyiqrnn8wyfyaih1+kTdR3NxRYN3+FGe4KZIxMfye2oFPPyVJVOr3/gRwo/EYh8a8lpmn9AsNqi20/oZ4Z6LQRJoL3Co/Uaf/DMk3xmyrw0t7pw5thE9RUedilp9xFfhrAKS14NBY25KmtMuyWw+BEyCkP4aiScC1BCa0nVo14R8WzojfcFwDjvcd6z1Tju/SzHRC78r68vIWpAGGo43UmReHYbAN9TMPn264v8+aXLLDWmiKan6PYTJG7Q7qcEgd3Wagd2vtm99Ps+9Nu1+/M4lMahaVYXV/F5RGXqED+eu0r08xu85VWbLf+Nk5P2Q/cyWA9ZluHLaXiyA71FEbowzEyfoNXja8CB7p347JT58mO/+djL7z3d5pfnr/L2lRV6LZidjHni0ZP86olZHgs8p8R+hbEAEMNSaN10LbC0+imIJyuBxWgRHkKKSeGVuIq0hZsrK6PjVcErocmxagrQM4JSMB9jlF6vR7VWxWUZRgtSz6SfIZYDF+KKtUrW8UjDFMaB30ofrOvjxdbKrlP0ewYmryWqL/77S1xLLH6ygahDQ0viFQkMToeSecruE0N36zVsOE+5ye52a+5mWw+dx6F0ej3iWp3QhSz3M7p5xKWu8ovzPT5/onpPIZZAoF6tsOQdojvHR401gCVJPYE9+IrxuMgrc0nniemp4JtPfeqRs/6zVZb7QA7TEcx4felU1YyBZJNUQ4PvJqgW+9YPCK8GCrrc13mWgRF6Wc511Wd3M1RprySHF4LAgM8LZgMRKMnXbfkzsDYTPbAhzuUY4eB5pRpgJQJjyL3e0TCuV+PRCXNdSuBit09mYywBCUoUBWRJQmQtXh7e2m6LhdRTiwOsKL08QysNrrVSLi4u89tPVu/JMgosTNVirmUJ3my/xkbBGovxQiftY6LGQ7Hux+L6BWCNEfb9NFVTMTwqwbjRYDulElfIl7sYE4Dxa8l20cKazQUsQpIrTQlppTkpvHzvbvyegslzYRDgXAIm2GhQGlsmekow9B6JQ/q5x8OzwIEqSEl8jgkDfBiQ5RmBbK/qjcJUtUZl957h7uWa6vMLKeSRYXpyEqsWp4qEtkD+j5AGeSTFK6Gx+DxH8yLk12xM4jH0+gmdlOfu6eEZmKiEhHm244MchMG8QC9LeVg16eNRJGMg2TlMVA0iyNy6EVIexhWU/c6DE0PuQSWkl0E+Kq8ZRQJ+q5C517zIZXqPl8Lrwgb01R+4HOKc6pkEjwYGsQbvds6GWPVMxTHRKICJgVcmKkDaxXfaaNIlSXsQgAnGjC0iQmijIgHe7VKJQrJ2G3odnjh9nMno3oYuBRZOH5om9inGue37TMpqliRLaecJXcYylq08aF6cqjdpBDGUvSTidQ1IpCytdRJgCBFTpefsSJX4T0wURS3rfTDFeGGDx6AFqFjFG0tmDMv9PimcPUjPMYWfzLdXCOpVcs0RMxyi9MUo36HfjXqOT00SjgKYHBO58EQdTlUtUdIm1ozDU03yJCNPUrzXh/5Fzb1DTIiGId7nVFyfo5Hn9HR8z/0N1vBSMzZYn91V7X/uPe2kf18syWuqz/+8q/rDFdV/6Ku+k+r4oe83owcuVMMIzfI1I6gYIS4Yr4gYMigIRW1M7oWlTm9kjBMFAmuHPJN19VYwRSuKK/q+DHhraCc5/QP2HDOY7iT9AvjzvASPTWslG/vT6kFAAK/u5rx75jZ8SkT+zbuL6uMOb3RSEonppQlBGOOdxzwMWd/tNrlA4h1Sq+A0IvMph4M+n3/iOE9P3TsPVABfn6rFz9ksw0T+DiEAJVfHcqezp2Gudzqqry90+ZevL/Lu/CpLyxmhGJ46PMOfvJPoZ09EfKwh49DSPpBjIhf+zytKnqYQVYtqqFwxWBApijjUFEYRhswJt5ZX6Y6I2ZDnEEZSUqYUvgjlT4hHSjp6P2jmC0Na/f7IXP9eiQc6/TYEMbkvZtIMR0lUNlXUimcijrF+d3mjPY1B/fOnZuRfX8t05aevcfXmDWZNhanmDO1WH6s7n2qrMaB734/yYSvIzK7OMzAIVKCf5UxWcxLXo5p0+fXjU/zRp6fYTSf6MZELf7qkmLvxTLySe+gk+Z55JtdTffa7V9r8zdsXeW05IYmnMOEkVRNw8+oKF+YWuLE6w+uq+gkZA8qoy5zTM68sgMv6QB2VsGiGNYUWVgzGm7W+hMSnLLX79Bwj0UWuGcQC+BSobnyPNSjeSxn8bjAS0Uly+vnBeo6OIsznvS8IOgsUQctePzGmqNIbkmpoMH53VW17ntD40vHgq5/641879871RVbSnOVuQrcfIFrD6Ic73Vb9KH5Xat6vfefdFQSYezy/33AOL55+0mJyQjkycZSZOOLxyYjJhG/sZq3fWl3UD2ow0ayz4t2O1xRaIao1ES98sLo3z7oX8vKPrq/w+qqS12bxEuEUcpcTRBHnc5i/3ubWTyxvqurHxoAy0pIrL8RVMDZHCVCt4slwIuTGEJkiGR96jwQ9MunSN0IrAR88+IqoiSpfnalxbqZuuO49ikEYUMLYNSu8eC9Dup0umYboAQuazC33cGmOD3O8CYvOf2PJc1cUA4UhKfkax4GKp16zZGnyTYaqHx84mJSW9otQxNFTODfgpdqtH7FZ/3/Y7/yoPz+s3PvuGFHBVfbSKZE96W94ZmJGvu1Ve51VTLW2Y+9Nt5PinbKSe24sZXtiSf74/S5vLnTp1qZRgrWwAlBu4oC2c/i5FqfervEPfdVPV8aAMsoShVCtCC0MIiEqGd4KA35Q0aL6RzVFAg8mJFVGorz2hMiLf7aq5yTrYmx108tbeialChUnWCy5hrQTDhQ/Vy/z5M6jga6Ftpz6grdMwXmHWEFRipYbTy0MOV2vfGY35w3u98PdzQab6ydnNoW9Nvwu+uE6Vz/qzx+rxPd9cwYeGoGypDv4S1okTIOgitGcfgIJnGcXvQHvqer//u3zXOtkuImZYjjXYF1ECo6nkjdsMcv41oXL9KLj45DXCEtg+HrN8FwzirjhoY5AAAAgAElEQVSlfihx6xGjiEIgRWWgTx2hiRBr6HtGorx2LtMzv3Sg/QRTKw06kTUamEKpahE+9ylYSIClLvjqweg1uab6/PevrOC8LUJ5alAniChBEGB9UQzkKWbUmDKCUqtUdr9/RnlhtlDGu1XOD/rzey5xP+HxZpXWSptomySTYlhp9aiGIaY7T3c+Qp46vXSv57zi02++14OL80toOIs3FlFFhjgbinJEwDlcFPL20hLBuzmH7FGuqH7TwCsHlbl4v8oxIxe+55R6EGBTX9Y9Ff6mqke1mOYpXtE8xxjBr3smI1FeWw+AJEGqvsgRhAqiqAe1BqeKEV8UFBhIMawmHJjGxRxe6CaKNyEQENoAVHHeERhbNJ5mjqAS4FBM5gkdVPcACcZNIPtcPteoyPeutXTq7av0TbCdRwWzVQKfE7s6H58NeMTIrqiDRYqu+kqlSlZaqzLk6Gg5hKjwUCyTk7Os5o6/fX2OfmKf+8OnGs9xwLqOD4LEwGSlQpg6+nkfI4qqxxpXdsED3mN9Mbo3Rbm1Cjo5AmAYyoXXVWmEISsoohkGi/cZaICREkyMEhhPL02o1BpcXVjBnZh87iA8vxymb7Y7qK3gCIhsRJ4VA/Gcz8CDFcUYQ5qmmMzRjCpM1MZgMhbgCyeackX1mxlbd9IPmHlCeClxPGd2Wb5yykRf+XmmeqQec6nXxtoKqjtXykVhhdX2CpdF+Pv3bmCCmNdU9ZPjkNdogYmBWlAkrgseWYWy6Q+vGAyqjkADxHv65NxYWsKfnh6J6w+BQ/UGc+qBHCuCp+gzgbD0rop7EFFSDMuJOzCzlTKgm0FuQpxavC9Lo/EFP6JXjBpCtWS5J1Jhslajsgcdh2MwOSCyV0n9u5VfC0X+5M1Fvfz+Eh+4Dn5TAn4g3hQdtia0tLMEH8WoC/nrd2+R2RO87lQ/YceAMipSAybjGKNdLFpU0ZZ9GkrRsyC+IE40WHL13FpuAQ8eTK5302e7wInZWV6f71LkeqSgURFbNC2WNo/XFAksfTUsdfschGG+11Sfn1No9TNSb8lUMVmGUhBbFlMypRgt4EFTRxRGHJqa3pOpvuOxvWO5Z/nNp6b52JRhIl0g1D5qPGp8QVchxUAu1eLnmwsLzBw5StCcpEXApU7Oy69d5NvvLvGGjrvlR0Xq8OVGYLCDgg4pPBLxBvFFNdBaybsRnBgSpyOhjF2WPx/C0myzhnGK3WQrq3NYT3E/WgCjE0MnSQ8EmHjl2b6Hdg65B+8dqg7nc4oMmOKlaOb0rghbRqrM1CuIsrTb84/BZCz3LE8HIv/Zx4/wO49UmQwzHAl5kJGajJSczDly7wkrVarNJp00Jc0caiwplms9w8uXU/7i7YRLqnp1tfPCeFUfrBwXeeWJw0dohhUsFstgsFIABIiagigxMLjA4q1leXmFXjYC3vlk7SuR5zOPH5slcBEBNXxe5OxEBPFC5C2hMwQ2Lj1pw2qrw0Jn/z87ybgw34bLSx2cMZgQcnE4U1SySZm/VGNRFeIgxOYpkVceCWTX41fHYDKWXck/mqrLH3/yST53apYToSfK+ohLqYaG0BbUFu1uF19QFwMGxYCx9EzIxZbygw8W+c7VHt1m7WsbwhbzN8ejdB+AHJswhL4Yvma0HFw3IA0dWMFWcCUbtWJojwjB1TErFyarJcuxCci15BIzBWeXkTJvgC3UnxG8GFYPAEGXV55d7kMPixePseXI3jLUBwMqGYOqEgUGk/SYru1NlHkMJmPZtfxWxch//vg0v3ekwTEcYa+HTftUDAX1vgP1ggxmcauuWUo5yuVWj79+/wZ/cWGet4dCXscPHRmP0n0AcmgSrOZYKab17qxALLkYFvqOa5k+PwrXP1mHQBwBRY5gDQTVFCCiZo3kEArlutRNmHO6r6nonXB2oZ2S6joj8ICHa0DaCWZtJEVgBM0TZhowl+/+3sdgMpY9kc/XRX7v8UP8+tE60yS41QXQlLhisYEQGEMgtqAyL6f4ObSY1mcsr16d5zsXbvCjWzk/S1U/SHRxvKoPKFziwJJiNcfcRV+rk4ClROkI50bh+iOFiAzJ04JOpQSSbS16MaymnlT4yT4HE1b6PZwpcl1CzjpPYHn/piB6FFGEnMAlTFXhWLD77v8xmIxlz+SxJt/40tNH+MKTM8zULC7r4yRDAo/BE5ki8t7vdxFRvFVy48mtJWwe4nJLeen7b/DWCgTRwZ5RP8pSMXzj0FQNcQnGFF6kR1ExawfGFslcMTgJeH+xTX9EOK4mLV8+fXQWS45RiOO4sMzN+rFRCRtutnqkwvR+fm6ZhZV+grOCii9LgtdZgwNjCkoVC0iOuB4nZpqcrO3N+cdgMpY9k5MiX3+mGfHFx4/zxSdPcsg6uksLGDyu38elRZa2WW8QBJYwDLBRgI0i+rng4kkuZQH/32uX+P4HybmruY4T8g9ALLx4eKKJz5MNNDnbW8SGm+2UlRGpyRO4MN2sYnyGFS0p6dnBM4HFdpfuPi/pSj0sd/t4Ew4NwCpyXkYNgY2KYVlW8HmCuJSjE/U96w8Zg8lY9lTOiMivNqNv/OHpWb54bIqjYUC62icwFuc93juCwBKEIdYGBOVRjaq0+xnB8eN8/9oN/vKdS7yd8rXz7XHZ8Ectx4xcOH5kEs16+LsEkyvLy6xmI3IDCkdmJpHy2rPM3eHPDdcXlmkVjeJ0u3P70ojpZDDfapGKIEExXdFLWTjhlSgIyLMMMYpzKaIZp47M7lnD5hhMxnJfPJTfnhB59snjfP6Rw0zlHRphUU3jckeaprjcFfO4y8MSUG9Ostju4pvTXMosf/KdN3lr1Y0X9AHI4UkweR/N3G2VXLdb9ob51Q7dEZkL4hzPTzeLvI+I3NkzwXCj3aM96J/Zh1vuYrevbQ9LnYRUi14Sh2BMgKqgXrAYNHMYp/i86Lk5MlEj9rvvMRmDyVjuq3xhWuSff/oQnzsSYZNW8WKXjkZBHOjxHnDQWu0QElHVmHo8xSoxP1/o8Oe/vM53e6pXnH5zvKL3V1YXb61V9BxvwLF6VDb/hXcMEwXVKleuj8YAXy/+2dOHwPg+UWCJ4mrZ/b1+DEtmDK7Z4K2bRX1wo3ls/+XrqjG/vDSP1KbJfJHH8iqIDQGDqiC5crg+gelnHJo+Sr/bZdYqj9jd95jAPqNTuaL6TYUzmXLWldbDplzaHUsZR1XuhVDEFMR7G6wKgQubGVx1cOjW5xQ2/mvhpY2WG8/qEF/GVnNdIvhyP+HlOOarAzbgOdUzV4ATp07z85U5VAriRy/rVsygm7paqxIGIf1+l8SlhJM1ksY0r6+k/NnPVvgnz0w+d6GvemY8D+W+ycTM4bWKngZwqBZxq2tITbDO07V1VIlUhPlWi6uqL5wUeaDK2BjzisLZmnhW+gk9I8SmCPtsef1i6JmQG+0el1V/clrkM/vt2S0DN9oJmReEEKcObFAQrqrBiJBleZE78WB8znSjRjPcu9dpX4DJL53q37y9yItvdkkTR+IyXJ6XFu7GDa63jWfcH+hyL3yHomCMmd70PWeHl0ApRiJ7/G2jkQdrN7DU1n5XfW545PDAkxhYoVuBWj2ovyxeqdbr5/7nHy6f8/0WL3z/BrdMxMWlFl1bKV5ls84tXACJL1xy4/GmYKP1CqnLMY0qq0nGD+auYUyPLz52eKzxPyJpAMcmJ3gvyVgfKiXbhrl6wJXFJVrp0a/Bg63EO2nk6/9J9WuHGjVuZQq5gyjY0bPKHczNL9HKps/ux+e12Ieri6vkvoqNLGmeEVZikryYrBg4T5plWG+oBJbApRybmWKyvnf6ceTB5G9vdvRf/+g93uqGLOZdev2ULE3xAtYGRUdr6Z4UjXAW2YfuyYcFk4FFr0Nho+Hf12ywcm3WQMCYHc+7tpabwaQEnK3BxODby0RBQKWr9LorWE0xUcySeJxUEVOMDN3yXvD0ux1qUUhshWpYYbHdwdRCgmqFpSzhexeuUwkCvjOv+qVDY+/kfksTvjxbj16ObQrk6xthS8u+GDJ1s92mMyL5hing5ESVSy1L21nMTqzWWoSFFlc6dPdhvuSa1+d/2IIbrYQsqhHYgNQVDZqa55jIYAJD1s8QD0FkMHnK4dkqtWjvrmOkweRb173+7Y0OL3/QxdYncSJIWIGwgpWik9OvWdnDnsp+LAC6+2veML9+EKoyZkuLC4oGwQJgtPQEdjitu92X80Mgs9VHLB5bC3De0Mu6EAlxENHu90nFEFer+MQhRovYtSp+MJO7vJqJagXf6xFlxXVXTECeWxxC1JhmNYOfza3SWrnFjxLVz8VjQLmvxg1cOHN4GvfuHD4yiKlsYIWWDV6KIajUWVxcZD4ZGc/qq49M1s/94NYSWHubEbX5PVEJWewkrOxDWhUnPH+zDcsZULEYa7A2RJ0SUDQKs9bxbxCFdHWBx37100SGVw88mPwyU/1XP7jIz7OYfPoEnV4Po37N61BTgIe1ZkM4q7C0/YF+0Z0UGLIhPFUq6cHvAyARGXS8CiCouQsdrLe/bMOd0Ld7JwbE4A3luUK89iEMsRri85IKfIfHEsQBSbuL9VCtN8gEnCipcyR5xsyhI9xqL9Jb6PCLa13Gcn/lmMiFv19SJmohc5krO8nNtmEuISCTiLeuzfGeqj75gOfUnBB58U/PL51rhJb5O1aXm4IBmYD3PljhSq7fPBV8tCMddiNeOfv2lXlcXMcZEHUYEZwr6IzwnlxzbGCxhEieMhWHHJsKEXTPpseOLJh0Fd69dpVrponMnKBSiYuEc6kMVewax9PA2l0P9TwERWrl1DsjgxCf2TZclqtbq2bBbXBo7uj9eAE79L1a/r45TFAQOBbX5X2G2hBjLYGrkGcUFytF2E03XYAapeczNBbS0ODEkQaWTKFAKEOa5wSBpeVr/Pj9a1x2+pPTdv8lSveTHGrA9FQdc6sHQyN8i30ga3ZHYdiA2Ig3r1zj9z5+jOs+e/a4CR8ot9qJqQaN6gpBz+xQPlDsaect3sScv3Qd/6nJfUUwmgvMLbfxcQ0VQ5amYCzilTAsJiqq8VRsTKARPulSD4RjdbCqezbtdGTBZCWDbjkdLO/3saVjbUqzWE0OatbBZct4vNk+PLT/saTYSGv3XSbIh6ywwf0OvBLZBCE7rYds/g5Teny6hWeiG0PqIpY0S6hVqxgNcK5HEMr2L7MqnaTP1NQU1sPy8io+CDBBhDUBlVqNpeUbTDWqBM0m5+eu0MuePMtY7qtMBCxNVaLpwLdwdqNbGfhiH/i1Ag3BBTELWTEYY4bgWeCBgsnhRsCktURkJBrgdsilKo7cBtzwGfN+f9Gq5MBCu4tpHEOzPgOrzliL98WUzNx5vPXkNsVoj7pkNABx6Z55JiNpws/19Uwng74XGrUGeZIXMxSMJxNHJo68PDLNyTTHGb/lobJ++KGDuzz8PR4f1efVKGp0/XOD6UVDh8NtWAcdfLdZP8TohsNIcdjywDsoh+2IXz/Ag+RYcVhxGKsYK1SiKt5BrilBLMXQLGPLAgm7YQsaNUzVJumsdmm3ujQbk1SDCqEKIYLPU+IwwounnSdEzTpu3Mt43yVTpj928ihhr4cMGWuiEDiI8mGDxBPWJvmgY3n9alFR9aCv/6lY5KkjU9TzPlbXOyrltlCvR6wnnJ3gzW7Cj28WSe1RfjY3bl5dBJjzeuanF9v4IMSVhqRZi074cjxxwdCd+ZSWXSUzS3z85BTT8OqxsHqwweRYRS5UQ/Bpj35nlYlGHSvrtOUiUngqQ8pvAwgMbZLB/0n5syldddG7Owwbj+GF2+m435+/44MdcgPMPYSvB1ZncQxAaPA2DgGdz/Hek+UpSZ6SJL3yyEiShCTvk7oU5/w23mPhyeTOE5oQa0NyV7DVWmRtKp4NQ9TlhEmXqRCqdqzs77fEwkuHa3AoDgiHusiNbtyPKsVEzcwpLprk8rzjsteRYOA9PlmlaRRbhsBlm5xhmiW0+l2yxiQXV1L6I8KAvJ0cPXJyZi7pnOkK5y8st0hUSNN07X23omsM3etgkqHSo15THj86w17304xsmOtwBZ4+NskbqWHFt7E+xA6rUyPYD4GTopsV7V2qZt2YN74bHWbu8+e3qtIc7reRuwjnbQ5x+e0S81IkXpXhcNo6nbUw2KzBWhny5rxNQZlSzqAeBvrBtftiElxgizpF5x2qfq2YQqUAE9ttc9oKv3n8EI+Nmxfvu5wS+cp/VNWjjSqLnRyr6/MxEItXv6FKKk1zJqMKF+eus/DMqZEIQz52yDIdWW4kflsgAQhNSL/fY7rZ4MLVqyw/9fjIPx9H9PxV4B9uzNHTRsGIPBzKGzKsrRhcnhN7OFyp8OixqT2/npHNVB83fPX3nnqCj09Vya5/QOxz7ND0t8HPWx2bvQu7KfqzZl3dxcE9eBbD338/Pn8nb+pu7u+OGCqbDspj+P8GZb7e4/Icl2a4NCNPUvIkJU2LI89zdhrzLiK4fN3z9CW4WGPL+/VE6mj6lGcqIb/92PGxpr/fYZTFYsplQ+H0RI3YeQK/vr+8QDbUu+FVcbnHBCFzC8ssjEq/SQSnpurloCzdVg02m5PkuRIGMfOtFte6cMmPNsloz5mvvTGfcMsLztr1IpnNzckCYosS4bp3HArC++LZj6xnUlJyvPitiz0NOjmvdXNa4cByVbz6DYtWqVQ2hGg2E9Pdhpp3WfG12f4dGDd3sv7Xk9939/nNoajNTYMb7o2dPZO79U6GP7fenLip0728LhPY2zyK4vN+bYWNrhcA9Pt94moFESFNM8Ly8+vXv8lzNB5XMuwNA4k1lv+/vTOLsey6zvO39z7n3LHmnueuZjcpkeLUlMRQlhXZpA3FQ2A4FJA4MJAgaSEIAgR5kZ7zZD3kJQECUH7IQ+AEoeBAsmWZNunIlmRRJNWiODV7YFfPXVVdXfOdzjl775WHc++tW9VVxe7qoYrW+Rsb1VV32vcM699r7bX+RdJCN+d4dLjEbx89wGcHcq/kvodRhrMulyOKb3/20L4Xf3btDFO1BqpSgNDgyOqXlFaIE7yDaqlKK3EoHfLmmUkui8wcUPdG92mjeFwp9d9OzYq6ttANC8RxvMxeANRqNarVCrVGE60Mb1+8yiOf2ceES0d3mXBsK56joKR5/+w0MxTwQdTNylFK3ZK65vBEgSGo1Tn+5BOU78d8tvpF/fhwkcJTR7Anz7EYBt3VsG3LmTvXJpV4sZseLF6tKfvRa8i61eKd1GK/vJp85XusNOzqDtct673+dqr21ylC7jHqtz+/zmcupRd3MuXULaGu5WS3vOlO530Mpvs+KSmBSxERFlJPXVdJ9Nrltlrr7vnQ7dBJalOstVRtiwOh49eO7uHX9xVyInnAoa636iLbSxUmrKPpHLoQ4LzHIgRqKWHYK9BKk2rN1VqD6zA07uT53UZtalbXwaEBKoVZFozGO7+G2oTuut+pCriezZ9RJX8EbMmak1ngylyT1JTQXq+T+6xxoqiakOEgYGcxoKSX6+/9UpDJof7szF8R+VnSFjAUwMnSSr9XqLAzbsfOd6vne0ZmmFf3AlYTOLwjMlnn9WoDr/+4x9THeE4rhR7NOq9T63zmaj87z089XLbwn79/jlbh9rQbRAQUWGsJgoDdlSr/9NBOnt1ZJseDx94yXzuwbcdLZ+tT1CXFKJ3ZXq26SRrZPZepUjiluTw9zZW5A+wbMCfY5BThA9sVg5UKE7HGi0Nrs2a4yyuP05pL07NcmWtycDB6cSuek+siJ07edMwuJEgw2L57V7cQXoEVTxgYthXL7O3LFgm/dGTSwSdRyTMHXGvJH0WWrwdy+6oEGo+3joJP2FvSPL2txG891P/CbrW5K9xfVuxR6lv/9Yy8tL0/pJmC1Qpvs5CkeAWiSfGIVlmfGhNwpWa5UrM8PWg23RhXNYwUFNWmZSH1uDBoS6h4lHTCswqtNCiFtSHXaynXFi3pYGlLnhMLfzQ2NUfiDIlAIVp7tanxBM5RCGEw8oy0OwosNm8831facc/uqbyfSY77hgkvo40CX//2T8/SMtFtXYoan224h4p9FcWz/S3+8PFBciLZXHz2GBTiSWyrzvT0LOCzsLEEeDE4BAk0ViypCZGh/fzww2tsheaLJfjmlx7eTl99ligRtA9IlCPRKR6HE8F6wIRoHRL7CPoO8fr7k1tytX1d5MSkMPTBtXFK/UNYZ3tiLbcO4z1VBfbmJL/5xYeJk2xhdy+JJCeTHPcNl1t+ZqzB+T/+yVXOxwGxjj7mQrQYsRhJCGyNSmuOh6uKP3jmMENJ7Uh+RDcXZWB0e4lqaCiX+5DOBp73GIFAG0R5Uiwu1LRUyI2a5e3xhGsim9oGd69W39hj4OhAhUhc1+wpAYVFiSPQWXjVieB0iIoGqdsCZxdgwsnoVjoXCbx0tQk3nWG2XqdSrqybLanxlLVn71CFAQNDkf7a/ZhXTiY57imuTk2+DDBdUEN/fvomf31pgStpef3NdzxGLAEtQmkxKA2e6vP8q+cOUq7Ps6vQN5Yf2c1FP/Cp3dsJlCM0Bu0DDIbAxxhahEZIbUzDpxAGKOtp1Fv8/PxlavD1zZ7/7hI8vHOACEugIXQBodOEzlPAE2hIbUziUsIwhNTRqLc4+dEUi5rzW8IjSdwJgBbw+oUbTHjNQhwThRq1ThhZiceldY7s3c6OoJspm5NJjq2Nfdt3fvWMiPzoMrzy/iUY2YMeGFpXF6njogfeUk4WGC0K//JXP8UOy8mD1cE8e2sL4LBS6sBQH9sKhrLybWUCjfYO7VOMEry3CO1umt5hwoizU3OMbQFZ94cLSu0bKmFoonSaKWj4TCTWa4/RquuZKKVoNWs40ZyamOb07NY4B1rr19qeCT99/zwtU8Zaj15FW0h6VMQ1lv5IOLZviNDex/nlt0mOe4H5uazI7ZKIfP/UTb7zsw8p7D1EnLaIm/NtCfO1aAQIiujEcSwy/LvfeJLt3rI/zJMuttRCoazZbjzVjtaV8uAdgQhGLApPFBqcdyil0ZUq0yri1GSTqyIvb/b8h6owMKjRqoUKFLFAU3lS7fFkoa5Aa3y73ikc6OdyI2VsMeayyMxmz39XoMYAPpx0NGwR78uMVAaRVrKsELm3FYVNLS5u0a9S9lbgYHj/arRyMslxTzAwuOO181bkjZvCj8YmmQtKNFRAvdWkaNYvtzXi6VMpeyPh337lSXY4eCgKc49ki6GqOPnMgT3sKigCsYhkirRGZU3XtECIRpwniEKSIGIxKPPhxAyLsOlZXcNlw+OHd9EXZd6UNhplAkRpRCwGwZB5KDoIaCnDfFDi/PQiCVtDSfi0iLx++iIq6idNPMVyFWtX90wATGAohZrH9u9iKLzPnlN+i+S4F/jQi/x4MuFP3jjLVGEY+gaYmZujUqxgY7uuhEvRJYzS5D/+9qeoztc4FOYV7lsR+4165tnRCrsCwdDCK4tWQdeMGCWEXhMRQBiQBIZGUOT0xCTnJxaWvNjJhU3pF7KtYL799MFhhm0Dk9YoaE2oI3AG5zPxUiNZNqEPoaGgYYpcuDnP+MLW0If5++sxH8wuoitVnChqaYorhMtq4pRS3eLMKIroiyKeOLSdbfd5bjmZ5LhrXBSRd+fgW3/1U66mAfWgzNTcPDt27KDVaGYXt+oNamUhr9Bb+tIG25I5fv/4EYYWLZ8Z7suJZAtjp+abO6sljHiCwCBKY73G+nbNCSDOY4zGikMFReZjePP8ZT5sWAEY2Nm/KWne+5T66uEiHOqLMEkLozWBCrCpz4QrO0W8bSUMqzyqWGbRat6/NsU7N+c2VatrXOT5Nz66wk0inAaUZbFeQwcRTmUe1pJnAgZF2QgDobCvDIfuc/fLIL89ctwNzojID67W+N9vfUS6/QBOR7hWk75igVZtgXKliCihlSQMDQ/SaixgraVYqCLT0xyuWP75l5/gqWE4pDYW2jonIlMW4rtYGt1rSb+uKKda+qnU0g1nVvxUK372vodu36i653G9xmfKKu+z1vx0psjxsVAwFsccLxX45gJ8va/ST+jmwRkSQjwCOsV3ak+Ux9sUYwVjIKwM8NaNKb5gNr9vwFNKqf8xNi3vz09zbn4epQxhaNqtr9vfVwtKg3hHoKDhhO9/cJ4nH/nCps797Qn7al1XaIonoomXlIFqP3Ga0rCegYE+lK1TX1hkaGQ3rrFA68YVfvUfP83IA5hfTiY57gpvXL3J356fYiGs0jRL4nmZLtjSpvvI0CATE9eplCIGSmWaM9Psi4Tf/NRhjg8zu1FBwB/WnXz39AQ/fvcCiSreBZncWzZRbaOqehoVAQRtFjBKocV3dc0GBgZWkITv9qLQeIJ2fxdtVJuEpC05rtBKZc9txxKV0su6bHaf034+dHXquvsAQ0PD64UrjseNhFKl+vVmkvLh9SlSHWB91ppAB7o9oyV4azNycw5HxGJhhL967wrnROToJveHPzo8QFXG6TdFKJVJXeYtiwLf02JBZ1+EVAe0+nbw3bcubdqc341F/ubCAhdvNkglRItHa49zCc4bwjBERGgsLFIul2jFMVWt2D9Y4pFBGH0Axzwnkxwbxo8XrPzJO2d5b2IR6du1rmFNGgv0FSOqhRJ6YZF9PuV3P32MrxwJvrbRvPcfzsXy3TOX+fsLE1Aewalow9/lXquNr9wj6pCVUqqti2ay9FqVbfheXJRlWTgQtt8jIyGtOiKYS4Qh7TRWfLYBvvR6uyTy2SEQvdRYrnte/JLQKdevL/v83vl7BUEhohQ1SRt16h4WCxUSBZHyIFnTOVi9NbNVAYumxNuXbnJqV3adTPh4dJcubEr90Gi/+dpTOwdfmhqbIi73EatMJFHTaQDnl/llTgXUdMDblyb4yaLIc30Plgyvp+mJH816fnJ5mtlYoQpFsDGhKdJylsAojDhMK6GkigQ+okGCTVVsAa8AABmNSURBVBY5fnAHDxUfzDxzMsmxIYxZkT979xoXG4rFoEpJrXMpKU+aplRLIWphliGJ+Y1HR3nucLChAqpLVuQm8N2TV3hjfIZ0YDexCxHuhkz8PTs2tzQec76rTK1UpopoMGA0pq2QLDoLPK2+gPS0Wq1lnk7nZ+f1nUZIq72+d3O2V4RztXTS1d02TStNiLTBporqQD+xA20CcCniLY6O+vStny9K0/JCM+jjlfcv8LaIxN7eTjTuvmCPVt96ZV5eeufaDa76lDQRCuHa169TmiYBYXGAV96/zJiIjD5A78oHwfNvXp7gw+kGurKTQhDgmjFRISJNaugoAuuI45idI9uZnptGF4SqSfn8QyMEdXkglTL5BnyOO8bFWlMWBU5dm2HWFaA8iEXhRbpjmTEBTDEiri+wI2zwB19+gt95rI8RxR1f5NcTd+JCzfK/3rjGDy7M0vRVkqZCOU27ycaGhnLqng3JpHOz4aXdRlURaI3W0g45CUoJrv3P+xTvU1KfrDqCgiEoGEykMZFGGVCGtsqt736cRbAITlR3iF8atH8q1zNHp1Berz0EimER4zWlcok0dVn1eKrQTqG9xmBQ6/QIUqnGBhXeXGjw3TNz1NIl4319ZuGB91sf7YdPHxikVbtJqVzsknFvsd/S7wrrApKoyt9cvM5bNbjq7m/dzPjUzW7G26maf/HUzQXmCShU+9DaEKceQdM/OECKYLUm6C9zZXYaHRl0UuPwtgrbKnCgqodzMsmxJSGBJjHQMhFORVhMt6fFajACOmmxTVt+87EjPDkMxdTPHojufJ/keqpfevX0Fd65UaNV2YYuD6J0hEPhtd/4UPd2iG6PFZ0qO8dJFIjO0lGz12TEsFKkT1Q2PA6RpdHbknW1vjUrO2Wueh7V6mM1zwLRiNLt+Wu0aJTN3B5t1vKoluY3VO1nvt7CD+/kB6cucj3u8RSG+7/1oK/hY0qpzx7ez95qGVdbwHyMYypimUtSGtVt/L8PbjDeur91M7u3b3sN4OdW5Ps/P8eMUwSVInHawLkWymisFxwKyLLpTKFI08YExrODlC89dID+B3hM8zBXjjuGijSxAqdBe0volxparYbQWwYl5csPHeT5w/18eoMhgvOJyJ9erPH3E01a0RCWkNg7StUySau2ZhfK2yJIdW/3TGTFKt33RHS80pie32+N0/cc656/6/VCcbKyw6hfIgJuJQmn1mmeprhlzwQJQNpvLw7dzh3TOpNy77yucxKU74TvssecaxEECm3KzCQBP7y4yOtNkcMRR3YZtSl7J0f7A47v28v8uQlq4rE9qbVKaG/IawQHPgHx+GiI0xOLnBzxnE5FHrmPNVEXU5G/vOR460qNerVKtS8kqc+gdUChHGDFg9VgISDCJY6wYAjTOp8fHOS5ETj4AMNxuWeS445hlJwsAyVpUvExBUkxbUPnlMYpjahsQ7PgLf1pg6dGynzlUxsnkjEReW3sBj+5PMViNMhkrY4qhbRcwuTMzbYNW7my/zgCWRr+Y8bGWUV3DbygkV7PZB2vAeXbRJKNDpGoZaOd8dVpFCfdlN8eo7j8ObeLW75729vqkgseZQCdhc2cW6ozWeXduDl9g8HhQWq1BoWB7fz47DV+dLFJfRNFFPsdJ794oMyOZJ6iS5ay57RGK4XzHhWYrAOr81SKJdJUmGkJf3fuGtccXLP3RxF5QmT0g5mEt65NsxBW0YUSBWXwNkGcRQcBXiuctYDGBIb6Qo3hUpFio8avH9vLsQecNZeTSY47xn4VPbMLvvbis09ydKSEnZugL1TEccxikhCHhkQpSFP64jpPDBb5N8/tZ59jQ1Lyp5si3zlf468nLdcanlrcpNpfppnUiSJDtVxEeUF5dfvDGegZqj3E3zp6n6vt6iNIw2Wj8/eORdaiUe2B6K6BX29oAS1ZSKlDE7JydEip03q6HQZTvcNngxVD9YwsgLXWsGgSFAmKTHZETIoYh0PwSuNFYSULGSqtMokSpbseSnGwwnxzgcBYUmeZCyqcvDrDTy7NMyGbI/G+P1TPHLJN/tmThwnr85QLRbRRmKB9fnzWjtSJoaiLJPUU7VMqA4Ocrwv/5/UJphVfv7pYv+f7J+c8518Zu8ovboyjBvpARdQWEgKKaML2Vl+2NybtVYSWFuFinSd27ORQ34M/nvc0zHXBiTQ96AD64JsOTjRhyAEFlgq0WOaId730HPcYncydzvrWABHMangthhdjB5GDhwp3voLZo9S33lmIX3p0qEBz7zA36nWcCZjDQ5ogzUWGjPCFwzv5rUeHGLIc2RXeeTjjSuJ+9tPxGj++OMe5mqeVCjowtNI024GGngwn0/acVE+4Z2ll7Veso4wseQadpAGzVrc6WQr93MkqX/eGilZ4Rb0hleyZvSGtO1zn3UZqs76bm0wt3xXzkO3doAmDEFNUoDzWthBrEVHd85HttQSAJxSPR5MEJS4lMT8cm8TQPM8mZXY9MlJW78xa+fTOQd6cvYEe3Na+ruJMuUEEZTSp02SRXEuqHPNOOHVzkb87V+KfPDxwT/ZPrk7PvLxvZPirH4nIf//ZGV776CrhjiM4AmwzxXhNFJQRBQ3nQGfXeqcvy0Ag7PMJz40e4mgluykW56dG+wa2P5Aw4j0hk3MtkfMJ/OmYcPbKRWYW59E6+LoOAlyxgAo0OvXg/ZLLv0KS/JbURNlkp0l5PsnoNV7WgxOFdkLB2yEj9kWvY3aODPLo4YO8ISK7PbMHzJ1tiD/RX1BvzjVkR6XIT0+Pc63RImyl+JZmWzng2GCZL+0f5AvFjbnbV528/OZkevxvL86ymAQUgiKl4gDWe5xux7O7tRFZsZl46a6Gl8y5B5Wgtb91KdO+7Iy/fUurbznW6/SSQCPQnu+SUfc9Syvdvd50l6j8HRPAXS7H5M5OUS9JxkkT22yBskShwqgITAEvGTkrr7MVJoBYPJrYBMwpzXuthOTsLKdF5JFVwjLjtfj53dXCfZVfeWIoUH98sSFn3zzDvPXEBJloZRDSSGNEaRKjCQNDgKOVNCkNDjKzMMP33rvMrt2fWTNdeCJdGN0V9t+WMd83MvzVCZHRVy7O8sa1GWajKrtKfTTnY4xAFAQYAe+FoF2YqiULd0raYsBYnhos8Y/2Lb3ngyKSe0Iml0Vm3r4J3333OpdbnrnEIqpC0RRIPbRaHqcURgyGQpcoMmPXoyXj/RaKwn2yiaRrG1S7wlqylaHBU1QOgyWxAecnGnxw8yyvB4p/8fTRDamifm6wrMa8yJHt/YzdSJl1QhAE7BrQ7OuDXbDhLomXp+IX3748xdnJWVq6TDEsY9MmklqCIOvjjTYrrhi1/LoR3TbUNksDXstu9pDJx9tVvyZx3/r3LBTlRbf3QHTbAKhbuGAt4rgtT+guuURt8BrTAibQFIqlrGuhi3GS1dUgJgu5tT1F3XPclFIkopn3Jc4vxvzZ+3O860QeN8sN8v0mkq6HsrPEk3uGeH2qRR0oBm1FgdSjQpMVZgYRofc0fIq3KX3Du7gyfoHv/fwq4WM7uCgih5RSEwvzo7v6B8YAbpdIoK29NZG8+sOPxmkVhxkcGqRZt2gMOhQcoKwsaYgphRIh9B6SRUZ39/PlR/c+0E33e0YmEyKjb84x9H/f/pD3pps0ozI+NJnsg1KIKMRLOy1SYTtXfLt4q/em9ai7Xi3dO6/kH4DWoGTHHBFELGJtpp3UvghtWASKzKSetFnnh2du8IuWyJMb8CJGs2o1JpyMepHnlVJju83d92w/e+YMZy9P41yBgarCtWpY7+kzAV7aYld+aUN4yRiv8HqdAgm6rWZd+zoUv3Rj9nrGy4r82v8vFKI1lxlLl6lp81LmgXuRbP9doNCep27PzXvX3Yxf7XPjOG5fim1pj04oT6/FXHfHJm4DCgDSPXYWMZ4o0ISicFbwxmcZcj7reaJCh1JZ3xNDuyYIjUYRBxVe+WiaQt9gV25lfG7u+d2Dgw9MEHJ/EZ49tIsL81NMTsxQ3TWY9WXRkknTG42t1+kvFRAVYh0YQgoDe/jw5gy1N0+R/MpjAHSI5E5wRkS+c/YGf3n6MudrntLug7i6kM7FbN++jbm0TqI8HRV5G6hudDNMmuwLHV86spMD/Ztncu6KTJpw/p3xGc7XU/p378OgaLmUNE2pJw6jNBQiCiYkiePsZhe9qTzxy4JlMXllKPVX8dYicUxsLa3UY7ShFESICTgzu8A740OMO3l+o0TQTvG8ZzUDX/zs4xx+FuIIfAzetkN2OjO8bpUFuVqDWGsLSwa7k2HrloVZVyeRDmq11q1/b1/LXsHk5GSPYW5vlkvmi1hx2aJKBK9sm8hURmuq11NvGwrxSKHznPbrRLKsorXO913KwchdKAA4DbFPqZarGB8w20q5nqYkgNYBOlNNbG9oZ8csEItv/79lAqQ4yPfevcjCuOHHN60kA2ajDtOGUHDuhaPbCq8+NFRhPvEsYrG+sx/nKRRCWrVFak1HtVSlVrfMz8+joojC0HYu1uv8xakL/M/LNfnMSIUnK7e/KDvjRb73/jg/uTzFOFWinUPM11MiU2TbjmFuzk7jqgZR2eHrLJq892A9JRzHdw3x2GBAlMy/8IkkkxC+PTY1+2ISVJm9MY8KInwxIIxKBCbL7mj6FJ+mFNBt6VTfXWkt34CXe+N752GuW2L5QsD4dI3QhJR0gUJUpBKAOAtxTC1pcsm3OD0zy68f2nECeG0rzP9IWanrVk7UGu6lY5VArRYWEBhdccmsviqsLOOW0TaZnOghk1FRS8KHSrLqfKUYUzBmKH5LwdgutTyJYFwkq1R+aH+HoE4IjHo43itdomDWwLc68/Pw/DpX3/PSI8Io7StS1iWDu1x83MXrUw0x2bh8A35+8QavjE3QNH3ogW30VSo0Z6bRYrIqfbVUfwJZwWbLORJT5Ac3mlxOpnj6wA7e8iK7FCd1fea1vdWRb9zPa213ELx2SYTj+4eYaaW8V6+TmiBLFQ4CrMTogqERO0pBCIEljRsUI02sBFcd4OTUDJMLV3j20H6+vyByIITHSmuTytiCyPuz8OfnHH/90Qw3pIApb0epAs7P4EOPD4REbKYwAAS+fU05AesZjEocHSzyK6NDPF3c3JDKXX34ORH5999+g6nidhQFUhRx2xAbpbIqzchkmUTWLasylRXu+qorq/u8Ca/vkEz8J9SbcipAdF8me+FTlI2xymGUUBSI8OCbfGYE/tOzh/l0kDenynFnuNpKXt5XjL46ZkXeHU947coMH8wnTNkIR0TUvr+t1jjtUTpLYdbicQhWQgphhI6bFNOYYSzHhiI+/9Awn9vXR5gtXk9umPAcx0uGFwCajldDs/ReHo4nwALQAr53Fl45M8ZiEGK0RmuD9ymFQoHmQky5UMYohfeCVY56q0ZYjnBpQjI/z4hSHKsUee6hAzx3tMwg0Bfwwm6VefzXRU5MtXjp/XHP352b5BeTM7T6KqhSH6nVNJtNKgMFUhtTn28yvG0HC0mdQGlCn3UmTWxKEccj24b44p4+/sMRs+n37F1N4L1E5L/86CM+qKu2tEaAQxDricQQRBEt5aglLUpRYdkG48o9otXd9PtLJmtvbPqPDR19sjwUjXWaQGuKOmuzOt+oUSlXKOkiOm5BMs/ndhf4149v46lyOSeTHBvGhMjoB/Ocf/mtM7w563DDe6nVE0rlEuBpthYJQ00pCGgsLBIGIdJOqDAeAsk6HkY+IZQWRZfw8L7dlLQmCEKCwGDM8qDKmntJbTTq9VXtihZQQYTRmhjNXOKZ83Bm8gaJWcpCy4RLTLfuRxuFdw6lgiyMKS7TYRMwzlH0jnKo6StohrTh2Lad6CSlITENESZrTaYTy7QFGxawQGwtSmW9VYzO0tW1yqSKYi9UKmV8EmOTGOUTHh4u85UDVV44VGKzZf3vOszVF8K+vhKnJyfQxX5sWFySbxCh0WjiCwWG+odImo1lxvuWry4PNtz0cTTVmevyGPknMwAWoAjDLN0Rl9L0KeW+MnhPfXEOPzfDjijl0MBhRkql2dwc5rgbtEOB6jvXWpJenOHNyQn6B/cwu9jASMpAX4V6vUatETNc6cNZRwuHlqxkIFWaFE3LBECZ0HtmJxoECEYvJTmonj2kj7Ol3cXqGtEO0QatNBIEpAhKR1lSt2jQGi/La428y3bcnG+rY7mg+zkJmlgZat4w6wKmRLh+5QbaCzGeWMFsK8GFAc4YlHXdDD+T/SezUd3Oap4wNNTrDQbKFWjU6VMJjw7086WDW4NI7ppMDimlvnOtJTdmFrnQgjmEJAxwSlPUZWwjIUkdspBSNMu1hZTcjmdyn4hE7sxdk094uCvroaERb7CiQQWk1hPi6S8atu+s8FAh4fjOfjbapCpHjpV4Zk/h27Nm+MXpxXnG5m4y0red0EF9ZpGiCXC2nfWmhOXpECxTIPZAqkukInjrcd4hPrgtMlnpsaje1rbth6x3OCdoLQRGoZWmt1RJiUZL0LZfesVyVG6915TCSUY0PvXEyjPn0+zxQINWmLBEYEK01njv8anFi2CCAJGsN4146S6oxTvKxSKLM3PsLQY83R/xe48M8ajeOiHpu64zeWJPgUZrP633zrF4cwprNC6IsEGVgUI//VEBG7eIJJNiuLMw1yYSiqwe2vok7puIV4htgQophwWIBOtj0tosYVxnMHL8zuc+y+FKrq6T495hn1JffVdE5o/u4ebr54iqQ1htmLeOSqFMuVRhrjaLDjUqMGsWCjutCYtFrBVcmuK8zzake2zIx9nUjsKBrIh6SLcFS6Zh49qJQb1eCC7zPtC3d39orbvCp177TPIkzCrpdRh2dbS0zeyh0ZrAhCgRvHc459EqU2P2LptnoVCgNT/HiFYMx4v8/rOfYafbWrohd2UaJxZmR3f1D42dT0Uu1eGdy+O8ffECtUQQF+KdJvZgvUdCvyy2tJlk8svmmWgB47Mu4p1UR+8a7B2s8PnDB3nm4AjHq/mme477g1Mi8urpJn/1wUWuKg39I9h6JqLojeBcilGypnfh29pjvSnUK8nj9jtlriAstUQqSrJaJSMQSqcVcrsPjFaZ4oJag1DaExMvy9ojZ3bNt+vqss+yknkhnqXvrNt7M1kEQdqy/tlnJTbFaSjU53h2wPAHXzjGoQIc2WKJMvd0Mu/GIosCtZanWswa+BAs70N0uwZ7M7+0Xv/y+8TpiHVqwnsVZVsplDzsAI4WcyLJcf8wYWX0huL8q6fmefXSdaakSKLKxM6gQoUYQTu3rEJ+5cKtt6gyq1ddrnRwe4vR1Ymk9zGFJ/AQiMoKfDvxLm3uiExWLuaUUvi2IoUoj9d2WeQjEwDRmQipUiilSdMU5yzGewo+4WjV8IdPHeLTA4qjRa0mFqZHd/WPjG0lO3NvLpgkHk3RL+sgeM1ZTnQaH11yIomDcsg3e2sA9IpahvXy7u/Tan3dWopdOqsnmPDLFU29erDzvCdhrp5ajL1KfeO6yAkPz+9T6qu5qcvxIHC1lbzcKIQv/uiC47snzzJZHGJRFYjFERiFwq4gE73M/HfIYrlnou/QM/HLCKn39+77drTalHSVm6HTf2adMNda4Yr23k/HM/E4PA7nk6zxWVsNRBOilckUpbVCa0Or1cSYgL2liKM65nc/s4djERwdWFr8jc/PPL97YHhL1IXlK9IcOXI8MJyNRU5OwvfOXONiy1EjpCkK3a5J7RDK0p6lxyuNeLXMXmtlNhjmuo3ogvJL4SdZIi/d8VJW29txq5vSjuehurF1v9R7p/M+kqklZN0sszoS41J0XGfPQD+P7xji9x4rs9/zzb2h+sZWPbc5meTIkeOB429rIq+cus5rF27QKA7TaoeRClpRDBRGCc5bnEtIUXhVWBZiMitM1601Y3pd497rNaxGJqv+eUUXyzXft+c5StrkpF37b50GaW2CFNUmwmw/SBkoENPfmuNISfNrR/by3OjAhpvK5WSSI0eOf9CYcDJ6XXH+jZvwlz8/S80XqXtotZok1iJaYYoRhVIRdEA97siULnkK66kp6x7dtDWecZffwH9MpmdPbxo8gUhGUqJxZL1elDGEQYQxEfWFRSRtYpszlNI5vnRsD7/9xFEeL/HtT0o4OieTHDlybBouicj56ZSffzTJrA+5VmtwI3Ys6oi6V9TTrBdPWAiWeQy9C/VbCGMVj0OveFxtMItmmdL5Cg9m+WNLhGK8pugK7b7yHtEaj8WKJXYxpCk7KwPY6XE+NWL4reMP8/T2gCiNUY3F2QOD2z8RtV85meTIkWPTcV3kxM2El85NWX5x8TrX6gkzibAQZ9pyiXbLjPfKFhbLSGUdTT8tS9Ryp4SyGlmsue/e87jxAUVbwngNyoLK2iBr5TBGiEQ4uG2Ezz20gye2w2AChwufvAzLnExy5Mix5fBhLDI+57k4eYPrc4vMiiJVSzXWM/OzS102231plrpuSjcktnYoSt9xG+O1wlhrPHuZXyQ+xKAo4ilKyujObezqK7N/53Z2DCqqERTg5H6lnvmknrOcTHLkyLGlcVXk5Tq8mLR/t9BuuLeEYq9XsI7J3wxtPSGTGvFtgxsCkYey8MLuQL2Wn+EcOXLkyLEuJryMjjt5/lIqctXJy/kRyZEjR44cOXLkyJEjR44cOXLkyJEjR44cOXLkyJEjR44cOXLkyJEjR44cOXLkyJEjR44cOXLkyJEjR44cOXLk+Bj8f83Gcg6L0Ye1AAAAAElFTkSuQmCC;" vertex="1" parent="1">
          <mxGeometry x="240" y="368" width="123.37" height="60" as="geometry" />
        </mxCell>
        <mxCell id="blICFfli1qGLsLNeWDGJ-8" style="edgeStyle=orthogonalEdgeStyle;rounded=0;orthogonalLoop=1;jettySize=auto;html=1;entryX=0;entryY=0.5;entryDx=0;entryDy=0;flowAnimation=1;endArrow=block;endFill=1;fillColor=#dae8fc;strokeColor=#6c8ebf;dashed=1;strokeWidth=2;" edge="1" parent="1" source="blICFfli1qGLsLNeWDGJ-2" target="blICFfli1qGLsLNeWDGJ-4">
          <mxGeometry relative="1" as="geometry" />
        </mxCell>
        <mxCell id="blICFfli1qGLsLNeWDGJ-2" value="Snowflake" style="shape=image;verticalLabelPosition=bottom;labelBackgroundColor=default;verticalAlign=top;aspect=fixed;imageAspect=0;image=data:image/png,iVBORw0KGgoAAAANSUhEUgAABh0AAAYXCAMAAABLs0siAAAAAXNSR0IB2cksfwAAAAlwSFlzAAALEwAACxMBAJqcGAAAAwBQTFRFAAAAKbXoKbXoKbXoKbXoKbXoKbXoKbXoKbXoKbXoKbXoKbXoKbXoKbXoKbXoKbXoKbXoKbXoKbXoKbXoKbXoKbXoKbXoKbXoKbXoKbXoKbXoKbXoKbXoKbXoKbXoKbXoKbXoKbXoKbXoKbXoKbXoKbXoKbXoKbXoKbXoKbXoKbXoKbXoKbXoKbXoKbXoKbXoKbXoKbXoKbXoKbXoKbXoKbXoKbXoKbXoKbXoKbXoKbXoKbXoKbXoKbXoKbXoKbXoKbXoKbXoKbXoKbXoKbXoKbXoKbXoKbXoKbXoKbXoKbXoKbXoKbXoKbXoKbXoKbXoKbXoKbXoKbXoKbXoKbXoKbXoKbXoKbXoKbXoKbXoKbXoKbXoKbXoKbXoKbXoKbXoKbXoKbXoKbXoKbXoKbXoKbXoKbXoKbXoKbXoKbXoKbXoKbXoKbXoKbXoKbXoKbXoKbXoKbXoKbXoKbXoKbXoKbXoKbXoKbXoKbXoKbXoKbXoKbXoKbXoKbXoKbXoKbXoKbXoKbXoKbXoKbXoKbXoKbXoKbXoKbXoKbXoKbXoKbXoKbXoKbXoKbXoKbXoKbXoKbXoKbXoKbXoKbXoKbXoKbXoKbXoKbXoKbXoKbXoKbXoKbXoKbXoKbXoKbXoKbXoKbXoKbXoKbXoKbXoKbXoKbXoKbXoKbXoKbXoKbXoKbXoKbXoKbXoKbXoKbXoKbXoKbXoKbXoKbXoKbXoKbXoKbXoKbXoKbXoKbXoKbXoKbXoKbXoKbXoKbXoKbXoKbXoKbXoKbXoKbXoKbXoKbXoKbXoKbXoKbXoKbXoKbXoKbXoKbXoKbXoKbXoKbXoKbXoKbXoKbXoKbXoKbXoKbXoKbXoKbXoKbXoKbXoKbXoKbXoKbXoKbXoKbXoKbXoKbXoKbXoKbXoKbXoKbXoKbXoKbXoKbXoKbXoKbXoKbXoKbXoKbXoKbXoKbXoKbXoKbXoKbXoKbXoKbXoKbXoKbXoKbXoKbXoKbXoKbXoKbXoKbXoKbXoKbXoKbXoKbXoKbXo2Wr3dQAAAQB0Uk5TAB44UmyCkJ2qt8LQ3er3//Hk18u9saSXinlfRSoQGjVPaX+Pm6i1wc/b6PXz5tnNv7OmmYx8ZEowFQQzaNL86bR+SRICK2CVyvnywItVICVbkcj43qdxOgdUSA9helec4dFGCTSI1fClUcy7FN+pgL5lDWuJIl1AnlkfdgxEutpmBi2HUNPrdz2YHTvlAywRLrah/TeNrCN07keBQRm5AXKaCljsxxbcovT6dTHgr5Ti5z9zfQX7C/4orc4T7zbYoEsYYifjTpM8JLjDPoRcFzkOG7zEbWOrxhwpWoZWyZ8meCFwQ7LtTGovhfYIMm5v1pJCsGfFe1PUrk2jg46WXoPNr60AAJ0xSURBVHic7N2Jg45V+wfwKYrC3Oi1FUIpDGlTjBrbqMZayJIlImQrI3lJpEWFoaKENJmk0GR5MUO0SLT7iRQl9SZZJiklvVp+g5ExZuZ5nvs+53zP8v38Bee6rnM/13Mv55yoKCJxTju9QMEzzixU+KyzixQtFu0VL1HynH+VKl2mbLlzzytfAT04K1Q8v1LlKhdcWPWii6tVrxHj1ax1Se1LL7v8iivrXHV13XrowRERnSK2/jWFro3z8tOgYaPGTdDjNFd80+uuvyEh3ww3a96iZSv0OImIjmt9401t2ub7s3VCu5vbd+iIHrBxTutUtnnNMDNcrGGjWzqjB0xEzqvY5fIGYf5s/SOhedfz49EDN0aTbrd2jzTDXo8rb+uJHjgRuavX7b0j/t3K0qfvHejRm6B1nX5+M+z1rzwAPXwictH5LQb6/uE6KmZQJXQMemt9Z49gGfbuGsxvAYhIqcQh1QL+cB3V4O6h6Eh01fGei0VkuO3lw9CREJE7yv87WsQv11HNh6Oj0dGIC4oLy3C7e0eiwyEiJ9w3StgP11Gj7x+DDkkzDwzK/9vgSPV5kEshiEi2hx4W+sN11NhH+IHNCY/+S3yGvcfGocMiIquNbyPhlyvThMFJ6NA0MbGhnAxHt5iEDo2IrPX4E3J+uY64pAA6Oh206isvw314h0ZEUlR8crK8n65M50xBR4g26an8d8oIqkQXLkIkItESbxf3nVJenp6KjhJpzDPTpGe4x3R0lERkmeE1pP9yZUqY4e7nS88WVZFhr+FMdKBEZJERzyn55co0+lF0rBiTnlSV4WZDktHBEpEtnpf/UOmEWSnocAFemK0wwy86/QCPiISZI2RLh/C9VB8dsWojX1ab4bld0BETkQVuUfm39qh589169vFKquoMe6/yBAgiCmiB8l+uTP1d2vmhHCLDC53/fJiIAmlVBPHT5XmLFqMjV2XSXZgMz/sPOnIiMthD4R5XKdzkJW4s3Dq9FirD3hM85JuIfKoC++XKdNlSdPgKvLAMmOGB3JmPiPxIngX85cp0Vxo6A9IVTIdmuNZydAKIyEBLV0B/uTK9thKdA8luR2d41evoFBCRcVIEn/Hjxxsj0FmQ6k10fj0v5i10EojIMKuFnBsdVLG66DzIk9Ifnd0jJr+NzgMRGWXNO+ifrWNi7kNnQpZ6WrTfTHeiM0FEBnlA/l7S4VqLzoUcFdXsyBqOdehcEJExhjZA/2KdkPAuOhsyVLgEnddsqqCzQUSGmLMQ/XuVXbNX0PkQL+UGdFZPMgSdDyIyQufe6F+rkxV7D50R4d5H5zSHbuiEEJEBxnyA/q3KKXUAOieCFUZnNKd5H6JTQkTaSy6F/qk6Ve2e6KwI9RE6n6cqzlXTRBRCWfQPVW4usmlLvo/R2cxNifXotBCR3gajf6ZydyU6L+Lchs5l7vqh80JEWvu/OPSvVB7ORWdGlNbF0anMQ1V0ZohIY630WQWXwzxL9ovbMBCdyTzVQeeGiLSVOBr9C5W3sZ+gsyPERnQe81EJnRwi0tW/0b9P+dmEzo4IkDOkw1V8Djo9RKSn6eifp/x9is5PcMuRR8GF9gQ6P0SkpUnF0L9O+Yueis5QULE90DkMYTM6Q0Sko8/Qv02hfI7OUFBnoDMYSs0t6BQRkX6Go3+aQrsXnaNg6k9GJzAkK17uEJFQ9XT9Dj+bhK3oLAUx5iV0/sLA7VqJKAfdtg3NVRGTd9R4Cp29cETbfZQ3EUXsXPTPUnjKofPk3+no3IXnbHSeiEgriWPRv0rhiZmJzpRfybp/r3TcF+hMEZFOzkT/JoXL2N2ArkFnLly1UtCpIiJ9LNd1871TGXpOTYVV6MSF7Ut0rohIH/3Rv0jh64HOlT/r0HmLAF9ME1GWD9G/R5HYhs6WH+MS0GmLQCF0tohIF1+hf48i0dvEr1pnobMWiWWnodNFRHq4D/1zFBkDP6oZZ857nSO2o/NFRHr4HP1rFJk30PmKXCF0ziJk/H6HRCTCYvRvUaRaojMWqYp6b9x9qsfQGSMiHTRE/xZF6gZ0xiJ1JTpjkUqYhE4ZEeF9nY7+LYrYMHTOIpPYDJ2wiM1A54yI8N5E/xJFzrAzzL5B5yty03qik0ZEaJ3noX+JfPgvOmuRSK6FTpcPb6OzRkRo36J/h/z4CJ21SNyCzpYfPAaIyHmXoH+H/Jhg0oo47U9kzdVydNqICGsK+lfIn6vReQvfABMf3XleWXTeiAjrCvSvkD+fofMWvvboXPnTAJ03IoJKmob+FfInwZxvam5A58qnHejEERHS1ejfIL9uRGcuXOPQmfLrQnTmiAjpZfRvkF/foTMXLgMXOxyzMwmdOiLCWWreKt4sCYno3IWpGjpTvjVGp46IcL5H/wL5Z8g+3hXRefJvFjp3RITzGPoXyL/S6NyFZxc6T/69g84dEeFMQP8C+dcnGZ28sFyEzlMAu9HJIyKU3ejfnyA6oLMXjjEmnSedU1d09ogIxdjvaY44A529cBi5x9JxZ6OzR0QoJj/28O5CZy8ce9BZCmLeUnT6iAjE2O9Zj9hrwk58zdFZCuT/0OkjIoym6F+fYOqj8xdabDQ6SYH8B50/IsK4H/3rE8yn6PyF9jo6R8GsQOePiDAKoX99gnkZnb/QPkXnKJiF6PwREUY/9K9PMNei8xfaregcBdQEnUAiQog381iaf0weg85gSOegcxTQYnQCiQhhK/q3Jyjt1/Ka3n+9gugMEhFCN/RvT1D3oDMYyhp0hoLiRnxETqqC/u0Jag86g6FUQmcoqIvRGSQihCfRvz1BXY7OYCiGHil9Aj9aInLSB+jfnqA+R2cwlHXoDAWVHotOIREBlED/9gS1CJ3BUBqiMxTYVHQKiQgA/csTXAY6hSH0RicosB3oFBKReuPQvzzBjUDnMISd6AQFdiM6hUSk3ivoX57gfkDnMH/J6egEBbYPnUMiUu889C9PcOehc5i/euj8BDcDnUMiUm84+pcnuBfQOcyf8YvRPW8BOodEpN4Q9C9PcLvQOczfeHR+gtN+SQkRifcj+pcnuCroHOZvMTo/wfVH55CI1NuF/uUJbh06h/mz4N7hNXQOiUi9wehfnuBuRucwf1PQ+QmuOzqHRKTedehfnuA0f+5RH52f4Oaic0hE6t2I/uUJTvPnHg+g8yMAOodEpJ4FX7T2RucwfxZ80epVQCeRiJT7Av3DE9x+dA7z1xSdHwHYHYjcw3sH2XjvQEQm4r2DbLx3ICITsTvIxu5ARCZid5CN3YGITMT3DrLxvQMRmYj3DrLx3oGITMTuIBu7AxGZiE+WZOOTJSIyEe8dZOO9AxGZiN1BNnYHIjIRu4Ns5dH5EYDdgcg9fO8gG987EJGJeO8gG58sEZGJ2B1kY3cgIhOxO8jG7kBEJmJ3kI3dgYhMxO4gG7sDEZmI3yzJxm+WiMhE7A6ysTsQkYn4ZEk2PlkiIhOxO8jG7kBEJmJ3kI3dgYhMxPcOsvG9AxGZiN1BNnYHIjIRnyzJxidLRGQidgfZ2B2IyETsDrKxOxCRidgdZOPpP0RkInYH2XjvQEQmYneQjd2BiEzE7iAbuwMRmYjdQTZ2ByIyEVfDycbVcERkIt47yMZ7ByIyEbuDbOwORGQidgfZ2B2IyETsDrKxOxCRidgdZGN3ICIT8Zsl2fjNEhGZiPcOsvHegYhMxO4gG7sDEZmI3UE2dgciMhG7g2zsDkRkInYH2dgdiMhE/GZJNn6zREQm4r2DbLx3ICITsTvIxu5ARCZid5CN3YGITMTuIBu7AxGZiN1BNnYHIjIRu4Ns5dH5EYDdgcg97A6y8d6BiEzE7iAbuwMRmYjdQTZ2ByIyEbuDbOwORGQi7qQhG3fSICIT8d5BNt47EJGJ2B1kY3cgIhOxO8jG7kBEJmJ3kI3dgYhMxO4gG7sDEZmI3UE2dgciMhG7g2zsDkRkInYH2dgdiMhE7A6ysTsQkYnYHWRjdyAiE7E7yMbuQEQmYneQjd2BiEzE7iAbuwMRmYjdQTZ2ByIyEbuDbOwORGQidgfZ2B2IyETsDrKxOxCRidgdZGN3ICITsTvIVh6dHwHYHYjcw+4gG+8diMhE7A6ysTsQkYnYHWRjdyAiEw1H//AE1xudw/xtRedHAHYHIvfw3kE23jsQkYnYHWRjdyAiE7E7yMbuQEQmYneQjd2BiEzE7iAbuwMRmYjfLMnGb5aIyETsDrKxOxCRifhkSTY+WSIiE7E7yMbuQEQmYneQjd2BiEzE7iAbuwORJSZ90nr3/z1af+tpA1LQQ1GBb6Vl41tpQ2xYPXTilA9fn/jf9YnooZBWthYo99PN/YuUOPmiKNb74qfLVPn4h57o4cnDewfZePqP1mb+XPDB7Q3bFG12UsDFi7ZpuP3BIT/PRA+PoHpOn7Fif6irI/WJFi1XokcqBbuDbOwOuqpbsNDnfUJEvurzQkMeQA+UEBK/v/ur8C+Rktd/sRo9YuHYHWRjd9DRlGcuWxV2+DsPfPsDesCk1O6um+Iivkz2X/nzUvTAhWJ3kI1vpXUz86oVxSNOwc6+X0xCD5zUeGj7Ir9XSsyBX9ajhy8O30rLxrfSWnn39iK+0/Drwbro4ZNkY9b2rRnsYll22W+23EHw3kE23jvoY1yVogEzsb9Ka3QQJM8tpeeKuF5WzZqCjkQI3jvIxnsHTaSde7aQZFQ7uAUdCskQ//EhIRPkqK8KJKPjCY73DrLx3kELFa9sFjrOMM0r9B46HBJt6S9B7ytzuOSqMeiYgmJ3kI3dQQNr3pwnNCGTq5ZHh0Qi9Wzv+0V03sbOH4mOKxg+WZKNT5bg/m+FhJyU6oUOi0RJe2SahBmSadq9Ru+4wXsH2bjeAeyVhpKy0pD9wQqJB2dLmiGZGrTviI7PP3YH2fhkCar87xLzMup0dHgUWHtJ9w3HTaiMjtA3PlmSjU+WgFrfLDkzo5ajQ6RAOvSWPEMypT6LjtIn3jvIxnsHmJ5PRb4bQqTm3W30k2XHrS4tfYIc1dfMPZjYHWRjd0D5rbuS5LzTEh0o+dReyNq3cMz9xsSNvtkdZONbaYwHRilLT/9x6GDJh5Ublc2QTLUKmrf8gd1BNt47IKwZlK4wP30eQsdLEZteQ+EMOaL7cHTIkeJbadn4Vlq9AYVUZ+jCDHTMFJmnVE+RTHetQUcdGd47yMYnS8q1D7jLph+XcPtWk4x7Tf0UOeKCDejII8F7B9l476DYuw9jkmTuZ+3ueVTi+rf8jR0Siw4+fLx3kI3vHZSaegCWpZcNuu7d1l7+l855e6MSOvywsTvIxu6g0MoFy4BperEeOn4KR1/gHDni4t3oDISJ3UE2vndQpxzghUN2i85HZ4BCqtcPO0mOKDQAnYWw8L2DbHzvoEoBwRv0+9ENnQQKYWoqeo4cUfw/JpwuynsH2fhkSY3lzdFZOiKd76b19grsfXQOL12NTkVovHeQjfcOKjQpg87RcXejU0H5uE3Z3hmhXdQKnY1Q2B1kY3dQYPNOdIpOeBOdDMqTZj93S9D5CIFPlmTjW2npfrgBnaCTnIXOB+XhauSXrLkZOB2dknyxO8jG9w6SVbhiMjo/OVyWhM4J5WYHemLkotRUdFbywe4gG+8d5Nql0UOl415GJ4VycXo0el7kZt5NK9GJyRO7g2y8d5DpfyXRuclVGXRe6BSPgxfD5KnPvbru7c3uIBu7gzx1N6Ezk5cZ6NRQDu/p8ilrLhbeiM5O7jR7ie8Hv1mSTs/uMGIQOi/5GILODp1k5UvoGZGv1zqgE5QbdgfZ2B3kSLsbnZX8VUIniLLJAO3YHbb0w3PQOToVnyzJxidLUtxTC52UEPaejk4RnfAEejqEFtMVnaRT8N5BNt47SLD7V3RKQtv5HjpLdNxh9GQIS/Xv0XnKgfcOsvHeQbgBt+q2wiFXqWZsxOmA+9FTIVxnfY1O1UnYHWTjegfR/qPrp4k5bURnio76r5YLHXIVV0anM0LYHWTjvYNY2zTYpztc36KTRZlidX8jfZKadXqiE/YPdgfZ2B1EmnIOOheRSFiDzhdFRd2OngYRKnFdMjplWdgdZGN3EGfqCnQmInStrqtgHbIYPQkid+3P6KQdw2+WZOM3S6I0uR6dh8hdiU6a80a+g54Dfgzags7bEbx3kI1vpQUpWBydBj+eRafNdQvQM8CnRujERfHeQT7eOwgxpRo6Cf4sTENnzm2vpKNngF/tKqFzx3sH6fjeQYA5Txp7kXO7VqSkQ+j6B7BxKDh77A6ysTsEFvu8kQ+VsuzAJs9t96KrH8yD2DtPdgfZ+N4hqPuqo+MPpPtIaPac1movuvoBLeqC/LqV3UE23jsEM/Q7dPRBPQbMnuM+Q9c+uCLjceljd5CN3SGIxKfmoYMPrhcsfY77AV15IXBft7I7yMbu4F/8NWPRoYvwASh9zjNgJ99wRP+Rgskfu4Ns7A6+LTb5g5PszsPkz3XnoesuTK3BkARyvYNsXO/g09QD6LCFqY3IHxm1+14IhxDLKnnvIBu/WfJl0k/ooEX6TX0C6SF01cX6bqryDLI7yMYnSz6Mmb8KHbNQvXXZddMlJdFVF2zZupWKM8juIBu7Q+S6tUNHLNo2xRmkqE7omovXZ77aPX/ZHWRjd4hUL6POcAhP73ilKaSoKFs+aTjJwEoqU8i30rLxrXRkPqmKjlaKbgpTSJluQVdckubL1eWQ9w6y8d4hEhmNYtDByvGVshTSUQ3RFZclbl1nVTlkd5CN3SECLVPRoUpTX1UO6Ygtxm7qG9rsXUlqksjuIBu7Q/ip2oQOVKI31eSQjnkKXW+pSi5WkkR2B9nYHcLUpEwcOk6Z2qr+HNFt09D1luzVEQqSyLfSsvGtdHja27XC4VTtFSSRslRCV1u6tgrOfuC9g2y8dwjH1bYtXTrVOdKTSP8YhK62Aouuk73Gkt1BNnaH0FpvREeownuSs0j/GBmNLrYSRabITSO7g2zsDqF0vmkZOkAl6kjNImVzD7rWqlwu9ewHdgfZ2B3ylzRkNjo8RapLzCKd5DJ0rZXZWyVDXhrZHWRjd8jXYvtfOPxD4SpXt/VMQJdaoYXDpeWR3UE2dod8DC2FDk2lb2SlkU7WEl1ptdrIWmnJ7iAbu0OeElu49B8v8yqWk0bK6XJ0pRVL3z5HSh7ZHWRjd8hD8uAG6LhUmykjj3SK4uhCKxdTTkYe2R1k49lwufuwBzoq9e6XkEc6xevoOiMUfUh8ItkdZOO9Q262fIaOCaGq8DxSLu5F1xlD/N7e7A6ysTucKuWMveiQICYIziPl6gl0nUGE7+3N7iAbu8MpvngHHRDK12ITSbmJr4kuM4zgvb3ZHWRjd8hhdxt0ODiDRSaSclcfXWWkh58VmEnu0Sob92g9yYBC6GCQ3hSXSMrLLnSVsQ5MFZZJ3jvIxnuHbMZ8497HhtmVFJVIytub6CqDzbtpkqBMsjvIxu7wj+Qv7D0YNEw9xWSS8tEbXWS4VT+KySSfLMnGJ0vHdTgHHQeeyKfClKuR6BrroGgBEalkd5CN3eGYqb+jo9DBfAGZpHw5uRbuVJ/3Cp5KdgfZ2B2OmHQTOgY9bBcwoyhfzpztEEL6y4E3buF7B9n43sGlMxxCeVHInKJ8/IGusTbm1gl49gO7g2zsDlE7HDrDIYTiYiYV5c2FI6XDlbotUCrZHWRzvju0bogevk5WippXlId+6BJr5YPdAVLJ7iCb43u0dr4APXi9vC5uZlGuaqBLrJlC632nkt1BNre7w75p6LFr5g6BU4tyEZuOLrFu5jbyu8qG3UE2l58sXb0fPXLtDBE6uegUn6ArrKEJN/rLJb9olc3dL1onbkSPW0N/CJ5elMMUdIW19PB4P7nkvYNsrt471LtwMnrYOiokfILRSb5HV1hTr/rYnI/3DrK5ee+Q0SgGPWg9fSdhilE2N6IrrKt5LdIizSXvHWRz8t5hW3f0kHXVXMYcoxMqoyusr0XnJkeWS3YH2RzsDss3oQesr9pyZhkd5+ih0uHpF9nqB3YH2ZzrDp0XxKHHq7FLZM0zOuYMdIX1VmhABLnkewfZXHvvcA23VMrPBGkTjY4qi66w5mq2Dz+XvHeQza3VcI/y6JX8zZY41SjTlegKa2/04nBzye4gm0tPlmbejB6p9tgdJGN3CO33EeHlkt1BNofuHZbsRQ9Uf+wOkv2JrrAJov9ICSeX7A6yOXPv8FA79DBNwO4gGe8dwrJoeBi55Ftp2Rx5K721P3qQZigmf8a5jYf/hKnfuyFzyXsH2Zx4slSvDHqIpuiuYMo5rRy6wuZYEWpzDXYH2Rx4stSzUU30CI2h+Z2u+fahK2yQeT/lfxgVu4Ns1neH+M210OMzyFeq5p2r3kZX2Cg1u+aXS3YH2Wx/svQ9D42OxL+UTTxHdUJX2DCp9+SdS76Vls3ut9Jbn0OPzTArFE49Jz2KrrBxzumVVy557yCbzU+W6l3ILZUi9JfSyeeg1ugKG6jquNxzyXsH2ey9d+AZDj7UUTz9nLMBXWETtd2T69kPvHeQzdp7h+EL0cMy0WDV8885CegSG6nWPbmc/cDuIJul3WF3G/SgzPQ/9TPQMW+gS2yofvVPSSW7g2xWdoc5/+ah0f48gJiDTimFLrGxttfLkUq+d5DNxvcO8/nCwa8MyCR0yVPoEptr1a74k1LJewfZ7Lt36MAzHHzrjpmELrkGXWOT9Xg9eyrZHWSzrTvUexk9GpP1h81DZwxD19hs27N93conS7LZ9WQp494+6MEY7SfgTHREBXSNDRd95aTjqeS9g2w23TskXVUCPRTDvQ2di27gOSMB9SmXlUneO8hm0b1DgUvQAzHe49jJ6IQV6CKbr/pbRzPJewfZrLl3GLoRPQzzzYsPNV0osIPoKtvgoqFRvHeQz5J7h5QH0YOwQRv0bHTBDnSVrdB2RgbvHaSz495h+AT0GKxwE3o2uiAFXWVLNPj2b/QQgtP83mE5Oj8CtKyNHoElHkLPRif8ii6zLSw48lHz7mDDkyUSpAl6NjrhbnSZSRt8skSGOISejG5ojK4zaUPz7mDDyaEkxjr0ZHRDx7boQpMuNO8OvHeg4xqjJ6MjGqILTbrgewcyQwx6LrpiCLrSpAveO5AZvkPPRVdsQVeadMHuQGa4Hz0XnVENXWrSBLsDGSF9PXouOqMcutakCXYHMsJd6KnojtPQtSZNsDuQEX5BT0WH1EYXm/TA7kAmiJsUerKQIM+gq0160Lw7cDUcHfUEeia6ZOUydLlJC5p3B9470FGV0DPRKZejy01aYHcgA9TgwT8qPYquN2mB3YEMUAc9ER1zCF1w0gF30iAD1ENPRMdsRhecdMB7B9Lfm+h56JoxDdAlJw2wO5D+vkbPQ+d0RZecNMDuQNq7CD0N3ZO4F110wmN3IO0tRk9DB32JLjrhsTuQ7n5Fz0IXJa5Cl53g+M0S6a4XehY66Xl02QmO9w6kuc/Qk9BNS99BF57Q2B1Ib3Gt0JPQUR+jK09o7A6kt+vRc9BZtdGlJzB2B9JacW7djdIBXXsCY3cgrT2CnoIOK4UuPmGxO5DOJixFT0GHTUVXn7D4RSvp7H/oGei0gujyExTvHUhjb6InoOM2oicAIfHegfS1MBE9AR1XsTh6ChAQ7x1IX8PQ889556KnAAGxO5C2zkRPP4o6gJ4EhMPuQLp6Ywx6+lHUpGLoaUAw7A6kqWUPoGcfZZqOngcEw+5AmlqCnnx0VAv0RCAUdgfS06h49OSjo5IvQ08FAmF3IC3tT0PPPcqS1gM9GQiD6x1IRzW2oKce/WPLIvR0IAjN7x3Ko/NDGDwPTid196LnAyFo3h34ZMlNv6EnHp1kLXpCEAK7A+nnIHreUQ510FOCANgdSDt90dOOTlEGPSlIPb6VJt2chZ51lIt16GlByvHegTTzBA/80RJXxTmH3YH0ciAWPekod1+ipwYppnl34BetrimNnnKUpzPQk4PU4nsH0sl29IyjfHyDnh6klOb3Dnyy5JYnk9EzjvLD9uAUdgfSB5uD7u5JQM8RUofdgXQxmYvg9FefpwG5g92BNFF8Onq2URhm9kNPFFKF3YH08MZU9GSjsIy5Hj1VSBF2B9LCZzzPwRiduGWrG9gdSAMJn6JnGkWgfHX0hCEVNO8OXA3nhAnnoycaRaTnT+noOUPyad4deO/ggicroOcZRWr8QvSsIenYHQisRmP0LCMfRl6BnjgkG3fSIKzSk9CTjPx5vQd67pBcvHcgpGK8cTBX/K5V6PlDMrE7EFDVJugZRkHUG4SeQSQRnywRzOxu6PlFQdUtgp5FJA27A6HMQM8uEmF+TfREIknYHQjj0jXoyUViTJrRDD2ZSAp2B0Jo/i56apE4qz9DzyeSgW+lSb0J29ATi8S6j68fLMR7B1Jt75eJ6HlFwnUrip5XJBq7AylWZg56VpEMHT+ah55aJBafLJFSX5VHzymSZfnZ6NlFQvHegRSathk9o0imAtza2ya8dyBlEp7agJ5QJNnz09CzjIThvQOpUrgVejqRfE0WxKEnGgnCewdSo8h49GQiNZZvRM81EoPdgVSo1SUZPZdImbX8utUK7A4kX0LZNPRMIpU6HoxBzzkKjt2BpNs4FD2PSLUth9GzjgLTvDuUR+eHAhu9Fj2LCKFuc/TMo4A07w68dzBdrfuT0JOIQBo/jJ59FAi7A0nUrE5P9BQioPuLoWcgBcD1DiRPmXroCURYaXui0ZOQfOO9A8ly1tfo6UN446qi5yH5xXsHkmP/fejJQ3qYwrMfDMV7B5JhZ0G+jKYsyW83QM9H8oPdgcSLW9AEPXNIJxv+RE9J8oFPlki4S3mGA+Ww5l/oWUkR470DCbawJXrWkI5alkDPTIoQ7x1IrD0p6ElDekp5MAE9OSkivHcgkbilEuVtaCn0/KRIsDuQOG98j54wpLfFh9BzlMLH7kCiTPsxFj1fSHfx9/PrVmOwO5AYy37iV6wUhg1foqcqhYlvpUmIV79GzxUyRcXtk9HTlcLBewcS4Jwp6JlCJpl4FnrGUhjYHSiw0Z3Q84RMs6M3etZSSHyyRAHtHIKeJWSg+M010DOXQuC9AwWScGUiepKQmdK+5NkPemN3oCB+b4WeImSuETz7QWvsDuTfw3wZTYFM4eo4jbE7kF/FBiej5weZLv6aneh5THlhdyB/lt3EFw4kQJO/uPpBU+wO5Evz5ei5QbbYvQk9mylX/KKVfEjlCgcSqOVA9IymXPDegSLWrFxH9MQgu3QsVxM9q+kU7A4UocmF5qCnBdlnTiG+ftANuwNFpvlu9KQgO+3+AD236WSad4fy6PzQyboXQE8JsteNE9Dzm7LTvDvw3kErexvxhQNJlHb3PPQcpxPYHShsT29BzweyXeuN6FlO/2B3oDCVXIyeDeSCAkXRM52yaN4d+N5BF6u+Rc8FckRsZe7trQfNuwPvHfSw98EN6KlA7khrxNUPOmB3oJDiLlyPngjklnoL+Hoaj92BQjnwNXoakHumXoSe98R9lih/176LngTkpkrvoOe+6zS/d+BbabBmPDSaUDJmtEXPf7dp3h34ZAkqfXs99Awgl7V6H30JOI3dgfLU43V0/cl1lVLRV4HDNO8OfLKEs5MPlQhv6b7Z6CvBWZp3B947oETfzoNBSQsbyvL1Awa7A+Ui/XBFdOmJjhsxCH1BuIlftNKpLq2LLjxRdnV59DSA5vcOfO8AUP0OdNmJcnphIfq6cI/m3YFPlpTr83wsuupEp8q4cy/62nANuwNlN3nWAHTNiXK3ha8f1GJ3oGw28dBo0tj4augrxCl8K03/WNgJXW+i/HXh2Q/qsDtQlr11MtDlJgol7XauflCFT5boqPQ3Z6KLTRSOESvQF4sr2B3oCL5wIHOML4K+XtzA7kCel9oNXWiiCCS/XQt9zbiA3YGafTMGXWeiyKT9wdUP0rE7uC7uipXoKhNFbktf9KVjPX6z5LjnyqNrTORP/Tboq8dyvHdwWu/G6AoT+ddtEfoKshrvHRxWfBe6vkSBpOzh6gd5eO/grMmzmqDLSxTU0I3oC8le7A6u6scVDmSFAu3Q15KtNO8OPN9BkmKb0aUlEuVgDPp6shPfOzjppw3oyhKJU29WHPqSspHm9w58siTDZ63QdSUSa+sT6KvKQuwOzjmnF7qqROItfhh9ZVmH3cEx1XmGA1mqCzdfEkvz7sC30mKteh5dUSJpMmZEo68wq2jeHXjvINKymzqjC0ok04in0ReZTdgd3NF8ObqcRLItLom+zuzB7uCKog+hi0mkQNKQaehrzRbsDm6Y27UjupZEajRZgL7cLKF5d+BbaTGe5KHR5JCmm9BXnBU07w68dxCh3xR0HYnU6pSKvuoswO5gvUVdktFlJFItYwk3XwqK3cFyCWXT0EUkQthyM/riMx27g92+G4ouIRHKlCLo689s7A42K7kDXUAioOTNDdDXoMnYHew17cckdP2IsDr/hL4MDcbzHax14Up09YjwWvNoUb9472Cp5k3RtSPSw9rR6KvRUJp3B66G86doN3TliLSRdBX39vZD8+7Aewc/iu2LRReOSCc96zRDX5UGYnewTsyeRHTZiHRTb8Ey9JVpHHYHy8QVWo8uGpGOWv+OvjhNw2+W7PLEVnTJiHTFsx8iw3sHm4zm6jeivCXt2om+Rk3C7mCPVe35MpooX53XxaGvU3OwO9hi8hUD0NUi0t/y5uhL1RjsDpbYxNVvRGEp0B19tRqCb6WtUGIbulJE5ji4F33FGoHdwQZVMtCFIjLJJ33R16wJHkaXKX/L0fkxwaBx6DIRmWbKIfR1q7/a6CLlbyo6P/o7NB5dJCITDR6LvnZ19zm6RPn7BJ0f3c0ejC4RkaESv4xGX796a46uUP7Wo/Ojt+jbuaUSkW8VX05HX8M6ew5dn/xNQudHZ+mHK6LrQ2S2iZvQl7HGnkZXJ3/x6PxobFNddHWIzPdWb/SVrK3H0LUJYS46Qbrq/T26NERWSNq3Cn01a2oPujQhLEQnSE+r9iWhK0NkiwGF+PohN8+jCxNCD3SCdJR+K7dUIhKofj/0Ra2je9BlCeFf6ARp6Jz66KoQWSZ5czH0da2fZ9FVCeEwOkHaafB2MrooRPZJvAB9aWunFbomIZyBTpBunuIKByIpWn+Hvrr1Eqf7y83N6Azp5VXduzmRwRZz86Vs2qHLEcoOdIZ08jC3VCKS6m2+fviH5kulo6JOQ2dIHw3+RheDyHppH6EvdG1cia5FSMXRKdLE3io90aUgjQzY+m7j3+75pX2dg+1/+bjALR2+noQekTW2VEVf7Jq4Dl2JkF5Ep0gL6Ydnogthj4qPD/t+W5ch86s88unm4ZV29GqVhh5RBP579X9ubV5ydm6TpMbDo26qPGw9eoQWmMLVD0f8gK5DSLPQKdJBG65wEGDrbwf7/vpSbjej0e+8dtnt103R/HOwesPX1Q5jy+lVZ+9pPBI9VtPdU0v4RWwedBFC+xSdIryFL6CLYLw1g6uWDCPTJd7/RtMX/+tfuHV/JHPmqz+/Z4cIIuUj589+qIauQWj/h84R2twlPDQ6kKYFC0d0CNjGKo+ih3yy+P/74zUf+wDNu2t+U/TQTbalcOQ5t8pf6AqEtnQeOklQfOEQSMraMqk+st6n8Ln10EM/rtKT0/xPnwmP/Ywev8HGu736Qfddlo74Cp0kpH584eDfpH0bg6S+ygh0AFFRa1rUCDqFUs/QIA5Dxd/v8tHT76HTH4ab0EnCWXQdt1TyK7bS7wkB05++8YuOyBDSrmojZBp5m7rwa2ifKri7+dIidO7D0QmdJZg9Jn1pqZfyZ4pZ8lr8ildQIYz4s4+QEI4aW4XLIXz6+lVxZTDKYXTmw9EEnSWQm4eiM2+sYU8IrMOvLRF7kf18YLLAGDLF/LQFEIYVxlcTWwpD6L8W7ggna9OmFzrtpkr+TfSbqoWPVFAcwxcPCw7hqNJrFIdhi+Qbu8uoh+a0+S4jXy3QaVKveid00o319mgZBVmg8Mux+I/DWZrhx+TDJrxo1FHGM87t6NMbnfPw3IbOk2qzh6BTbqrkbm9IqklCGUUPZpKuk9LessRt/6+aMKwz4AqJZdHRHnTGw+RY2z6zMzrhpnpL5kPIebeepiCEYZdIDOGodU0UhGGjH2rLLo1WYJ9jRKg0OlEq/VoenW5T7Za+dVrZFMkhzLxZdgiZop+RHIWtkn/ZqaA8mliIzna4HkJnSp1FH6OTbar1KvY9qNVSagzPzFUQQ6Zq50sNw14rZ/nY0cRMt6NzHa4xe9GpUmTZBdw5zadrBC4OyM9dy6WFMLG3mhCOOKuutDDs9nptdUWC2orOdNheRqdKjUv5UMmntweqq1IjSTHsa6suBs+b/NcGSXFYLvlvJ/b27ofOc/icOFy63W/oNJvq9R5KC/XiOAkxDLhIaQyZalSWEIYL0r5U2scxDPpsMnkCOlnS1ewK3dLHYJ9sV12rVeL7+I7Am+358NI24XG4YYT1m2vMM+m7yT/Q2ZIs/Unu0+3PygWIet0qeAesKqCXnXe1FhuHM36WtWBRE33RCY5EK3S25PqV22b41CXXA5ble2OqwCASv8MEcYSstyi2i+9i9fOMDuj8RqQhOl0SVecLB5+2boIVrc8twqKYKmt9d1hSeSytPz2X1ETWTar96ORGpjE6X9LM3heLTq6h6pWJA9Zt8iOCwrhF0be4eWozRVAkrqn3GHICyvQ2OrWRSbZ0k8Tou/lhoT8ZB2PAtXtayMuHyhqsr+rLzb39Kf8cunRSjDXtJPsf0RmToq+MjyOd8IIGfxeqCdjj+EF0EEfFVDHt90AXjW18PS3qtliZnhYe8NqPt/Q+1Rd0pGZAqUHfTSdps4XYQrl7hNgr9lPrNl9aZd45s4+gcybaO/fw0Gh/BmzX4GnMUTuDbUiR0R8dQDab5O0RYrcmNy1D106scuiMRm7kKnTShIq5U/Z+n7aK/Y9GO7rH3BcgkpTP0cM/2bqVworkltYb0aUTqZiJm719g86aSH25+s2n76UfgBCZO3xHMuZi9NhzKl6Orx/8uUPhRl+y3Y9Oph8dU9FpE+bQeHQyTVUXt8IhDwnDfIaSpHxnpTCUeDteaL2ckdHIlo2ke5v5wHsbOm+C7BzCK9CfVoN0eeGQTYy/daXJVdEDz92hHYKL5orTnkaXTowP0Yn06Vd04oS4kCc3+rPhzwR07XLVbLefaGahh52ny7j5kj8fqt0rWI7P0Fn06wd05gQYxTMc/Indp+2Xg7O/jjyccuhB56cM/8D4knyu8Wc/tDV3Bdat6NwFVfJ7dApN9b/R6NrlI3VApOF8r+Ejsmx2FkySUUT7pZxh+OuHO9EZ9K9eM3TyApn9Ka85f5Y3R9cufzcsjSyex7X/DSm5WE4lrbdF+XEjIi00+aO19ujsBVG2Ajp9huq8TvvlRocjCmh1CfR4w/D0CEnltN3jo9Cl8+9qdPICOYROn2/bzX2gB1ZZ2xcO2USyNU1HM95e7m3E4wr9Oa8IunY+lUZnLpi6hu6Z23wiOnOmmmLGH4L0teGHVAg92HANnC6vrnbrYuS2cItM3zD6I3QG/bikMTptpprzMrp24YppFW5MJq3buSzsqOgkGxZMRtcucsb/TI3pjU5hxGLK8Xwff5Ke12hLpVCqjQkvqFbocyki0vZLwUdoO+MHM54fZvMYOmXBlY9GJzFC7/OFg0+N96NrF5GfwgpqqWnPpBe9bebWCnDxQ9Cn/kWmR4Qf3mlpMzqLEUmthM6XqZYbt/FlWB983IQeZeSKcFswf1Zer/3HdiessuMbtUHoPIaveFeTvx9GarLAoAsry6owDuD8GT1IX54OesyRq6Z+hi5d2N5C50qMlIfRiQzXT9ww36d7jTzN4+yQcS0tih6jP/N49oNPU85B1y48VdCJEmWqGc/zVvAPlz/Jf2twaLQv94cKzdxDSpp1Ne88ST3cOAFduzA8gc6SOPcZ8LUYH9b6tdiYe8NTrFqdf2hbTPukIrsGm9XU3zope9qiaxfKGyaeB5eX+ehshlJsMD/08GfrWejaBbEi/+AMPwKA/3h8GvE7unT5m2DXd5V679Y676lEdIIMVe9CA24L81Mpv+ieRY8usBVDFU0E2yzW+UPmVV+j0yNWfCl0RvNxgC8c/BlTzuxNeDMtyucWPd7cR2b/SCjLPz6+JHfR9uyH6PPRyRFtzAfonOblYd5++/SCDSeH/5l3fF3QYxOiQRc+NPUl5Qx06fJwGzoz4iXWRic1V4vORSfGVE3boGsnxLw8FxVlmLBvdzj61Vc5LyzSSscnHsvM3rU7D5013Gdh2ZU2vftXqcljhr9w+MeBvELU+rDQiKQXivgwPDpq+kB07XKa/BA6J3LU0+4wyYvXoHNiqPiC09C1EyePU9VWGv9OJZs++9ROEHscrImu3cm+QCdElpl6tYeFw9EJMdW7FryuPeGc3IO8AD0usUZbsvOCciuf0mj1Q1uLD7qfcy06uycsKmjDFocIQ1egaydYrmfmTEpAD0u0jctVzxRLjNPm+Kdm76JzIdOGTej8ZunzDPcZ8CexrHU/mxfnFucS9KjEi7u+ierZYommzdG1O2rRbnQiJHsVneGjHuNbOn/if2mArp0EuX3TXAw9KBmKt1c+YyxRoB26dp73Yj10FqRrlI5Oste8KToJpnrWvJP+wnHRqZFehR6TJCW5usefMfPRe4m+7MKRlZXAHwGUtPjFjlxbCmMrJ88pi+WT30APSZrCMxFzxwIDfoLW7X50/GqUR35DvHMXOnxTdVxi1AHLEVmXM9jG6BFJtPcgYvrYYOuLsKKVeAUdvCqJsCWIk//agA7eVJUMPQcnLDEpOaI9gB6RVO3ugEwh8yXfDzrlqr9L3xPMj4PkuPcP6MBNZfY+3aENOTncAbYsBM9LmymYeWQ8yOqH6PZubZV1PuCfaPfNSeiwDVXx3+qrpdb+kwP+D3o88h34GjKVzDdO+cVww3vomFVLWac4xXOfQYdsqg13m3xCWphO3qjuEvRwFIibtR40oUy3WO30qIOOF2HHOypTfDjEGZGUhzHzLdpSKW83ZY/5fPRo1Ii25uR6xWK77lVWpGqt0dFipP2lbOnDSx+igzXV8IWqaoQ1O3vQ16NHo0o7K3eDVuC0xxRV6F50pDjPqjk+psSn6EBNteZfSgqkg2yrYJJnowejTqlWuNlltKEqNtdwuzoZdypIMe+ffUq5e56C8mhi+4m4O6DHotLeJR1xM8xojz4luTS9h6FDRBvXV3KKX/oZHaKptil9MYQ29sRHg2XRY1ErlasffKoo8xHkwi7o8HTQYaPMFPNgUJ+2uvNQ6ZgTKwC0Ow9Mtk11gRPNaKf9W9LKraJv8/P7Y96V9UO08Bee4eDP+kK2rwc7xZ7jsS9Hj0S99NLjkLPNZO9dIaEeL12HDksn4xtKSHH3X9BhmSrtDwdWOORU5Hj096JHAnEl95jxafXdxcWW4uEX4tExaabXZWIz7J2zjSn2J+mXGoJrYYbjW9k8hx4Ixs6C0FlnspHzxV0x0aX5lXEuHvhT4IErDfku2q/Gep3+rc62Y/HHO3jfdEzJxdiZZ7K13wkpwaiP09CRaOu20nNFpHjhHkfXFwrQ+iIRFTDSFccy0As9DqAVI7Czz2RN9r0WLPnpH+zikZX5yui0IuBft5iXd7i1oaFIiX86tMIhp5eO5eB59DiQoj/KuZc5ha9p1199Z77ffH4YEIbEc/3vFj37yeG8M/Mt/n4rD1MO27Fd6X5HDwOr1gvgWWi2Sd0Oj4086V91HYoeuDkmXTfKxzZXL1Z5HT1wo717beQ5t8otR9Pg4+K2S5te4Ilousd3VQ3/b1axVx/5MAM9YuP8sOtwBK9HX7zyLX6RF8iIFT5+SOxydKvkT9CjwEsvzaOng2q9+a9LG4TIc+rFZw7/L3qg5mry/RnPjQ51mvH+32dM74keqekS7wYceaWb349k4j70KHQQU4V/ZwWoMH7wnlsPfDA6+x74zRb2uLTvlwUr1efpGkJMeuC2t7te/+qv+xdlf2E9oUj/m38q99By9OisMNjtFw5ZBh5JxT70KPTwzo3oOWmVkXNalT//w/pTXToeWr3Vy08f/8qaLUyySIsPoX+LNHFkt1JVG/drj0dPE7lu6gH075A2jmxGdzF6EPqoytUPRA7bcKbDKxxyOrJaeid6EBpp+2Aien4SEUbsj/wxzOZgVFRP9Bj00uB+7lZG5KKWRdG/Pnp5kx+0nuJh5w8oI3LP8rvQvzy66R8VtRs9Bv1U5eoHIqck3rQM/bOjnZJRUc+ix6ChueV4iBaRM5I3h1rI6aLiUVGd0GPQUtEd6AlLRGrU74f+vdFTWtT96CFo6qKp6DlLRPLV247+rdHViKj56CFo66ZJ6HlLRHL1rNMM/UOjrYlRB9FD0NeqZ8ag5y4RyZPcpQT6V0Zj/xc1Az0EnQ18gQdrEdlq8cPoXxit3Ra1Bz0EvVXj5ktEVnpgFPrXRXN3RLVAD0F3n21Bz2IiEq3JY5PRPy26axl1JnoI2tt7J89+ILJK0r5V6N8V/bE7hGNhN/RkJiJxFpdE/6aYoCWfLIVlU1P0fCYiMUa8iv49MUPLqI/QQzDEgs7oOU1EwaU8iP4tMcVvUVXQQzDFzl3c25vIcMn3TED/khijcdQ36CGY49B49NQmoiC4pVIE3o16Hj0EkzzNr1uJjDXnzXT0T4hJ6kbtQg/BLH/w61YiIy39hlsqReS9qC/QQzBMiS58/UBknOQv2qF/O0wzKWo6egjGufYW9EQnosiMr4b+3TDOsqioXugxGKh5XfRcpyBe6Vro/d7hP2UosanwBTduQA+aAth6kcSfA1ulRkX9Fz0GE6UfHoee7+TTh08N9FXzsyrPQQ+d/Kn4b26p5EObqKgN6DEY6vY09JwnH1qO9l/yuCvWo4dPkUs5Q9xV75TfM5OHHoOpFt2DnvYUqW0Bv3aPbrEaHQJF6MZ3xFzv7nkqM3uH0IMwVr/66JlPkfjhDQFFPwMdBUVidxsBNXfU/Zn5G4QehLnS3+SjaHNcJaboGyugA6Fwzfk3V7/5Nywzg0vQgzBZzCPoC4DC9Ieomr8xAh0KhefeGFE1d1LFzBR2Qg/CbNX/h74GKBx3iyt5jU/QwVAYCrwkruQuWnUkiVvRozDdxtbo64BCul5kxWtNRIdDobTeKLLiLrrraB7RozDfTzz7QW+xhcUWfBW/R9Bb55uWia24g1oczeRX6GGYr9jgZPDlQPl5QnTBYx5Fh0R5i79mrOiCO2j40VxegB6GDarx7AdtdRwlvt4x76Kjory8e634ejvo2APzbuhh2KH0TPBFQbnreKmMcrM9aGoLP9EXYuexdJ6GHocl5pbriL0uKDdj+sspdwzfPWgoo8peOeV2zmdZGeVDOkFeWgu9MigXSdJ25+zzODo2ymlbd1nVdk7BrJR+hh6IPfqvgV4clFN8VXnF3rkVHR2d5IEP5BXbOce/2r4GPRCLLPurHvQCoZOVllnsGuXR4dEJFbfLrLVrGvyTVvRIrNLsII+e1sXSA3JrvYoPl3SR9hFfOIi0/Z/McsWDUCXO5eoHLfSUvl62+OnoGOmIpMoNZJfaMb/9k9uu6KHY5uHFwCuFsozcJL/Sc4eho6SoqLUl5VfaLXEp/yS3KXos9inFjTzRUpRs7R/9ITpO522VsqDFbf2z5bc6ejAWOoOvH6BSFH3AEsP2AJV4AbdUEu+XbBnmyasSdP8tzxlN0mUo+7oxhu8ecJK71FBVZ5fETcqW46Ho0dipOff2Rsn4l7oy1+SqaZTdAQ8Kp9yddVKW+dWSHC24tzdET6WPooufj47XTfWuUFlll/x9Up4Loodjq9lDYkGXjstG/qq2yjU7oCN20UEeDCrJ3g0nJXpSHHpA1ip5NejicdeGG1QXeS8/bFVteKrqIrtjVo5cl0IPyGL9edCkUpOqqa9x2/PQUbul1znqa+yOnDvEPIsekNUu5OZL6gzoAakxbxHVGcEzHGT69ZSEYy4pVxS/dyngInLSgDcwJU7g9u2KpD2IqbAzPj4l5dvQQ7Jc0QKA68hBqObgecvYHlRI3rwIVWFHTDj1Q5r4duhB2a55U8C15Bpcc2B7UGJ8EVyBHfFtLmmvjB6U9SZfOED5xeSY9cDmwPYg34inkfV1w7SeuSQ+oxZ6WPYrPl/59eSU1ZeAC/wQOgNWS9sDLq8Tzsg195+ih+WC0W8pvqJcUg++m+QyfrkkTfK5/P+qwNzct3cYw+SrsJGbL0nSRINd/hPYHiSpzy2VlLgzj/zzzYMS855KVHpZuaLJtejKHpFwHzoPVpp5OB1dWTf0ScurBN3RQ3PE2MoqLyxHdNaiOXheNNuDcD2r8NBoRbrmWYTB6KE5Y//3Cq8tJ4ysja7pcTwtTrD4zXzmrUqtlDzLkPQwenDu2MTNl0SqoNFTaW7JJ9Qt/FVSp2U+hajPh3vKpL9cUdkFZr2VvdHlzI5b8okzsTm6mi7ZlG8tFqCH55Q/FF1h1pszGl3Kk83jd8tirLwVXUq3LM+3GiO5h4lK7fj6QYSK2u0Cs+wOdE5sEL9rGrqQbpkRoiCd0AN0zPutlFxnVjtNw2/t4l5AZ8V8r3PfaLV6hDzH8lX0EF3Dx0sBtdbzi5a30XkxXL1/8yWoWgn5P1c6YlIN9CBdk5rfdwIUSitNH4am34jOjNE+bYYuoHN+DKMs09GDdE+b8dIvNmu1egddvbxMZnvwK3l4UXT13NM8OZzSXIgepoO+2yr7grOUvs2B7cG3xYCDwZ1XfGZYtUnT8CWf9eJu5eoHH3RuDpntoRM6PyaaOApdNyedelxo7k5HD9RNH2VIvehstEXr5pDZ89keIrX6MLpobhoUdoU+Rg/VTak8ejoyIwaiSxbSNnSOzBI7ny+jIXrkdiBcHu5GD9ZRzXn2QwSGlkDXKzSue4jEYs3WvDtj0eoIqpRcCj1cR81rkef26pTDUCO+vU7/G50nY4zgWiuQvY9HVKgUfjUAsuhcSdeebdYY0RzYHsKV8hG6Uu76X4S1qsgPl1Bee1fK1WeZpmPRdQpX+mB0rgyQ3EXPFe9OeCTick2djR6zuwqPkHD92aWuSfuzFURnS3vji6Br5LC+Pgr2ylz0qN0V/SVfP+Srl1mftjyPzpfeRjyNLpDLPl/qp2Y/J6DH7bBa4S5OcdL5xdH1idA36IxpLGVPW3R5XNZvg7+yrZ2MHrnL2uwWexFa5Pya6OJEjO0hL8M1X9FouRd9P6V4IQ49dpdNfqyJyKvQHgY2B7aHPDTdhC6M286OYBVcTg+hB++2aZXFXYb2MLI5sD3kpkkZdFUc1zBQ+c7jI0GokjvEXIYW6WBmc/C8KujM6Sb2eZM+PLNRQ18vpE8YZuq1aIsnQh/Y5JTx5n5K9xE6d3p5iNtmgDUMeVJoKFOMWXVkqwV8/XDCsL3ocgTQAp09jTzeHF0N51UVUMaKN6CjcN20ewWU0Q6GP+lch86fLir+G10KOiikkmNeRsfhvIHDwzrVz3rnzUNXIiC2hyMSHzT5DtAOxaeLquZVXBeHVm2xqGIa7C3Tm4PnzWKbjxrCTXrgSr4nrp6vL0JHQw2dfz19xzJ0DQR40vX20C0VXQLybha6U8+k59Dx0DLHX09bsjbzZqfbQ32ufsNrK3wdVXvz7+qNN+3HwJ+gmetGW/Z1KR2PTiXMTB4arYGidcVXtpf+h/ja75JbxBfWDJ1saQ7utoeMRnwZrYGfAmyekbfO/HZJA6Vayait9jrZ8VjpmNJOPly6g38vNTBwvKz6duiNjo286Ds7yqqvvqxqDp5XyL32MPR9dNIp0wVSbhyOSXrerFNX7NRurbwK68my5uBee0h5kB/Fa6D243LLvPpydITkeRtby62yZtba1hxcaw838gwHDazaJX/STXkYHSV53p+J0gutjTvQyZbhL3RW1dnNr1h1oOiD+Hv56QFesc1Kaq2BtTYsgjuVK+1hDrdU0sG1p6sq+JbC6FjJ86oNU1VvKEubgyPtIaNrDDrP5Hk7C6os+iv8AkEDrw5VWXMMa5uDC+0h+Yvu6CST5xW/c4Piwp/+FTpm8rwLJikuu2q32NscMquHzq5k44ugM0yZWgB24Em+iucC4U17Zoz60qtzi90fQlrdHr5+FZ1eytQc9H1jhb/s2d3AXKkf2/txpOXNweb2sP4xm+/6jJFaADcFHuiPjp48r9q7uBkglQXnOYRi62GiVaLRmSXPq/lNBnQWTD+EzgB5XumZ0EkgyVsu/Pu08rS4Au3QaSXPW1ZmJXoiRG2ugc4CeXu/QU8D8aw47Cc0+06L27oRnVPKdNka9EQ4IrGs7U+HTfDSQ+h5IJglh/2EZtlpcU3WudHVNVdyB3oiHDf0MnQuyPOaN0XPA5H+TkfnUxmb2kPsvmnodJLnTduXhJ4J2ewYjc4HeXGz6qHngTCD3WkOnnezTpdyIGvfQOeSMn8IrtfsjOHYgrPROSGv5kHsNwrC7EJnUq2q6HyLUZfb7emg+Vb0RDhV56f4+gEv9Tb0PBBhMDqNqn1mwd3Dhsdcut/T1qHp6ImQu6Er0Jkhzxs0Bz0PAiuIzqF6n8Wikx7UF/x2UQMNftH3f8aHPFoUr+Yfhp/94GBz8LxSZreHD/uhE0iZHtT70i9YHJ0g8nb+iJ4GQTjZHMxuD2saorNHmS7Sfs/mJo9x8yW8Hj+g54FvjjYHg9tDxu3273higJe+R0+EcOxug84TeemFtVgpGbn/oDOH8x069770fL4WOnHkeXO7LkXPhDCdWwydK/K8v/R+Bpm7RuisIY0y5QLPphNfRuugr0E7rSX+ic4Wed4i4O69PrVA5wxrVEd0ASLUmi8cdHDtePREiExrHi2qgWl/mLU6zvHm4HmX9kSXICLjF6ETRp5XvDJ6HkTu+5fQWSPPS/0NPQ8isA6dLbxfR6KLEL45h9HZIs+LK6PZthlhqsMTQDRw6XL0PAhT8ix0qnRwgzHtYX4MOlfkeR88gJ4Hfq2/kF+34rX9Jh49EcJyKzpRerihM7oQYVlTBJ0o8rxL7kDPgyC28vWDBvoZ8HVrciF0lnRR24C7h/j5bdFpIm/sp6YukTnutpLoHJLnab94ms3hhDbat4fTfkXniDzvSxM/Wc8hfjNXy+CV0nwmsTlko3t7uG8nOkOU3nccehqIkTKD76/g2mn99uovdHr00iYFXZB8xM/gTt1wbeqip4E4W55EZ5O84ehZkDc2hxw+0Lc9JI5CJ4dSNb6W/ajPY6Pg6qAnQV7YHE5xsa7L4rYcQqfGeaueMXDHlRAKFEVn1XmFtDwZhC+kc6PpsrimXB0NtmzdJPQkkGI+z34Ae07Dd9PxhdFZ0dMNOv4InFcTnRbXXTYVPQdkGTCLq+Owen+CngM5xR5A50RXhwaga3OKwXHopDiu5A70FJBpN18/YNWoj54CJ1v6BDoj+npjPbo6J0u+Ep0Rx037UctHwwJ1SkXn2HFabevdcSM6HTorqtWdXk/u1o1l6HZ7Eel4cC46zU6L0+iAwYx/obOht3YanekS2x+dDbdtNGU3zYBmcvUD1G3oCXDcGDaHEEbr0x5eRefCad0roeuvzhR+NA0U3QFd/2Niz0JnQn+j66GrdExyVXQmXBazxLRDA4PZxa9bcWpqsQw/thQ6DybYr8fD5gXoPLhs0BZ0+VVrwq9bcWqchi5/VFSSZs2hz6FRF55R5crCL76DHsnJeujQHsqhs+CwkoYdGi3G7n7ovLvrpZXo6kdptQju1/mtsw1t7ZPT0APK5jX8cUAfo3Pgrj7f2v4Va17uqYHOvbP6gbd5S/odnYETFhY8dWHBjtLoUZ1QG333MB2dAXdtnwOuPVDa3Qno9LtqBbTwsfo0h7H7ch9iXX32Ir0W2x6mcvsMkDa7oYWHG3oZugKuQh4XF6vNwqoalTPyHGUvbeYmtD2k8HRHjBIfA6uuiR2j0VVwU9zpsJLr0xx+zf+D0V90ubVFtocV6ODdFL1H3zM+VJrPO1eEYqtRBf8OHfpx20ON9HRdzsi8FrYl34/o0N00aASq4LqpVwZdCydtxFS7ozYP9K8PPdj3uqMHmQW1Jd8P6MCdVGQYptp6+prr9AG6Ikrd81J02MddGM5wv9bluBvMlnyJA9FxO2jgF8mIWmtsyjnomrhn8hT1dR75Kzrq48qEN+D3dGkPqYj2wNM3lJv2nzGAQuuuJff2Vi01TXWRN9yAjvm4QuEOWZ/2oP5R9LnomN1TVsczATWw9NOx6NK45lbFJR5ZGx3xcbPCH/RyXRZtLvyvvMrk6jRutq9WeulxiktskMSn5qHr45jGSus7sg063uMiaA5RUUO1aQ+Kfzu0eQroiDaandyom9Y8LEypBhsUFjdFm+awLrKBDy2BHnCWdkrbwz50uG55Z7jK4pqp8RvoKjkloj/RwaR8gA72uBaRDr2VLhu3qjwtbmYMOlqX7J3B1W9hiG3fB10ph6QrO+sh7WJ0rMdF3Bw0ag+XVBRfmTwMQsfqkqrOneHg14ArePaDMm0UFbWCNhu2+2gOGrWH7qpeTY9HR+qQIk6e4eBX003oernjXCUVndMbHedxdfwFMEKXD64btA49WAGSuPmeKg0Gc/VbZLotRNfMFbVULL75pDo6zOO+9R2CLi/EZj8gsjJ5+QUdpivm/Zmoop52yZgRja6bIz6VX8x67dBBZkl/238QAw6hR59l51ZxlcnLGF3WANpuo5pbQets+QxdOTfU6im7kk32o2M8LkBzyAyjGnr4WYrJf/fwKTpGN4z+XnolrTVel39rdmsvuYyde6AjzBL3QrBANujSHqQvi8vgrYMCxecvlVxHu/1SDF1BB9SQe/OgzW/qsjsCh6LLNlEDJX8A+S06QBeUyf/sKQopbQ9fP0gn9RRRbZqDVyl4MCN1+ZhObnsYwx3PpHv/a5kVdMWIvunoQtpO5mdLFV5DR5cl4RYR4Wiz4LvoaSLCyQPfOsi2f7HE8jllijb789iqsrTaabPOYZmQ5qDRZlET5L2aHlMLHZzlavwSL6147unEI6qkKiqrcGt0WUO2bK2okLTZaLbYD6JCymkzOjTL7VF+rordOpariS6p1STt5J22Ex3Ycf8TGJQuG1vPLSAuqJPocr9np8LqT3Gy3pw3+fpBnlJSapZ8GTquLHufFRlWT122mZ+8Q2RY//g/dFw245ZKctTX5ZbeQpNXy6jYneiwsqx6XWxcS3U5brn4ULGBHXMYHZa9alzFLZVkuZFrdGS5U0K57tPkbq/BctGRxZdGx5SlSIbo0KKimqCDslcLbqkkUcpH6Pra6iXxxdqgyUfzxSTsZJP8MjqqLLeLj+1+dEy2+l3KnR6d0Oo7dI0t9YrwUt2ODumYPlL2rIt/FR3XMdHiV8Vdio7JTkXlvCSik0x/CV1nKwn/E7oaHdExNSWd5B57ETqyY4Qf/TpHk+eBdpnblVsqKTGmKw+8Fa+76DK1QEd01NzTRcf1j1Ho2I5aNkdwWO3REdmosMLzwF03jnt7i3e+2Bp11mKBSnFJdw5HdNSjPdwtOCxdtgqxSEl+xarUz9zbW7SyYiukxVY9qx4XG9TJljZEx3fEKrGPLCqg47HOqn1CC0ShJV9XAl11y3QXW6Br0fFkml1ebEw5xf6OjvCITkJj6oYOxzJtW2wQWh8KS88lWjy7sIfQJWPvoaPJVGONyIhyk6TDuofLhYaky6e6dki/WfY5TZSH1WXQxbfKgyJro8Gh9TUUfF6uw7K4nUIj4nFbAp3dS2htKCJb+6Prb5E2IitTFR2NkuagR3sQ+fxsDToYi3RvKbAw5EOldug5YI3JIpf5j0ZHU0LRwtTkm9GRejcKDEeDez5LzD3YUWBdyJeOdbj6QZDp4qqSgY4lVdk2yclPomMV+UjwcnQwtriZKxy0sGUQeiZYQuCvTCtwKEUrioslpFvBwZYWGAv3uRTiEFc4aGPxw+jZYIVfxVVkIjaSgeJ3H8pHciFstKPEhaLDp2bmmz1YXEUosPjNPAk3uARxh93WhQbS7hNhgYQH+3Dpc3GBfAwNxA7Rd3OFg2Z6NpqLnhXmE/fxC7Q7jFbdHKKifkLGK/CerywyDiukl+YKBw2tnxWHnhmme0FYMZDdYdEAYWGE71xgwALvHZ4DhmGFTXXFFYNE2qrLeb+m+lJYKYDdYa/UvZXydD0uYoH3DnwpHUjRO8SVgkTbxs2XgmgorBDA7vCjsCAiMgZ37Ii4ewduwRfE3iVjhFWCJEjhg9MAugurA647fCAshgi9DgtZXHfYAYvBAgeULbEhv9ZcjJ4l5kqPFVUFWHeIk77zXp7ORMUs7snSNagQzDdQ4FpSkmc4Hy/59Z6oGsC6w1OiIojcSNRDe3H3DpocBW6evQeF1YDkypixFz1bDHWeqBKgukPCJFER+PAjKGhx3QG/d6KR0ktz2wyDcHMNf4St8UR1hwWiAvCjJ2j3a3FPltpgAjBcvynCCkBKfMijRX34SFT6Ud3hAVEB+HI3Jmhx9w41MAEYrcFmYeknZf7m5hoRe1JU8kHdobqo8fvzOCZqcd0BM36TxRzsKSz7pFBG12bouWOai0TlHtQdqogav0/7IVELe7I0CTJ8g8XNqicq96TaHPDmmcZ5UVTmQd0BfVDjl5Cohd07nAYZvrnuEnkqHyn3eg/0DDLKaFF5x3SHYqKG79e7kLCFdYemkOGb6p1uovJOKL/MRs8ig8wWlXVMd3hC1PD9WjoZEbaw7nA6YvSm+jJFVNoJZ+SSPuiJZIzJok54wHSH2wWN3j/IMVTCusNtiNEbad5fXOFgiQqgLw0NlCYo5ZjusEvQ6P37HRG2sO4wHTF6Ex0+TVTKCW/5Xej5ZIhEQQnHdIe/BY3eP8g+3rx3UKt3B1EJJz10WYWeU0boLCjdmO4wXNDo/fsIEbaw7nAfYvSmif4mSVS+SRdXoWeVETIEZdvV7vAHImxh6x2GIUZvmq+Giko3aaL8++hJZQZR+cZ0h+tEDd+3Foiwhd07LEaM3jzl+LWSTbZ+hp5QhpgrKuOY7rBP1PB9gyy/FNYdHkWM3kBjnxGVcUJLPHMZejqZwvD1DntEDd+35xBhC+sOmMV8JmpXSVTOCaoLaF9lE3UXlXRMdzggavi+QZbWCOsO/4cYvaH6txaVdYLZ3Q89jUxyiai0Y7pDd1HD92sEJGxh3WEiZPiGSniQrx/MtvJC9Bwyy2uiEg/ahU/Yyac+VYZELaw7rIQM31jvtBSVeAJ4fhp6AhlG2EZFoO7wqajx+4T5Mo7nO6DcNVFY6kmt36qjJ49xZonKPag7bBI1fn9WQzbhE9gdFkLGb7DJ29cLSz6p04tn5EZuiajso04O/a+oAHypgglaXHf4ChOAyWJmiNqbjFSZWTodPW1MJGw5Gao7XCAqAD/GjMUELa47HMAEYLZafycLKwDJl7FkLnrKmGmHqAqgusNeUdsI+vEpKGhx3aEMKALD9asvrAIkW8tU9HQxlbBvuFHdwbtTVAQ+1ALFLK47LAFFYLzDPO7BDBObo6eKuURtwofrDnNXigohYnVQMYvrDi1RIRhv7xJh1w5Js/5JvnDwrbuwMsC6g7dAWAwROi0GFbK47rAcFYIFFn7B1w9663kG7BK1gbidKHDdwaskLIiILK0Ni1hcd4hPgAVhgX7jhRWCxDt3EXqCmK2RsEoAu0Px5cKiiMR2XMTiukPUObgobPB0K3GlIKHqF0FPDtOtFVYLYHfwBg4QFkb4dgEDFtgd/g0MwwbRM/j6QUcD3uQLh6DGCasGsjt456hfn3Q1Ml6B3eFbZBxWSP1NXDVIjNjni6Onhfn6iKsHtDt4bUQdjx2uStBwhZ0cGhX1MzQQOzTn3t56eXY/ekrYYJS4gjTFRtJmpLhQwrAWe7zUpeIi4S6tIvyk+t8J5W1rQ/R0sMMf4kqyBRzKiyrbw//Awb4qMJZD4FjsMLZgrMCakH/rL4xDTwZLLBZXlAx0LDeoaw9voQ+mvUJgMBeAY7HF6DsEFoV8SpvBLZUEmZsksC5F0dHcsEFgNPm5A90chJ5q0RgdjDXa9BJYFvJjM1c4CHOZyMKsQEfj1VbTHr5Ax+l5IhdhwW/6LDKIqx+QpvApqUD7RJYGtV9pNrVVvBt8Af8d9V6R93xRd6HDsUj0GVz9gDKzL7r6dtkqsjjvoaPJVLuJyIhypUFz8J4WGtE36HCs0r2T0OJQmJZ+wxcOQhUTWx8dFq4XqSA2plNsRkd4hNgfoB/Q4VhmE2ZjF7etbYcuu20uFFsgDR4ted4huaf+VtbgzsEbu1RsUDXQAdnmAuSJVC76+iJ0ye3zs9gSTYpGB3RE0U/ERnUSPbad2CM4qqfQAVln7DWCS0T5WPkX/CNC+0wQvTu9Hl/OFz1NcFgndEXHdlSC6D0H+WhJvEPCjuSl/I25tw+62Da6XXSd0Muls5QYITqwLC3QkR2zTnhg1dEh2egJvn5QYRtfOEghfvbqcfPglRgqPLIj1qHjOmbuHOGRHUTHZKW46xEby7ul14voKluqn/hardRk29waa8THljwLHVWWKuJjG4GOyVJ9nhdfKzph5mEdPhKx0o8SynUVOqgsxYTfFyUXQseUZf8Y0aFl2oSOylYvVZJQLToqYwlXOMgyuZ6Mir2PDiuL6PagTXPwpOzlcw06Kns15+sHOTqloktrse+klGxkG3RcWYq9JzQuXZrDZDnnkFVAx2WzMiul1Mxtu3m7K5PgxQ7HjbwWHViWRSLP6/oLHc1xBQUGld2t6MBsNm0fz34Qq54u/9YsVVtW4TpfjA4tyyJxdw/aNIe3hYWUQ2t0ZHar3lhW4VyUsaQmuqCWk3dUSccn0LFlEdYedGkO8yoJCigXv6ODs9zGpvJq55bkv99BF9N2o0Wvk87uaXR0WRaJ2W1fl+bgyVx+ez46ONvFXSF+nYqLplRDV9J+18ksYNJn6PCyvDNVQDTXo6PIsneYgGDy1hwdn/WalePZD0G1ehVdRQfUkvuaTJv2UCPwqmltFsHt7SCiMnnjAaLydR8u85bdfomabMZgOaGHwuUiSZcddYOumk5+Eh1BlugPxVQmb7p8bGa1c6bILqPFuhRDl88JO1NkF3JMf3SMWcYGehuYdDN6/FmW3SeqMnkajo7RDYdXS6+knabocLqYCyrLr2WGLttjTavrP4ilB9CjzxL3kLjK5CWZr/uUaPaI4MObnDBTl/9p1iup4unnyLPRYWYpfr7fEDpuRI/9ODkrpHOYgo7SFdX/p6KcNunYKAZdNGeMV1LRnrr8ttb0+T63py79ra2itVSXowN1xkaRC/nt141bKikzSFFNl+qyLC7G164haR+gx51l7qOiK5OHT9CROoRHT4etKbdUUqftTGV11eXPaLSP9jDyBvSos/R5XXxh8tAIHatDig2OV1ZXkw24YjK6VC6RcHpMXpKqooPNEnl70KY51PxBRmVy17EWOlqXHFLzhNdosc/z0GiVFnZUWNwkXZY2Rkf4RWiiNs1B6Qfy29DhuqWwrBPQbbGWJ56rpfZ7iVhd2sO88yIZ9iRdvu6MUbx66lJ0wI75Q/rKI4O11uUsMWfMUlzhWF1WTXtrwx90E13WDce8K68yufpkFTpkx0w4V3GFjdH5zGXo4rhmtPKNwJY2RMecJeGWcIesTXPw+y1uAG+hY3ZOm/rKi2yA+Mqz0YVxTgJgl/lYbY4OCHPZgDbNwf86vgCuQEftnPTt3Ns7p8WH0FVx0I+ISmuzWVF4dw8DdJmYQfYA8S/jEnTc7qn5iMpPRfQ3Qps/lC7ZiCm2NhudettCDzZDl0VwwfYP9G9iAjpyBxWthCm2jjaURVfDSYsGoAquy6H26YNDjbTCV+gxZmmwVUVhcvMjOnQn/Wsiqt6aGcIXDhAyT57MX3IhdOzHHW6S70Cf1eXM2uDnFvmnyw4ojum7BVdybXR6CV0GR20GFj1Zm8OZG/yd9yhX90WP7jhkc4jaUBIdvpuiv3R986Up56Br4KrbsYXXpj14n+dxDzVphjbbBEObQ1TUJyXQCXBUsSFyj/TV29QV6Pw7qzC69vq0B6/3VacOb6IuB0hnKoFtDlFRy4ujU+CqSyqBSw+T1mIeOvnO+gD/p+R6dA6yWXXl/9ZnG9rrP+q0SzC8OURFfcgrFWXTcnTxIe7hDpAwb+jwRFOjf+dHpFa9s8oRP+nymVKWRa3QhcrUDZ0Fdy07U4eLVa2mbdBZd9iEiujyH5H8MjoPJlj0HrpORx1E58FhDbqoONtXH00WoDPuslWghVU5xbM9hFRMj+YQFfUYOhMua7MbXX514ivvRKfbZahVt6eK1+U4IG3t1Oeps2YPAt0y+cL8F+bYY7wuO9e4qcYa9AQ4QZvjgDS18wF0hbJZh86G01Z9i/+QRL4R/IoVSoMvYLLRZ8dWHc0uj67PSVqg8+G2kmFuKmyutAfbopPstlTNTifUZsdWDTVoja5ODmwPWBt1mxBCJXdZhE6w44p+gp4DOemzY6tuJvwXXZtTLEHnxHHzLuiMngLSnN4PnV3XVZ+JngOnSubrzly1Ow1dmVzci86K62aH3FbYTOMKozPrvOZ6fvjABxa5GK3nCWHd+GQYrCRub2VpEstyWoGlfxSPngV5+BKdGv0cWokuSh52p6JT47wn9PnMWYikXWPRKXVeH40/eXgQnRzdlKyHLkmeKryPTo7z4q6HHdwlwdX70fmka3V8jP2PC9Dp0YvGzSEqKnlGOjo/zusz35ajp7eOQueSvCfRsyAEtodsquvcHDJd3QydIRo4HD0LRJjJLxY1sAs9DUJie/hH9dXoYoQytQc6R+S1OR09DYJKO0ObA7YcdrEOm0CHotFxQFj6N4eoqKR7eV3jfWbCdZ2n+Pu5+g2vwY3oeRAe7uNz1CUGNIdMI55DJ4q8hD8noeeBb+fxuHINXLEBPQ/CxfaQ6Y31oROlh23864fX7Fv0NPBnRCl05ijzx+Z19DyIAJfFeYcM+lYxcd1kdLrIG70YPQ8il/IHOmuUqSt6HkTmTnS+0KqZ9aSgV290wsjzSmm2s2ZIN5ZAp4w8b/s49DyI1DPolGHdYMxTwOO6rELnjDzvjwz0PIjAA5vQ6SLPK2rihixOt4cbRqLTH7l6fdFZI89b2Ak9D8JVcTsfR+Kl/rIUPRF8+RSdOJyzDWwOmV5piE4ceV6bXuh5EI60j/aiE0Xe3jpj0BPBr8ro3KH82hOder86vIHOHXneIP1XP1TmdnsaMGCi5M3R9nCpsc0h0zfcW0MDf+r92qrxaHSCyPPefwU9D4Jxsj1cava2apPKohNInrfqR/Q8yNu4A+jskOdNmI6eB4E52B4Mbw5RXDyth94d0PMgd2Pq8IUDXtxTKeiJIIBz7WGU8c0hU6cJ6DSS5z2p4wa/P7+ETgt53llfo+eBGIPRiVTrInS+xeAXKTroU1C3MyBHvIrOCXleyfvQ80CYv106YaahmR8f52LLdnQuyfOKPIqeB9mlPchDo/Ea3K/bf4YgXnCnPfwei062QPXboNNJnld1C3oeHJd8bi10MshLKJuInghivRCHTqkivyehUy3WCwvRGSVvbxU9NtfocA46E5T5EzMUPQ+Eu2MZOqlK3GxZc4iKyqiCzil53jv3oOdBVFSrp9FZIM8bbeKWSiG95UJ7eDIZnWYJtqxAp5U8r9oU7Cxocj06A+R5xZ/HzgJp3pqHTq10s2xsDpme5d7eGvh9Km4GZNzL7Xs18OdK3BSQ7JYEdHIl+wudYXmuaoBOLnneT6DVD0lX8QwHvPSbTd5SKaRb7H64VAidX5l61uHmS3jNGqUBal+A+zJq4GLDt1QKaa3N7aGQpY+Vjqv3GDrD5HnFCqqu+9CN6JjJ86oXUF139SxuD7Y3h0zLz0InmTzvkNLX0ylfouOlzHvG51XWHMba9uBAc8g0nc8YNKBw86WW76CDJS/urybKCo611s5lcaWdaA5RUUlDdqJTTV6ffWo2UriNq980cOlEJcXWQkt0smV4E51VdZqUQSebPK/6dfJfT/OQcR0MNOaQcSEsXPfgxmOl45Y3R+ebMu8fvpW7oVdywT7oEMmLvtOG0wAicZ5tuzxavM4hd524+ZIGpO6p8ENtdHjkeaVGSCyxpobZ1R4uQOdTvZQH0UmnTCvWyyrwOnRo5HntGssqr9aG2XSuzAx0NiGm/gudd/K8sbdJKe6aa9GBkRfziJTaGqBDTXTuhfkWnUuUh9qhU0+e96eEynaZi46KJt86R0JlDfGDLZt67UNnEmi+PT3eXP1E7/afMggdEnnNdwuuqlnq2/HLUhmdR6gBj9m5esUoMb8IrWnTouiAqKgD22bk73Qb2oOzj5WOazoKXQLyGgp8CFHApleCZmpQ0KbDh306PQZdhsCcbw6Zph9CV4GKnS6omPFl0aE4L+YPxDa8+vnQ9PbwDTqDWki+pzu6EM5rW0lIKVdyO1a0QjOFVNICH0ajaxFII3T+dJHxDJfVov1HQB2b8owfsP5NBZTRFveZ3B4eRGdPIwMWoKvhvAWBi/i4Ld8RmuqN7wVciha5D10Q/z5C504vy/lQAmzF0mAVPL04OgK37dzHl9E5/Gzq3UMLdOa0c8t+dE0cd1eg15k/cwkc1IJJoi5EixjaHu5E501HlfloAqp2gB+YxnbtfWaaTcvFXYY2MbI9PIPOmp6azJqMrozTeoz0W7lhtp7ZaISFL4i8Cq1iYHtgc8jL7n7o2jjtxRR/ZTvf9I/LTRb9UYbYi9AqP5s2Ndkc8pZ8zyJ0eVx28Rg/RfuajwRxCjt4hkMkFpt199AenS+9pe1BF8hl3/mo2LgJ6FG7q9944RegbYza0LsgOlvaG/EZukYOOxxxuQZUR4/ZWbXukXD5Wed8Y9pD+mB0rkwwvgi6Tu76I9JivYgesbNm+HxN5JrzDVmKk/43OlOG6MLXDyjXRFapp9HjddXvW+RcehaqOw1drHDE8dOzcKVdOQ9dLUfFRbRjayP0cB01erGsK89GTcei6xVa3B3oLJmkdXN0vRzVoGL4RfoNPVg3NZvPbTMiUl7/9sDmEJkCqeiKual22Fsu1UUP1U0vO3xotE/Li6GLlr+4tegMGSfjI3TR3BTuhq0ZPCYUoN8UqRedpZbvRNctP3Gd0Pkx0ZbC6Lo5Kcy73HXocTpowt/Jci85Wz2gcXtgc/BpPI8WVa9ZWN/DLEYP0z1t9/BgUL/0bQ9sDr7FD9b8kaGNvgrjrWcFfnWs2tOt5F9v9npA0zMoJ7M5BND5J3T93BPGoriq6DG6phq3zQjmBz03BPsCnRfDtT6ArqBrloU8ovg89BAdU+JcvnAISsd1D8sqobNivsXcXEOt10L8Fo0sgR6hU+ZW6anmQrPbmhroQuY0rzE6JzZIfpuPuZX6Nv96nIken1OenKnmKrPeUM3+1LTdgc6IJdL+QJfSKTH5/iC9ko4en0OaT1R1jdlvhFZLbOc+is6HPSq+yaNF1amaTyWS+J2xMoeuVnaBueATjZZwFq+PzoZVJnLzJXU+zLsOV6HH5oxF98eru7ycMLMduqbH1fwBnQvbNOa/VlV6J+VZhYXosbliBle/CTdOk/ZQk1uiiLdZu+8ObPVLXiWojB6ZI27mGQ4yjNPiz00Mm4MMaXcnoCvrhlpjci/AGH4+pkIR/nxI8t9a6NpmNod30Vmw1dDv0LV1Qx6HoP+IHpcLGmzm6jdpWsN354lmc5Bnx2h0eV2Q+81DBvzScsCfG1RfUk5Zjl41zXUOUrU35Cxxo+3LLfMF0aOyX6mhqi8n12CPA2o7DB2/7ZpcH4cssBNyu3mIn4Aele0O8dBo+ZYDX57tZXOQb/lGXIEdUfnUrH+BHpPlil3DFQ4qvAdrD3s7oGN3w/eXoCrsiFqnHvTwMHpMVku4MhFwHTkJ1R7+v707cfSpWv84/r0o9dNBmm4l15AGQ6XRUBpQoZxCI0mXkFQihZSk1DXkhgaVjk6GqEzFObo0KJrrihRpUBqP0KB0NfyMxXHOd9h7r/1Za+/36x84az3P893PWXtYi+YQGh4/mHV64YBfrB5RpL3HA4fwZEvukU7ibaXwzJmqSHFsrCsc79fUI4qwMmzKFqq+gh1by/9DPet4mX1I+DmOj9k7Brsem7OasucffOEQsvB3bB1dVz3n2FnJ5kvGnLVjqO9XjyeqON9HIewdWwelPHMRgWt8y8nhZjk+snZ8g6aTejwRVfpt0U8n5t5+Lsws13hJPd946jEwzCzHyf+2D/PX6tFEUxk2+lfpFuJ9h6GfqmcbW734+sGI3bYP8rHq0UTRoFt44KAz/Myw8tz6b+q5xtkCi459io7J/bYLMd9JB2/qcNkvBhv1WxdOnvtPUM803i58umY4iY6VF/8K8LfqsUTPYp5TqnW4OYxEXzZHPc/YG3x1GImOl4f/Cm9V9Vii5vCfdb8VbDPgSvOZPqmNepZIJIYcZj7T8dLqr9Mru6rHEi3jVu+8UQkEVh1qOtUnNVLPEZvkfBD6Jy4RV3lbaOeoRxIpra7jDAdb5BpuDxVoDrYY8Hhns7mOmUe2BfZa9UgiJH/fwcrfCHaUN95kstfWU88Pf5lzhslcx82e28J6r3ok0bHuW+XvAzvpd5S5ZPNA2jL3cfR0cLK3BnWceiBRMfQt6Y8DRbjQ2JtLXbmDaB2Ong7M8Vsimq0eR0S0Wp6r/WmgSPuYSfe6fqn/NMJWfyxnPwTjsS0BbaseRzTs01f7u0Ax6htpD+vYXdFO3Uqz33QQhm4J56XqcUTB2pu0vwkUz0R7oDnYq0HL4PMdQ+9sDibHtPo29zO+cLDZ3UEnfB03EW32FlsD+bdgUySHq0fhvn91U/8ckNSqgLfkW88p4XbL/aZVsBmPoaqbAnmnehSuY0sl+7VZHGTGu/LfgPX6Tgky43G0z6YwnqgehdumPar+HSAdvYNL+VBuK7ngIY4082XapiB+px6F06quUv8IkJ7jgkr5VS3UU0F6evJ2qx+b/gky+DFp5F29VP0DQNouCuarzzpsn+GMRmc0DCTn8XTrxgh+oR6Es9YPUVc/MjE8gHe3p5+jngUy0aS5/5zH1RWJRJ56DK4ad4u68pEp32/C8zm8c0q2DuTnHkP3JxJ91WNw1Hcc++Kikj6+7hn5GPvvuujUguB+9nFyBqeGerMoO3VRwkpv7OrtoJgrS72jHjq8GbMvm2t48EMicaB6DA7q/6W63uFHg1OvzOxtlk4fX89S0WWjyhi6FETZR4nEo+oxOKf84zPVxQ4gEzmnT1dfN5wzLZHoqR6DY0aW5kNZwDl51zVVXzscMzmRuEQ9Brd0r6uucgBe3Pee+urhmLzENeohuGT9C+oKB+DVKPb2zsS8xC7qIbhj6PGN1eUNwIfbOK8gffcl3lQPwRXNjuPAF8Bx9aucrL6SOOPfiYHqIThiKtvrABGQ9436WuKKUYnr1ENwAmc4AFHR9xn19cQNQxJnqYfggPYfqusZQHBmVFBfU1xwAWuHlAoe5AwHIFKGlRqtvq7Y77+JX9VDsN17nOEARE6j/UaqLy22K5F4Wj0Eu1XgDAcgkpq8rr66WO4fiRXqIdhs9LvD1CUMwJAP9lRfYay2LDFWPQR7jTymkbp8AZiTu7yV+ipjsXcSpdRDsFZL3mIFIq7X5+rrjL16JNqqh2Cp2n3UdQvAvIv7q681tkokblMPwUrl9+ctViAWhp2Ypb7eWCkrkbhTPQYLzfp9jrpiAYSlx/Ky6muOhcokEsvUY7DPKZ+oqxVAmAZ34ejpwu5OJCaox2CbMjeoKxVA2DquU195bHNwIlFfPQa71H4xR12mAAQuaq2++tjlwY0xqa0ehE2u4QwHIKZm3t9ZfQGyyR8bQ9JdPQhr5D9WSV2fAHS6ndFQfRWyR4mNATlDPQhbtKyrrk0AWrPvVl+HrNFvYzj4WHqz1mer6xKA3krOftgsa3Mw1KOwQbMVF6qLMhrqftn2xoEfn/L6YUfsuXUD/au6j3jwltPqdlOPLEIGl/h59cDdxm85ILlm1pNr9zrq3v0eXN3nob+pRxYNnP2wyaGbQlFJPQq9kZdOUBek+5444PLPJyaL8h7/d/TlH7yqHqbT/jt26pS9kr1GMmmvEXf8j70j/Wpz7qyALzEO2nVzKMqrh6F21NfiYnTes/efku7bHoPq7P99rnq8Dur76D0t0y3oCi/34d8df7IP8XgxiY7rNwci5o9h2l8hLkTHffrZ7gWZxvw/L5+mHrZLJqx+JuP3ztdO/ZK3s/345+GZhjxilm0OQ6xPh5t0CQ8cvBvwwLleN7gcd8z3jdXDd0KjH7t7POKy7O7vfqoevcPqr5nrsbYjoWDLzzPGj6XzHxsjLkGX3XlpM1/RH7Shz3D1HCxX95LF/l7AP7IUTyE86/YvX7F3295bYtAhtqdvd22grT6XVTou6SPodB16gHoi9up1z/QgQvze/9QTcVeTxUFkwEk/bQ3Bf9QD0cjiwuTZlw8Hl4ZvBqtnY6XbXgssxNNPZY3mVbu4Hj09amsAXlYPROK3HtKqc1jjD48MNBMNN7yknpJt6r8Y7DPRSdXYJMajVQ/G8uyHSdt2I31BPRKB5tnSknPYgBMDuaW0g5G7VVRPyyYXftU+8BBPfp4W7FHffQLPhv2mbJv9gJrqoYSt9W3KanPZzCpDjWQkf8qt6qnZ4sI1hkJ8Nf3BoxnxO3r62j8n/4t6KOEq+7Sw0JzW+A9zW+DTHza78DNzW+qPfIw3XD1aHbdvhv96mbOteihhyh/xtrDKnPZzJ7OZ4f3ixDnzjYZ41qVsxeRNt/1itbf3mdvNPEZnqra8S1dhbhuyt/HkFPyUehhR1sD8C5S1Ls9Tz9JRTRYZT449tr+98rp6MGHZo6SsuBy3cL9QEnRVZfVEdbp9HEqI57+gnqirFjwXSoJssP1d3irqwYRj7hpZYTlu1Wcnh5Wku+9TT1bk/NCOrazDEx6PqowLK0daJ20/6YMmq4cTgob/4owBj5aE1hs2+VU9XYWO68MM8RS+QPSmza6x2Nv7/B0mvZt6OOYtbiIqKOfdOj7kVK2L36dba0IOcbk71DN21ewYPH4YWW+HKZ+gHo9prX8WFZPzPu0S/jsLX9yknnW42pwSeojLPfkHe+R680Lkv36oU2jGod46CF3NmL8L412/czUZO0s98TBdEPyn0eno9Ip64q4aG/GvH74sNN/L1QMyqTRfOHhU0uzr90mcFJutTuq/qXqTPv9gdufzZs7LUX78MD+n0HSXRncb71M+UdRPFMwObptQD6qopx+OXl2FMR60RD19V903RZg2w8buNNur1UMy5PYh4VdONNRTfx36e+F/YaKo4xfaIK+/WB0BV406TJs5Y2ruvHt1A/WYjJjeVlA20XCJfm/GX9QxMO8KdYzLlXt4tjoIrro+mmc/nFHEVCN4ClLNB3NDr5iIuOgqdfI2WXeQOg6G9VRHeLP9OF3Um1U/TVLnLniz+hYxUwv+iwlW/r5s6uZRk0PVydtqfbRT+KY6vluVPz/1WFGUMR9Hbo+654ucaLCnUcmN7xhunURHo3/Z84rCtBbqaJiT87w6un+pwOM5j76O2E2XkUW/LNhOPa4gTe8TcpFER5XR6uRtLyu6e+q+p47tDu5dqo6Hqz6M1OOH6sXM8kj1wALTajkPHDz6n9kzHDL3xTJ1SMwYZtsrkQXLOWndm1W7ROjo6eI2HLpAPbCgfF7UcxWkoaOFy+SsSB5o1ri6Oq47G7R6pjosjur7gzp3QSm8icZfnlEPLRD9V4ZYFpHS4jx17oo0P4rnmZVWR7VIT7ZTx8VVKyOy+dK3xc6wRQQOxxt9fv0QayJKFh7bVJ28Ykyco45N4MI5S8mDxQ3UoXFU/TVWPa/zqHuSGf6mHpxvU3l125v6pSw+2OQ/UTvtcoU6osXL35fH0940mqrOnX93Jplfj+nq0flzCJ99enTaEercJbW3Oj7BWqKOZ3JvrlIHyFHZgp3YA3Ve0umdrR6eH4cfGFIRRE52HXXuUjlaHaIgXayOZirzz1GHyFUHOv3V2KR5yWfXXT1Az8rzwMGjHvc4cHDs/eooBadXaAdIe9fya3WUHFX/fIfPfvgqxeR6tVKP0Jv83hwa7VGVLHXy0hKZ4+L6rVWHMi0ciuJRN2c31+iaclPkp9VD9KQrb1p4tMDuBw5/GR2VPTWsv4u3VdldovYuQFgalFHnzpOGaWxLcJJ6kJmb/of5jEdTx5bq3KWvTDQ+1bpEHcf01ThxmDpajmrrxnp8R2+mMbFs/b7+mSn4lW0zvJm3rzp3GSlq33nn3KCOYkYq3KCOl6Py3nRuc40zG6czsdPVw8zMebye7U3j1a49P/tQHTL/3q6hDmKGNtRTh8xRSy3cKiWZue+kNy+X/qNcN8psjqPrWfcOPpzk/v5Ze6tjmLG5PdUxc9UFyhPDM/ZCmrPKteJcsHT0/9loeiOs0THq3HmR7Dt/J5yojqAXXZ9Qh81VZ09U5y5t1dKeVF31UNPzxWqDiY20VXfMVSfPmxPVkfOnr5sHTebvO1gdOVeNdeSHdmYGc/pZPdh0DGQ7em9yTp+mzp1XtdK8OWopC/dHT0+rs4arY+eog6qpc5eOaRl93HKNergp1ellKp9Rd/Fl6tz5cLc6en4cr46eD6OfGqAOn6OyF6lzl1JBhids7aMecHKc4eDVJ83VufPnbHUAvZvjyF2GYlzlcOi1TrD8i9P8LzOcUIcj1UNOYi4PHDya8y/Xj/CY7u79RJfeBSxSS3Yk8Gis1S+PZ76HWSV7j9L+baGB/MXCGquLND27qoPo1ffqyAVgQyV1FB1l89kPB3uYT4v56lEX7Zeo7LcTunaWZjRDr6rj6NHt6sAFoeBXzn7wZratZz+UTrn3XlGsbA/PvRF01uJituMPHP60mzqS3lyvjltAniypjqSrHrDyO7J9PTWHje3BupPiaj3OGQ7e9Dh3ljp5gemoDqYXM+29U5up5pzA6M2FxxWoc7eTfdPaXakor9ZWj31H540JMldx0naQOncBulIdTS/WqKMWpO/aqMPpqL4/qFNXyMc+JvNpe/Xot7N+SGBJiplXjlTnLlgOFkIH13bfSy7L8Y/WdVb2V+due96eOWxTqbV6/Nt80dPzEijm+u6mzl3QHFw8jFXHLGjrZ6hD6qj6TzVT5+5P6W+uVLR569Uz2GJqo0BSEz95A53baD61C9RRzVSHKN3Z22oKuxV4M6+0OnVbPe17KgfZsO/CIp6DedQ2Wnc0tnJuP4016ogZ8RuPH7z52oojGasEMJOF8jch+y8IYBqxNCMS79gXIcN9YdQaR+eFpR1k9eQdQm/O0X8ucHogExl2rnQSWV9xuK03y16TJs6k3urYZqaPOl7GHFFZHVtHDbhRu29BVomgZvKHcBbL3d1XR+vt0iOFaTOsVUY7DsvZcHfWlJZ11dF11JzvhFk7M8CPAxqIPnwY2Zt9XbzJfTCCD6O3c406wJl4Qx0ts652/0BXjfvuVaXssUC3Y58gOQ/39SZBziFGcq4fqshXiIb6elE7ZM5vzppC2V1y1SF21AVrJfn6Meh5VAn90MNxbYOeQ1w0cOq4c2/+qQ5y+vJaqYNl3Pw+6iA7athT4R8m29LAPqYtwj32sPwu7NPtzZjH8kPNlMbR6jCn7xZ1rMLA2Q8eTfgu3H8eCsaa+az4/BDncAZfv3mzysKdvkwo208d6bStU8cqHB/PUwfaUUvPCzFL72ebmkaLQ0Kawkn/MDWFqPvApp2xjPpDHep0jVFHKiy1fuLsB28uDutX27mnyWlUDuMjjvnvmpxClHXcK4T0WOIZdbDTtUYdqfC0/8CllwUs0qHq6DDyc8wcs9NY9abxKXxudgbRNbi68dxYpGagL+UZdJQ6UmHqOkodbkf129X45nxdnzU/jVffMzqFacF84B0/ecuN5sU+J6gjnp7h6jiFrPrf1BF3VKPlRp8Y1l4SzjQ6mtt5af6PM8OZQ+QckGUsKZY6Rh3y9Cg3GtB4mscP3nSrZuwT1tE3hpeUE8xsDTC0VGgziBg7Nn0MV3t10NMTq9t9W1x1mzrornrnETMZOfagUKdx9vjAZzDxxVBnECGNHonwlkrFc2Kj1pzO6jApNDf23mTUzbs88M/jOl8e/n5EHbtMDnIKixfwuoM3w96dG2Qi3HG+OvLp+K86ShqT72H3TI8W3hjornadTtTc6Kv0TWDTOLqjZAZR8FCnoJLgmt3VoU9HVXWUVE5mIxzPbvkoqCz8INxxJmfG7yf7n8Hr17rz3attev3gP/6uKnDhpPHu6ijplOHtVs9evc7/PpoNrzx+uHoeNz0/zs8UntuF42k9y7u8qe8acthd6vin1jjaG6mn0CXAUwRi57R7fT2B2PtaOzYjyvnHNXt52vit5ik9P1UP3mE5baf7KR/3Ha/OQGp11THSmvTTheoMOGzmDX9f7yns03tfZNUepvWWdMnw7Nyuxz6gHrTbhsRgn+7kDlanILUf1TFSe7KdOgVue6fKbjUyCnjB3j9ZuV3up6d/3DqtCTR9/ZsHeNTgT9+rvfxWo6WMOgmp9VbHSO//vlYnwXXZxz+W3jZ9zXZfcUF99WiTaPTKLdVem1bs8AsO63LczxX5HtqvvOWxvp+91Uj7H0vHfn1XbtP5vxPUaXBfvTd+PPfm4vdA7Ty+9+Mv9HLko4B3vr7p0VJVzzqjd/XPF938w9EHn7t8xZLKF3wif4QeDTkvis75tk1FdSZSaRzoN0HOqrU/jx+CsbTugR+svubY35/f7ZDur/2y4Zhqu9x/wAvP9uLjEmz1hpl9TBxk/T3tT9QRskV761MFuO++X9S/dHs8qE5GKiXVEbLHeD54BYxaeE+sv3AopIs6HancoY6QRfI3LFWnA4iu+u/6+vIwcl5XJySV39URskrBLnnqhAARdcIR6t+3ZdqrM5LKKeoIWWY6my8BBty1WP3btk6+7a/wefvUNcpun6HOCRA1lT5W/65tZPudbONnBTtoyifqrABRkver0TNnnfWEOjHJ5ajjY6WGv89RJwaIisa3ZLbVSnysVKcmuTHq+Fiq/AqOngaCMIS718X5UJ2b5Jqo42Otq0qqcwO4b+lu6l+yxU5UZye5N9TxsVjz2ersAI6L7cmTaflJnZ7kLlbHx2q7sjsQ4N3PV6l/wnbbVZ2g5Faq42O3rCW2v5EM2Gr2IvXv13Yb1ClKbog6Pra77L/qFAEuavPdLPWP13oPq5OUXEd1fKyX/xhnPwCZupYtlVLrqs5Scnep4+OAmvurswS4ZchJ6l+tEzqp85TcMnV8nLDHC+o8Ae5YyqHR6VmrzlRyfO+QnkXZ6kwBbugxUP1rdQZrh4iYyuYaQEozVw9S/1TdwdohKpr91EGdLcByH05U/05dQneIjqEvNlbnC7DYkL3Uv1G30B2i5PbT1AkDbNVrivr36RqeO0TLoibqlAE2yruuqfrH6RzWDhHT8IxG6qQBtslpO139y3QQ3SFyvig1TJ02wCoXdFX/Kp3EnaUI6mT5mU5AmCpVV/8iHUV3iKR9PlVnDrDDqqdrqn+OruLOUjS1Wp6nzh1ggXZ7qn+L7rK8O1RUx8ddWQeokweoNVms/h26zPLuwNrBh64N1OkDlLodM1L9I3Qa3SHC8p/n7AfE1/lz1b9Ax/FUOtJqXqLOIKCxsr/61+c81g4RN3GBOodA+HrVUf/yIoDuEHnNZ6uzCIQr7yy2zQgA3SH6Zu3aRp1HIERta6h/c9HAc4c4GHetOpFAWL7k0OiA0B3iYe0V6lQCYbirufq3Fh3cWYqLxXXVyQRMqzSCLxyCQ3eIjfx9B6vTCZjU4/Ky6l9ZpNAdYqTV3xeqEwoY03aQ+hcWMTx3iBUeTyOqRpVR/7oih7VDzKwfpc4pELwJG/LVP63ooTvETpcx6qwCwZq5opb6ZxVFdIf4mbRipjqvQICuaK3+TUWT5d2B8x2MaH22OrFAUO46Sv17iiq6Qzw15+sHREKlx3jgYIrl3YE7S6bkj6ikTi7gV943BepfUoTRHWKr4FeOnobblpys/hVFGt87xFiNJer8At41WK/+BUUca4dYO/JZdYYBbyZsUP96Io+1Q8yV7qbOMZC5YWs6q3860cfaIe7mlmqszjKQoVEV1L+bOKA74LIL1GkGMrH0aPVvJh64s4Ry5TawuQackfsrb7GGg7UDNpp06ip1qoF05BwwVP1riQ26Azab1kedayC1IV3Vv5QY4c4Stnq/gTrbQHItuqh/JbFi+dqBfZbCxOYasNmcXZuqfyLxYnl34M5SqMpex9GisFSHS8qrfx9xQ3fA9r44f4A658DOGh/Pw+jQ0R2wo6s+yFFnHSjkYr5+E7C8O/DcQaDMG+q0A9vr9bn6NxFPvLOEnZ3H13GwRu7yVuofRExZvnbgzpLGpP05ehp26LOn+tcQW3QHFGniC+rcA4nErYvVv4QY484SivFatjr7iLt6pUeqfwZxxtoBxZlcrY06/4izVcfVUv8G4o3ugOJ9sbq+ugIQW9fXVtd/3FneHXijVezwBeoSQDyV2Etd++C5A5Lrfqu6CBA/S89T1z2sXztwZ0mv4e+N1GWAeFlVlfN9bEB3QEpzefyAED06TV3x2IzugDT0X6muBMTFE+PV1Y6teO6AtBzyqroWEAeNHuELB2uwdkB6mg7MVVcDoq5xqdHqOsdf6A5I156PqssB0TZkvbrGsT26A9K3eLa6IBBdlaqr6xs74rkDMrHfcHVJIJpyr6mpLm4UwtoBGRnXc5i6KBA9OdezT7d96A7IUAXebkXARnVVVzWKQHdAxu7m8QMC1KKLuqJRJJ47wIOpc9SVgagY/ltTdTmjaKwd4EXnFavUtYEoGHDjXHUtozh0B3gz/48cdXXAdTnXt1fXMYpHd4BXZQ5UlwfcNup2dQ0jGboDvFvE42l41uIXdf0iOboDfJg1lbMf4MnCe3gYbTu6A3yZe/5MdZHAQaV4GG0/y7sD50rbr3VJdZXANWy35wTLuwNrBxcsylbXCVwy5mh1xSItdAf4N/m6PHWlwBUz95+krlekh+6AINQ+R10qcMPPe6hrFemiOyAYLRuoiwX2+3qxuk6RProDApK/YYy6XGC3Cb05NNoldAcEpmZVjp5GsTpU5Xwft7BHKwI0tK26YmCra2urqxMZojsgUJfdpK4Z2OgFvnBwD3eWELDdl6mrBraZvUhdlfCAtQMC90g3dd3AJo3OaKguSXjB2gHB63x+fXXlwBbD3h2trkd4Q3eACf1XqksHdvhyrboW4RV3lmBGHc5+QOKT5uo6hHesHWDIrJc5+yHm6pVWFyH8YO0AY+aOVdcPhIatKa+uQPjC2gEGTfxeXUFQuaCTuvrgE90BRj0zWF1DUJh3nrry4Bt3lmDYT+oiQuhm3thMXXbwj7UDTDv8BHUZIVwrOcMhEugOMG9RL3UhITzZn6vrDcHgzhLCcCxHi8ZEm2qT1cWGgLB2QChqvJijLiaEYDXbZkSH5d2hojo+CMxlM9TVBNMWPKeuMgTI8u7A2iFKfrhPXU8wqe5R6gpDoCzvDqwdouW7OeqKgiktquerywvBsrw7sHaImPL7r1LXFEzIPVZdWggc7ywhXEP7qIsKwbttmrquEDzWDgjb3i3UZYVgvfK6uqZgAt0BoWu16wR1YSE49x2iLiiYwZ0lCJS9Rl1ZCMqv6mKCKZavHXhnKar2eEhdWwhCnyfVlQRj6A4QGZGtri74tpe6imAQd5YgM5XH025r0FVdQjDJ8rUDT6UjrdU3ueoKg2cTRvD5W7TRHaC05wfqEoNHJ9ZUFw8M484StA4doy4yeNBmirpwYBxrB4iNfkFdZchYA76NjgG6A+SmXqiuM2TmaXXJIAzcWYJemWXqQkMG+p6pLhiEgrUDLFB2tbrSkLYXm6nLBeGgO8AKi+apaw1pGTZCXSoIC90Bdsiqqy42pCG3u7pQEBq6AyxR8zR1tSGlty9TlwnCQ3eALUZWUZcbUlg2X10kCBHvLMEeA9X1hqSemKuuEISJtQMs8nxjdcWheP+cpK4PhIq1A2zynrriUKyf1cWBkFm+duB8h7jpvkpdcyjaCbPUtYGQWd4duLMUO1cOUBcdinJTU3VlIGx0B1jmkGHqqsPOSpRV1wVCR3eAbarzaNo6d7F7RgzRHWCdS9Vlh0L+VkNdExCgO8A+x6nrDjuYM1FdEVCgO8BCb6kLD9vJ/Y+6HiBheXfgjdaYYs8li5ynrgZo8DUcbNS5l7r0sM1n6mKAiOVrB+4sxVWFXHXtYYs3GqprASJ0B9jpGXXtYbN5WepKgAp3lmCpnuriw0Y5i9V1ABnWDrBU07vU1YdE4id1GUCH7gBbHZGnLj/8Y6S6CqBDd4C1nleXX+x1eFJdAxCiO8BeX6rrL+5+U1cAlHgqDXtN76EuwHirm6+uACixdoDF9lMXYKzV76TOP6ToDrDZKHUFxtmN6uxDi+4Am3XiKCCZMTXV2YcW3QFW+0xdgvF1tDr3EKM7wGrN6qlrMK6GqFMPNboD7NZbXYNxVUadeajRHWC3/IrqIoynyurEQ47uAMu9py7CeDpJnXfIWd4dOBsO5diNT+AiddahZ3l3YO0ATnpQWK/OOvTYSQPWa6Iuw/g5QZ1zWIC1A6z3sboM4+codc5hAboDrDdrgroO46ajOuWwAd0B9rtOXYdxU12dcdjA8u7AO0vYqHOuuhDj5e1Z6ozDBpZ3B9YO2OQWdSHGy9PqfMMKdAc4YL26EONlvjrfsAJvtMIFz6orMU7YRAOb0R3gAvbiC9G96mzDDtxZgguaDVCXYnx0KFBnG3agO8AJt6lLMT4+UOcalqA7wAlHq0sxPvZR5xqWoDvACQUd1LUYF/3UqYYteCoNNyxQ12JcXKHONGzB2gFuOFhdi3FxqTrTsAXdAW7IUtdiXAxSZxq2oDvAEXXVxRgP36rzDGvw3AGO2F9djPFwozrPsAZrBzhikboY4+EQdZ5hDboDHFG2vroaY6GZOs8R8fH56hH4x50l4y6+XT2CiCihrsY4eEKd5Wg4/KZEH/UY/KM7GHdQ4kY2rgnC4+pqjIN31VmOgkk3bozko+pR+Gf5xvmz1fEJwEGJxDucxBiAfdTVGAePqbPsvpqXN9oUyQhsV8VzB+MO2jSRJ+5WD8N9e6qrMQ64DerXd922RJI7S6ZF487SZiXGqwfivDnaYoyDXHWOXde8ybZQ0h1Mi1B3SCRe5CtUfx5QlmI8lFDn2G1DH/0rlHQH0yLVHRIHTVWPxW13CCsxJpaoc+yySVW330iY5w6mRea5w1bLePzgwwhZHcbGdeocu6vhI/V2CCXdwbSodYdEYsZa9XjcNV5UhTEyRZ1jZ929rFAoubNkWrTuLG1xwHT1iFw1SFKDscL/Lt70X7lTKFk7mBa9tcNGed+0Uo/JUQsVNRgr6gy7qfyaIkLJ2sG0KK4dNmrxi3pQbvo2/AqMl+HqDLuo4X6NioolawfTIrl22GRGBfWwXPRC2PUXN1HYmyBsV1YsOpasHUyL6NphkyVZ6oG5p2241Rc/36sz7Jz1pxUXS9YOpkV27bBRj+Vl1UNzzSWhFl8MReCKFqqTf2wc5VjSHYwrrjskEoOPzlcPzi3nhlh6sdRTnWG3DMxLEku6g2kV1fEJQPHdIZHoyOZLmXgstMKLqRXqDLukTq+ksaQ7mBbttcNGOQfUUI/PIb+EVXdx9aY6w+7YY+cvHHZEdzAt8t0hkehxzyz1CJ3xcDhVF1/V1Bl2Rc39U8aS7mBa1O8sbZa9SD1EV7weRs3F2SPqDDti3wmpY8kbraZF+I3W7bVrrx6kG/5jvuLirbc6w04oMyqdWLJ2MC0Gd5Y2W1WVo6fTcJnxgos5ukNq405ML5Z0B9NicWdps6VXq8fpgMMMl1vs0R1SmVWtR5qxpDuYFpe1wyZsrpES3cGw0uoM2+7Kwvt0F4/nDqbF5LnDVlVGq8dquSMNlhoSPJVOocLFGcSS7mBavLpDYvhv6sHa7SNzlYZNeKM1iaFLit82owjcWTItTneWNmvB44ckFpmqM2yxizrD9qp1aofU8dse3cG02HWHRKJjS/WA7TXFTJVhm8fVGbZVw2PqpY7ejugOpsWwOyQSJQ9XD9lWI0zUGP5SRZ1hS+3+SeaxpDuYFsvukJi5hsfTRZpqoMSwnQ/VGbbS2hleYkl3MC2e3SGRaFRtsnrYNrom8ALDDl5RZ9hCg671Fku6g2nx+RqusGyOnt7ZLcFWFwq7T51h6xS8mewMh2ToDqbFde2wyYwy6pFb58tAiws76aDOsG1GLPUcS753MC1m3zsU0pajp3f0RIClhaLMVafYKi07+ggl3cG0eHeHRB6nsezg7eAqC0U6TJ1ii8w/x1coubNkWpzvLG3Wdzf18C3SKqiyQnEot21qXpPrL5R0B9Ni3x0SiSE8ftiGbZaM+0adY0vkd/H+wGEruoNpdIdEIudFjp7e4rxAagpJHKDOsR0uK+E/lDx3MC3mzx226nGWeg52qBpARSGpEuoc22B0muf7JMfawbT4fu+wo+yb1bOwQbsAIomkeKW1XLlqQfxiWTuYx9phm9s4erpcr0AiiWRi/5Rr8eyAIsnawTSeO/zpwqfjfvR0+WACiWRifv7PtA8DiyTdwTS6w3aWvqeeitbuQQUSxbtWnWWpa1YFF0nuLJnGnaUdPPScejJKPJQOQRT+H/NqN99vsW6PtYNpUajVALtDYljPL9TT0TkwwECiOOPUaVZZPyTYQNIdTKM7FNZoakP1hERmBbjqR7GeUedZI+vHjA6NTgPdwTS6w85mN1fPSGNdwHFEkd5V51lhcrUegQeS7mAa3aEoJa9Sz0nhm8DjiCLcqs6zwOefGAgkT6VN46l00e7orJ5V+FYaiCN2Nk2d6LB1DfiBw1Z0B9PoDsWY85t6WmFrZiKM2NnL6kyHq/9FhuLInSXTuLNUrBbV89UzC1V1M2FEYSvVmQ7TyT3rm4oj3cE0ukMSHRerpxYmNlkKybDy6lSHZtKvXg+NTgPdwTS6Q1JfdlJPLjRNO5gLI3ZQWp3rsIwYYzKMPHcwjecOKXw1Wj29kPxgMorY3kPqXIejZQOzYWTtYBprh1Ta7DpLPcFQlDQaRWwnZ7462SGY/5bpMNIdTKM7pJa9SD3DEMydaTiK+Mub6mwbV7CLz0Oj00B3MI3ukI4Tor8531TjQcSfstXZNq16oNvtFYPnDqbx3CE9q+eqZ2lYxxCCiG26q9NtVJlRoQSRtYNprB3S1O2Ykep5mnRYGDHENiXV+Tbo5CU54QSR7mAa3SH9UEX564fTw4khtmg8XZ1wU5qeFfx2e8WgO5hGd8hAu8jukPPFhWHFEJv9pM64IaeEeDQ53cE0ukMmVl0T0aOnB4YWQmzWraw65SYc/s8wY8hTadN4Kp2ZwVerZ2tEpRBDiE2+U6c8eOXHGttSqUisHUxj7ZCpIRXU8w3epaFGEBtVito3lvkfdws5hHQH0+gOGRtWKmpvt47sG24EsdHH6qwHq4zhbTOKQHcwje7gQaNHovV263lhBxCJxCfqrAcpq60ggjx3MI3nDp58+5F60kG6K/wAIlFNnfbgVGujCCDdwTS6g0cHjFNPOzD3KuKHHlH55mHRbE0AubNkGneWvOpxXVP1xIORX1ESP1ykznwgnntBFT+6g2l0B+96TVHPPBDPiMKHu9Wp92/0Z+G+xbo9uoNpdAc/ZqxXz90/lg4yg1upk+9TwzMaCcNHdzCN7uBL4x+z1LP3a4QuerG3Qp18f67U/mPBU2nTeCrtUxvHP3odPUcZvZib6fK5IZ1kDxy2Yu1gGmsH33r9og6AH8drgxdzF6jT71lWlWHq4NEdTKM7BGBIGXUIPHtfHbuYu1RdAB69Gdo+3cXjzpJp3FkKxB+uvru+TB25mBvu5HOrq/+mjtsmdAfT6A7ByD3Vyb292blb7TR1CWTudUtOmaU7mEZ3CMqYg9VxyNx/1EFD4lh1EWToiCvUEduG5w6m8dwhOMteU0ciQ81aqEOGRP3D1GWQiUGldF+/FUZ3MI3uEKQZa9WxyEhldbywUYtm6jpIW9mBFjyM/hPdwTS6Q6Aatx2qjkb6OPPHDiXVhZCuEXYdIUh3MK2iOj4BsKg7JBIdTlWHI11rV6ljhS3OUpdCWsqMUsepELqDaawdArfUjaOny2erA4Vt6qiLIbVBivN9kuOdJdN4Z8mAGberQ5KG79VRwp/6dVJXQwqzqtn0wGEr1g6msXYwYVjP0eqgpGLfv4JxNniQuh6SutLKjyZZO5jG2sGMOZZ//XCuOkDYQQl1QSTR/jZ1dIpGdzCN7mBK3XXquCTxmjo6KOTiWeqaKEbBqReqY1MM7iyZxp0lc96qrY5McVr2U8cGhS2wsz28t1QdmGLRHUyjOxiU9/fJ6tgUieZgo8rqsihCpxvUUUmCO0umcWfJqOyb1cEpQksL3z+BhauHk39srI5JMqwdTGPtYNhp1r2seCQrB0vdpi6NHS3PUwckObqDaXwrbVyVL9QB2kHLNuqAoDgXq4tjOxsGq6ORCneWTOPOknkLl6sjtJ3mrBwsNqOmuj62WtdAHYrU6A6m0R3C0NeazTXuZnMlqzUor66QTeafo45DOrizZBrPHcIxZL06Spv9YM/u/CjSv8epa6RcwS656iikhe5gGt0hJI2vteAE4X2tfgcFm7Q4SVwk9j9w2Io7S6ZxZyk0be5RB+ondQiQhg7PKGukZV31/NPG2sE01g4harGbMkyTHlDPH+lZMVJVI89ZuqVSkegOptEdQtVxL1mUJr6knjzSdbHmMNFaq9UTzwh3lkzjzlLI+og2X7p7oXrmSN/g7oISKd1NPe3MsHYwja/hwpY7UBEjt/4rRKJU2ZAr5MyO6ilnirWDaawdwvfJ7mFH6P1X1XNGplq0DLNCylRWzzdzrB1M47mDwivjw4xP2ft5kdVFYyeFVSHt26nn6gXdwTTuLGl8uTa08LzOwsFR884LpUDKPmjr+T7J0R1MY+0gMuz8cN5LqfGHeqbw7o3nzFfI//VSz9IjuoNpdAeZMQ+bD03D73hVyW13GN6Xr/aJ6hl6xlNp03gqLVTX9J2DdXeppwi/6n3X1FyBZD3VQT0/71g7mMbaQeql3fLNxWV9ZfX0EIQWGwwVSOdL3Nhurxh0B9N4Ki126z6GojK/rXpqCEpdE+9A17jf8buO3FkyjTtLcg1M9IeT16inhSBVPKYg2ALp/+MA9Zz8Yu1gGneWLNDrkVbBRuSwts7/9FHI8BXzgyuQj37OUc/HP7qDaXQHK9Qb2DmwcDT85Qb1dGDEgi6BFMjcc53bNKNI3FkyjTtLluhwfTAbr60/rq96KjAm99EpPpeZk3+4YqZ6FgFh7WAaawd7VDrucJ+RqPBgtnoSMKzf9XW8F8jeJzZSjz84rB1MY+1glSHVvG/wvcebT6iHj1D0u/5zDyuIybsviVBrSLB2MI+1g21GndXaQwye+/Xf6oEjRP0qf3Pl3PTLY/SVA69oox5z0Fg7mMbawUINVj+/PoP5n9S759fqIUPg1T7XnbJHquo4/POB7e5Tj9QI1g6m8TWcpTq8subS91P9dzh63aWrh6xSDxVSdT849ff3jlpfo3BxTNz746c/vFU9OoPoDqbRHaw276GeZ/1y5LhCE+48cXyd3gO/emieeniwyfDs//6v7ePHjf3x+p8vLlFJPRrzuLNkGneWnLDs+/+1e7HUjU+XevShf49RDwawAWsH03gqDcBFdAfT6A4AXER3MI3uAMBFdAfT6A4AXMRTadN4Kg3ARawdTGPtAMBFdAfT6A4AXER3MI3uAMBFdAfT6A4AXER3MI3uAMBFdAfT6A4AXMQbrabxRisAF7F2MI21AwAX0R1MozsAcBHdwTS6AwAX8dzBNJ47AHARawfTWDsAcBHdwTS6AwAX0R1MozsAcBHPHUzjuQMAF7F2MI21AwAX0R1MozsAcBHdwTS6AwAX0R1MozsAcBHdwTS6AwAX8c6SabyzBMBFdAfT6A4AXMSdJdO4swTARXQH0+gOAFxEdzCN7gDARXQH0+gOAFxEdzCN7gDARXQH0+gOAFxEdzCN7gDARXzvYBrfOwBwEWsH01g7AHAR3cE0ugMAF9EdTKM7AHAR3cE0ugMAF9EdTKuojk8A6A5A/NAdTGPtAMBFdAfT6A4AXER3MI3uAMBFdAfT6A4AXER3MI3uAMBF7KRhGjtpAHARawfTWDsAcBHdwTS6AwAX0R1MozsAcBHdwTS6AwAX0R1MozsAcBHvLJnGO0sAXMTawTTWDgBcRHcwje4AwEV0B9PoDgBcRHcwje4AwEV0B9PoDgBcxDtLpvHOEgAXsXYwjbUDABexdjCNtQMAF7F2MI21AwAX0R1MozsAcBHdwbSK6vgEgO4AxA/dwTTWDgBcRHcwje4AwEV0B9PoDgBcxButpvFGKwAXsXYwjafSAFxEdzCNO0sAXER3MI3uAMBFdAfT6A4AXER3MI3uAMBFvLNkGu8sAXARawfTWDsAcBHdwTS6AwAX0R1MozsAcBHdwTS6AwAX0R1MozsAcBHdwTR20gDgIt5oNY03WgG4iLWDadxZAuAiuoNpdAcALqI7mEZ3AOAinjuYxnMHAC5i7WAaawcALmLtYBprBwAuYu1gGmsHAC6iO5hGdwDgIrqDaXQHAC6iO5hGdwDgIrqDaXQHAC7inSXTeGcJgIvaqS88/t2ujmFyL6njE4Ae6iACCF1J9YXHv67qGCZ3nzo+ARigDiKA0L2gvvD4t04dw+SWquMTAHUMAYTvQPWFx7/u6hgmN0EdH/9aqWMIIHxvqK88/u2ujmFybdTx8a+8OoYAwtdAfeXx7z11DFNQx8e/2uoQAghfL/WVx79j1DFMoZY6QL5Z/lYYABMWqq88/n2jjmEKV6kD5NtR6hACEBipvvT4dr46hCl0VQfIN9vv3QEwoYb60uPb9eoQpvCwOkC+7acOIQCBMupLj283qUOYwgh1gHx7Wh1CAAI/qC89vt2nDmEKD6oD5JvtqzMAJuyqvvT4NkwdwhTaqgPk2yvqEAIQWKO+9Pj1pDqCqdygjpBvldQhBCCwQH3p8cvyjTQSib7qCPnFRhpALDm/wfTv6gim1FQdIp/KqAMIQKGx69euH9URTOlMdYh8ekwdQAASrn+sVUIdwJRKq0Pk0/3qAAKQ6K2++PiUqw5gSmvUIfLpQHUAAUisUV98/Kmgjl9qrr+0VE8dQAASF6gvPv6MUMcvtYVu72V1lTp+ADRmTlZffny5RR2/NFymDpIv+6rDB0DkffXlx5cm6vClYT91kHypog4fAJFj1ZcfP5qpo5eO69VR8uXf6vABEKmsvvz4UUcdvXQ4/bV0Z3X0AKjkNVRfgHz4Sh29tByhDpMP1dXBAyCzSH0B8sGNDeKqqcPkw1vq4AGQGau+AHl3uzp26TlQHSfv8tuogwdAxuGN+AaqY5eeCyepA+XZOnXsAAj1V1+CPHtWHbo0vacOlGdssgTEWVX1JciraerIpetsdaQ8G6wOHQChbPUlyKvl6silq0OBOlQeLVZHDoCUq1s9uPOh1tXqUHlUSh04AFJ3qC9C3nRSxy19V6hj5dEEdeAASFVycxfRseq4pW9mljpYnvygjhsAsVPUlyEvJndThy0D96ij5cmX6rABECupvgx58Z46apmYrY6WF7Ubq8MGQMzJGx8PqKOWkZbqcHnwjTpoAOR+VV+IMndEjjpoGXlLHa/MzXJjFysAJk1oqr4UZex4dcwyU39PdcAytkEdMwAWeER9KcpU1gB1yDL0lDpiGbtLHTIAFvg0X30tytCN6ohlqkczdcgy9Jo6YgCscK/6YpSZ0T3UAcvYN+qYZei/6oABsEJFtxYPl6jjlbmDaqmDlpG91fECYAmnFg/j8tTh8sCtxYMru6MDMM2pxYOTxw44tXh4WB0tANY4T31BSl/tVepgeeLSQRosHQBsM6aV+oqUtnPUsfImt7Y6cGkboY4VAIucqr4kpetMdaS8aqeOXLqaubTDIQDTLmyvviilJ9+dU38KO1QduzQ9pQ4UAKtUVl+U0vOyOk7e3aWOXXrWquMEwDI/qC9L6ajRTx0mH65TRy8d+aPUYQJgmXkuvHPp9JE0HVqrw5eG39VRAmCdUuoLU2rPqGPkzw3q+KXm9OIMgCHvqy9NqXQeow6RTx+rI5iS04szAIYMtn0n0RPUEfIrz/Z7S2eoIwTASj+rL07JTVXHx78nZqmDmNR6N79DB2BcafXlKZn1rp35U5T91VFMpmy2OjwALJV7kvoCVbxmn6ijE4jd1XFMoo86OACsNfgL9RWqOCNnqGMTjDbPqSNZrL+rYwPAYq9MVl+jirFGHZmg9OqsDmUxbm6sDg0Am52uvkgV7VJ1XIKzUh3Loq3lSwcASZ2rvkwVZfFMdVgCtFodzaKMHqwOCwDLDVukvlDtbNpwdVQC9bw6njtrOEQdFADWa7OH+lJVWEFFdUyCNfMjdUR38pU6JgAcUHG0+lpVSGV1RIJWz7YGvJ86IgCccKtVr9U0vEgdj+AtvUod1R2UzlEHBIAbvrWoPUSxOWxsD/PVcd0OzQFAuhrY0x7aqWNhRotp6sD+6Rh1LAA4pK4lzx5mVVZHwpS+tjx7+J2VA4AMNBmkvmpt0uo0dRzMeduOPTWqqeMAwDEv7am+bpUrV3CnOgomdVuvju9Gp6qjAMA573RSX7lOfkIdA7PadFdHuGFbdQwAOKjfa9pL1+2V1BEwbdgIbYTLR2TjWwAhayzdc+mQXPX8Q/DUSGGEr3pVPX0ArvqgQHXlanhcPF6luSlLFeFyp7RRTx6Au5at1Vy5apdQzzws85prItw0MidmAJDocLDi0vVwN/W8Q/SrIsKt66qnDcB1H4b+3XSrseo5h+uV2mFHuNy+nPUDwLfB48O9cvW/VT3jsA0/JdwI1yqpnjGAaLgmzEvXGavU0xW4pVaIET60r3q6AKIiO7Tlw9qO6rlqjJkSVoS/WKKeK4AIybllbhhXroL9o3SAdGZuC+fpQ5c4PfAHEIJ6XcxfuV5roZ6lUr9qDY1HeOL36lkCiJ43Jpq9ck2L/bPSfx9pNsJlnx6gniKASLrE4KkPtZbHYeeMVK41uTPu1bFemgEwqcNnhq5eWT+xrcNm9Q+oYCbCTS9lVyUAJl3bOvgr155rOqinZZEPDws+wgW/jVFPC0DU5ZT8KNgrV5lzhqnnZJnvHw42wiezMgMQiod2C+7KdfeX6tnYqGLvsoFF+PYq6tkAiI8JK/YI4sLVvuo76pnYqsdXZYKIcK1HnlXPBEDMfL/fOH8XrrmPHKieg93+cZbfdwDq/MGLYAAEvj/Y8/e9WaX/qR69C0ad5fmAjZqff8BGrABkXnr382aZXrcm3f1ZE/W43bF0ydUZL9Iajt/lzvrqgQOIu/pDqr4+Od3r1qz3f50R372UPMr59sab0z/Dde3LlXuoRwwAW+StHLvfUdOTX7VOPvSY+w/kZodXd1a55+H2ySNc/qMRPy2Ypx4oABS26tU3Hh3796Ob95/01xWr5sT/q/7b/R/MyOaDtyC0uODsNQM37L12+wP7nnz/3pdXHHBgk4PUgwOAlDos7DZm6YSDcrn7bcqqHnPGLH17eB736WDG/wObTifXkyPd2wAAAABJRU5ErkJggg==;" vertex="1" parent="1">
          <mxGeometry x="400" y="364" width="68.26" height="68" as="geometry" />
        </mxCell>
        <mxCell id="blICFfli1qGLsLNeWDGJ-4" value="Grafana" style="shape=image;verticalLabelPosition=bottom;labelBackgroundColor=default;verticalAlign=top;aspect=fixed;imageAspect=0;image=data:image/svg+xml,PHN2ZyB4bWxuczp4bGluaz0iaHR0cDovL3d3dy53My5vcmcvMTk5OS94bGluayIgeG1sbnM9Imh0dHA6Ly93d3cudzMub3JnLzIwMDAvc3ZnIiB4bWw6c3BhY2U9InByZXNlcnZlIiBzdHlsZT0iZW5hYmxlLWJhY2tncm91bmQ6bmV3IDAgMCAzNTEgMzY1OyIgdmlld0JveD0iMCAwIDM1MSAzNjUiIGhlaWdodD0iMzY1cHgiIHdpZHRoPSIzNTFweCIgeT0iMHB4IiB4PSIwcHgiIGlkPSJMYXllcl8xIiB2ZXJzaW9uPSIxLjEiPiYjeGE7PHN0eWxlIHR5cGU9InRleHQvY3NzIj4mI3hhOwkuc3Qwe2ZpbGw6dXJsKCNTVkdJRF8xXyk7fSYjeGE7PC9zdHlsZT4mI3hhOzxnIGlkPSJMYXllcl8xXzFfIj4mI3hhOzwvZz4mI3hhOzxsaW5lYXJHcmFkaWVudCB5Mj0iOTklIiB4Mj0iMTc1LjUiIHkxPSIzMCUiIHgxPSIxNzUuNSIgZ3JhZGllbnRVbml0cz0idXNlclNwYWNlT25Vc2UiIGlkPSJTVkdJRF8xXyI+JiN4YTsJPHN0b3Agc3R5bGU9InN0b3AtY29sb3I6I0YwNUEyOCIgb2Zmc2V0PSIwIi8+JiN4YTsJPHN0b3Agc3R5bGU9InN0b3AtY29sb3I6I0ZCQ0EwQSIgb2Zmc2V0PSIxIi8+JiN4YTs8L2xpbmVhckdyYWRpZW50PiYjeGE7PHBhdGggZD0iTTM0MiwxNjEuMmMtMC42LTYuMS0xLjYtMTMuMS0zLjYtMjAuOWMtMi03LjctNS0xNi4yLTkuNC0yNWMtNC40LTguOC0xMC4xLTE3LjktMTcuNS0yNi44JiMxMDsmIzk7Yy0yLjktMy41LTYuMS02LjktOS41LTEwLjJjNS4xLTIwLjMtNi4yLTM3LjktNi4yLTM3LjljLTE5LjUtMS4yLTMxLjksNi4xLTM2LjUsOS40Yy0wLjgtMC4zLTEuNS0wLjctMi4zLTEmIzEwOyYjOTtjLTMuMy0xLjMtNi43LTIuNi0xMC4zLTMuN2MtMy41LTEuMS03LjEtMi4xLTEwLjgtM2MtMy43LTAuOS03LjQtMS42LTExLjItMi4yYy0wLjctMC4xLTEuMy0wLjItMi0wLjMmIzEwOyYjOTtjLTguNS0yNy4yLTMyLjktMzguNi0zMi45LTM4LjZjLTI3LjMsMTcuMy0zMi40LDQxLjUtMzIuNCw0MS41cy0wLjEsMC41LTAuMywxLjRjLTEuNSwwLjQtMywwLjktNC41LDEuM2MtMi4xLDAuNi00LjIsMS40LTYuMiwyLjImIzEwOyYjOTtjLTIuMSwwLjgtNC4xLDEuNi02LjIsMi41Yy00LjEsMS44LTguMiwzLjgtMTIuMiw2Yy0zLjksMi4yLTcuNyw0LjYtMTEuNCw3LjFjLTAuNS0wLjItMS0wLjQtMS0wLjRjLTM3LjgtMTQuNC03MS4zLDIuOS03MS4zLDIuOSYjMTA7JiM5O2MtMy4xLDQwLjIsMTUuMSw2NS41LDE4LjcsNzAuMWMtMC45LDIuNS0xLjcsNS0yLjUsNy41Yy0yLjgsOS4xLTQuOSwxOC40LTYuMiwyOC4xYy0wLjIsMS40LTAuNCwyLjgtMC41LDQuMiYjMTA7JiM5O0MxOC44LDE5Mi43LDguNSwyMjgsOC41LDIyOGMyOS4xLDMzLjUsNjMuMSwzNS42LDYzLjEsMzUuNmMwLDAsMC4xLTAuMSwwLjEtMC4xYzQuMyw3LjcsOS4zLDE1LDE0LjksMjEuOWMyLjQsMi45LDQuOCw1LjYsNy40LDguMyYjMTA7JiM5O2MtMTAuNiwzMC40LDEuNSw1NS42LDEuNSw1NS42YzMyLjQsMS4yLDUzLjctMTQuMiw1OC4yLTE3LjdjMy4yLDEuMSw2LjUsMi4xLDkuOCwyLjljMTAsMi42LDIwLjIsNC4xLDMwLjQsNC41JiMxMDsmIzk7YzIuNSwwLjEsNS4xLDAuMiw3LjYsMC4xbDEuMiwwbDAuOCwwbDEuNiwwbDEuNi0wLjFsMCwwLjFjMTUuMywyMS44LDQyLjEsMjQuOSw0Mi4xLDI0LjljMTkuMS0yMC4xLDIwLjItNDAuMSwyMC4yLTQ0LjRsMCwwJiMxMDsmIzk7YzAsMCwwLTAuMSwwLTAuM2MwLTAuNCwwLTAuNiwwLTAuNmwwLDBjMC0wLjMsMC0wLjYsMC0wLjljNC0yLjgsNy44LTUuOCwxMS40LTkuMWM3LjYtNi45LDE0LjMtMTQuOCwxOS45LTIzLjMmIzEwOyYjOTtjMC41LTAuOCwxLTEuNiwxLjUtMi40YzIxLjYsMS4yLDM2LjktMTMuNCwzNi45LTEzLjRjLTMuNi0yMi41LTE2LjQtMzMuNS0xOS4xLTM1LjZsMCwwYzAsMC0wLjEtMC4xLTAuMy0wLjImIzEwOyYjOTtjLTAuMi0wLjEtMC4yLTAuMi0wLjItMC4yYzAsMCwwLDAsMCwwYy0wLjEtMC4xLTAuMy0wLjItMC41LTAuM2MwLjEtMS40LDAuMi0yLjcsMC4zLTQuMWMwLjItMi40LDAuMi00LjksMC4yLTcuM2wwLTEuOGwwLTAuOSYjMTA7JiM5O2wwLTAuNWMwLTAuNiwwLTAuNCwwLTAuNmwtMC4xLTEuNWwtMC4xLTJjMC0wLjctMC4xLTEuMy0wLjItMS45Yy0wLjEtMC42LTAuMS0xLjMtMC4yLTEuOWwtMC4yLTEuOWwtMC4zLTEuOSYjMTA7JiM5O2MtMC40LTIuNS0wLjgtNC45LTEuNC03LjRjLTIuMy05LjctNi4xLTE4LjktMTEtMjcuMmMtNS04LjMtMTEuMi0xNS42LTE4LjMtMjEuOGMtNy02LjItMTQuOS0xMS4yLTIzLjEtMTQuOSYjMTA7JiM5O2MtOC4zLTMuNy0xNi45LTYuMS0yNS41LTcuMmMtNC4zLTAuNi04LjYtMC44LTEyLjktMC43bC0xLjYsMGwtMC40LDBjLTAuMSwwLTAuNiwwLTAuNSwwbC0wLjcsMGwtMS42LDAuMWMtMC42LDAtMS4yLDAuMS0xLjcsMC4xJiMxMDsmIzk7Yy0yLjIsMC4yLTQuNCwwLjUtNi41LDAuOWMtOC42LDEuNi0xNi43LDQuNy0yMy44LDljLTcuMSw0LjMtMTMuMyw5LjYtMTguMywxNS42Yy01LDYtOC45LDEyLjctMTEuNiwxOS42Yy0yLjcsNi45LTQuMiwxNC4xLTQuNiwyMSYjMTA7JiM5O2MtMC4xLDEuNy0wLjEsMy41LTAuMSw1LjJjMCwwLjQsMCwwLjksMCwxLjNsMC4xLDEuNGMwLjEsMC44LDAuMSwxLjcsMC4yLDIuNWMwLjMsMy41LDEsNi45LDEuOSwxMC4xYzEuOSw2LjUsNC45LDEyLjQsOC42LDE3LjQmIzEwOyYjOTtjMy43LDUsOC4yLDkuMSwxMi45LDEyLjRjNC43LDMuMiw5LjgsNS41LDE0LjgsN2M1LDEuNSwxMCwyLjEsMTQuNywyLjFjMC42LDAsMS4yLDAsMS43LDBjMC4zLDAsMC42LDAsMC45LDBjMC4zLDAsMC42LDAsMC45LTAuMSYjMTA7JiM5O2MwLjUsMCwxLTAuMSwxLjUtMC4xYzAuMSwwLDAuMywwLDAuNC0wLjFsMC41LTAuMWMwLjMsMCwwLjYtMC4xLDAuOS0wLjFjMC42LTAuMSwxLjEtMC4yLDEuNy0wLjNjMC42LTAuMSwxLjEtMC4yLDEuNi0wLjQmIzEwOyYjOTtjMS4xLTAuMiwyLjEtMC42LDMuMS0wLjljMi0wLjcsNC0xLjUsNS43LTIuNGMxLjgtMC45LDMuNC0yLDUtM2MwLjQtMC4zLDAuOS0wLjYsMS4zLTFjMS42LTEuMywxLjktMy43LDAuNi01LjMmIzEwOyYjOTtjLTEuMS0xLjQtMy4xLTEuOC00LjctMC45Yy0wLjQsMC4yLTAuOCwwLjQtMS4yLDAuNmMtMS40LDAuNy0yLjgsMS4zLTQuMywxLjhjLTEuNSwwLjUtMy4xLDAuOS00LjcsMS4yYy0wLjgsMC4xLTEuNiwwLjItMi41LDAuMyYjMTA7JiM5O2MtMC40LDAtMC44LDAuMS0xLjMsMC4xYy0wLjQsMC0wLjksMC0xLjIsMGMtMC40LDAtMC44LDAtMS4yLDBjLTAuNSwwLTEsMC0xLjUtMC4xYzAsMC0wLjMsMC0wLjEsMGwtMC4yLDBsLTAuMywwJiMxMDsmIzk7Yy0wLjIsMC0wLjUsMC0wLjctMC4xYy0wLjUtMC4xLTAuOS0wLjEtMS40LTAuMmMtMy43LTAuNS03LjQtMS42LTEwLjktMy4yYy0zLjYtMS42LTctMy44LTEwLjEtNi42Yy0zLjEtMi44LTUuOC02LjEtNy45LTkuOSYjMTA7JiM5O2MtMi4xLTMuOC0zLjYtOC00LjMtMTIuNGMtMC4zLTIuMi0wLjUtNC41LTAuNC02LjdjMC0wLjYsMC4xLTEuMiwwLjEtMS44YzAsMC4yLDAtMC4xLDAtMC4xbDAtMC4ybDAtMC41YzAtMC4zLDAuMS0wLjYsMC4xLTAuOSYjMTA7JiM5O2MwLjEtMS4yLDAuMy0yLjQsMC41LTMuNmMxLjctOS42LDYuNS0xOSwxMy45LTI2LjFjMS45LTEuOCwzLjktMy40LDYtNC45YzIuMS0xLjUsNC40LTIuOCw2LjgtMy45YzIuNC0xLjEsNC44LTIsNy40LTIuNyYjMTA7JiM5O2MyLjUtMC43LDUuMS0xLjEsNy44LTEuNGMxLjMtMC4xLDIuNi0wLjIsNC0wLjJjMC40LDAsMC42LDAsMC45LDBsMS4xLDBsMC43LDBjMC4zLDAsMCwwLDAuMSwwbDAuMywwbDEuMSwwLjEmIzEwOyYjOTtjMi45LDAuMiw1LjcsMC42LDguNSwxLjNjNS42LDEuMiwxMS4xLDMuMywxNi4yLDYuMWMxMC4yLDUuNywxOC45LDE0LjUsMjQuMiwyNS4xYzIuNyw1LjMsNC42LDExLDUuNSwxNi45YzAuMiwxLjUsMC40LDMsMC41LDQuNSYjMTA7JiM5O2wwLjEsMS4xbDAuMSwxLjFjMCwwLjQsMCwwLjgsMCwxLjFjMCwwLjQsMCwwLjgsMCwxLjFsMCwxbDAsMS4xYzAsMC43LTAuMSwxLjktMC4xLDIuNmMtMC4xLDEuNi0wLjMsMy4zLTAuNSw0LjkmIzEwOyYjOTtjLTAuMiwxLjYtMC41LDMuMi0wLjgsNC44Yy0wLjMsMS42LTAuNywzLjItMS4xLDQuN2MtMC44LDMuMS0xLjgsNi4yLTMsOS4zYy0yLjQsNi01LjYsMTEuOC05LjQsMTcuMSYjMTA7JiM5O2MtNy43LDEwLjYtMTguMiwxOS4yLTMwLjIsMjQuN2MtNiwyLjctMTIuMyw0LjctMTguOCw1LjdjLTMuMiwwLjYtNi41LDAuOS05LjgsMWwtMC42LDBsLTAuNSwwbC0xLjEsMGwtMS42LDBsLTAuOCwwJiMxMDsmIzk7YzAuNCwwLTAuMSwwLTAuMSwwbC0wLjMsMGMtMS44LDAtMy41LTAuMS01LjMtMC4zYy03LTAuNS0xMy45LTEuOC0yMC43LTMuN2MtNi43LTEuOS0xMy4yLTQuNi0xOS40LTcuOCYjMTA7JiM5O2MtMTIuMy02LjYtMjMuNC0xNS42LTMyLTI2LjVjLTQuMy01LjQtOC4xLTExLjMtMTEuMi0xNy40Yy0zLjEtNi4xLTUuNi0xMi42LTcuNC0xOS4xYy0xLjgtNi42LTIuOS0xMy4zLTMuNC0yMC4xbC0wLjEtMS4zbDAtMC4zJiMxMDsmIzk7bDAtMC4zbDAtMC42bDAtMS4xbDAtMC4zbDAtMC40bDAtMC44bDAtMS42bDAtMC4zYzAsMCwwLDAuMSwwLTAuMWwwLTAuNmMwLTAuOCwwLTEuNywwLTIuNWMwLjEtMy4zLDAuNC02LjgsMC44LTEwLjImIzEwOyYjOTtjMC40LTMuNCwxLTYuOSwxLjctMTAuM2MwLjctMy40LDEuNS02LjgsMi41LTEwLjJjMS45LTYuNyw0LjMtMTMuMiw3LjEtMTkuM2M1LjctMTIuMiwxMy4xLTIzLjEsMjItMzEuOGMyLjItMi4yLDQuNS00LjIsNi45LTYuMiYjMTA7JiM5O2MyLjQtMS45LDQuOS0zLjcsNy41LTUuNGMyLjUtMS43LDUuMi0zLjIsNy45LTQuNmMxLjMtMC43LDIuNy0xLjQsNC4xLTJjMC43LTAuMywxLjQtMC42LDIuMS0wLjljMC43LTAuMywxLjQtMC42LDIuMS0wLjkmIzEwOyYjOTtjMi44LTEuMiw1LjctMi4yLDguNy0zLjFjMC43LTAuMiwxLjUtMC40LDIuMi0wLjdjMC43LTAuMiwxLjUtMC40LDIuMi0wLjZjMS41LTAuNCwzLTAuOCw0LjUtMS4xYzAuNy0wLjIsMS41LTAuMywyLjMtMC41JiMxMDsmIzk7YzAuOC0wLjIsMS41LTAuMywyLjMtMC41YzAuOC0wLjEsMS41LTAuMywyLjMtMC40bDEuMS0wLjJsMS4yLTAuMmMwLjgtMC4xLDEuNS0wLjIsMi4zLTAuM2MwLjktMC4xLDEuNy0wLjIsMi42LTAuMyYjMTA7JiM5O2MwLjctMC4xLDEuOS0wLjIsMi42LTAuM2MwLjUtMC4xLDEuMS0wLjEsMS42LTAuMmwxLjEtMC4xbDAuNS0wLjFsMC42LDBjMC45LTAuMSwxLjctMC4xLDIuNi0wLjJsMS4zLTAuMWMwLDAsMC41LDAsMC4xLDBsMC4zLDAmIzEwOyYjOTtsMC42LDBjMC43LDAsMS41LTAuMSwyLjItMC4xYzIuOS0wLjEsNS45LTAuMSw4LjgsMGM1LjgsMC4yLDExLjUsMC45LDE3LDEuOWMxMS4xLDIuMSwyMS41LDUuNiwzMSwxMC4zJiMxMDsmIzk7YzkuNSw0LjYsMTcuOSwxMC4zLDI1LjMsMTYuNWMwLjUsMC40LDAuOSwwLjgsMS40LDEuMmMwLjQsMC40LDAuOSwwLjgsMS4zLDEuMmMwLjksMC44LDEuNywxLjYsMi42LDIuNGMwLjksMC44LDEuNywxLjYsMi41LDIuNCYjMTA7JiM5O2MwLjgsMC44LDEuNiwxLjYsMi40LDIuNWMzLjEsMy4zLDYsNi42LDguNiwxMGM1LjIsNi43LDkuNCwxMy41LDEyLjcsMTkuOWMwLjIsMC40LDAuNCwwLjgsMC42LDEuMmMwLjIsMC40LDAuNCwwLjgsMC42LDEuMiYjMTA7JiM5O2MwLjQsMC44LDAuOCwxLjYsMS4xLDIuNGMwLjQsMC44LDAuNywxLjUsMS4xLDIuM2MwLjMsMC44LDAuNywxLjUsMSwyLjNjMS4yLDMsMi40LDUuOSwzLjMsOC42YzEuNSw0LjQsMi42LDguMywzLjUsMTEuNyYjMTA7JiM5O2MwLjMsMS40LDEuNiwyLjMsMywyLjFjMS41LTAuMSwyLjYtMS4zLDIuNi0yLjhDMzQyLjYsMTcwLjQsMzQyLjUsMTY2LjEsMzQyLDE2MS4yeiIgY2xhc3M9InN0MCIvPiYjeGE7PC9zdmc+;" vertex="1" parent="1">
          <mxGeometry x="520" y="364" width="65.39" height="68" as="geometry" />
        </mxCell>
        <mxCell id="blICFfli1qGLsLNeWDGJ-14" style="edgeStyle=orthogonalEdgeStyle;rounded=0;orthogonalLoop=1;jettySize=auto;html=1;entryX=0;entryY=0.5;entryDx=0;entryDy=0;flowAnimation=1;fillColor=#dae8fc;strokeColor=#6c8ebf;endArrow=block;endFill=1;dashed=1;strokeWidth=2;" edge="1" parent="1" source="blICFfli1qGLsLNeWDGJ-6" target="blICFfli1qGLsLNeWDGJ-10">
          <mxGeometry relative="1" as="geometry" />
        </mxCell>
        <mxCell id="blICFfli1qGLsLNeWDGJ-6" value="Event Hub" style="image;aspect=fixed;html=1;points=[];align=center;fontSize=12;image=img/lib/azure2/analytics/Event_Hubs.svg;" vertex="1" parent="1">
          <mxGeometry y="364" width="75.93" height="68" as="geometry" />
        </mxCell>
        <mxCell id="blICFfli1qGLsLNeWDGJ-10" value="Kafka&amp;nbsp;&lt;div&gt;Connector&lt;/div&gt;" style="rounded=1;whiteSpace=wrap;html=1;" vertex="1" parent="1">
          <mxGeometry x="130" y="378" width="70" height="40" as="geometry" />
        </mxCell>
        <mxCell id="blICFfli1qGLsLNeWDGJ-13" style="edgeStyle=orthogonalEdgeStyle;rounded=0;orthogonalLoop=1;jettySize=auto;html=1;exitX=1;exitY=0.5;exitDx=0;exitDy=0;flowAnimation=1;fillColor=#dae8fc;strokeColor=#6c8ebf;endArrow=block;endFill=1;dashed=1;strokeWidth=2;" edge="1" parent="1" source="blICFfli1qGLsLNeWDGJ-10" target="blICFfli1qGLsLNeWDGJ-1">
          <mxGeometry relative="1" as="geometry" />
        </mxCell>
        <mxCell id="blICFfli1qGLsLNeWDGJ-17" style="edgeStyle=orthogonalEdgeStyle;rounded=0;orthogonalLoop=1;jettySize=auto;html=1;flowAnimation=1;fillColor=#dae8fc;strokeColor=#6c8ebf;endArrow=block;endFill=1;strokeWidth=2;dashed=1;" edge="1" parent="1" source="blICFfli1qGLsLNeWDGJ-15" target="blICFfli1qGLsLNeWDGJ-6">
          <mxGeometry relative="1" as="geometry" />
        </mxCell>
        <mxCell id="blICFfli1qGLsLNeWDGJ-15" value="GW" style="rounded=1;whiteSpace=wrap;html=1;" vertex="1" parent="1">
          <mxGeometry x="-110" y="368" width="60" height="60" as="geometry" />
        </mxCell>
        <mxCell id="blICFfli1qGLsLNeWDGJ-24" style="edgeStyle=orthogonalEdgeStyle;rounded=0;orthogonalLoop=1;jettySize=auto;html=1;flowAnimation=1;fillColor=#dae8fc;strokeColor=#6c8ebf;endArrow=block;endFill=1;dashed=1;dashPattern=12 12;strokeWidth=2;" edge="1" parent="1" source="blICFfli1qGLsLNeWDGJ-18" target="blICFfli1qGLsLNeWDGJ-23">
          <mxGeometry relative="1" as="geometry" />
        </mxCell>
        <mxCell id="blICFfli1qGLsLNeWDGJ-26" style="edgeStyle=orthogonalEdgeStyle;rounded=0;orthogonalLoop=1;jettySize=auto;html=1;flowAnimation=1;endArrow=block;endFill=1;fillColor=#dae8fc;strokeColor=#6c8ebf;dashed=1;strokeWidth=2;" edge="1" parent="1" source="blICFfli1qGLsLNeWDGJ-18" target="blICFfli1qGLsLNeWDGJ-25">
          <mxGeometry relative="1" as="geometry" />
        </mxCell>
        <mxCell id="blICFfli1qGLsLNeWDGJ-18" value="ADX" style="image;aspect=fixed;html=1;points=[];align=center;fontSize=12;image=img/lib/azure2/databases/Azure_Data_Explorer_Clusters.svg;" vertex="1" parent="1">
          <mxGeometry x="267.68" y="525" width="68" height="68" as="geometry" />
        </mxCell>
        <mxCell id="blICFfli1qGLsLNeWDGJ-20" style="edgeStyle=orthogonalEdgeStyle;rounded=0;orthogonalLoop=1;jettySize=auto;html=1;flowAnimation=1;fillColor=#dae8fc;strokeColor=#6c8ebf;endArrow=block;endFill=1;dashed=1;strokeWidth=2;" edge="1" parent="1" source="blICFfli1qGLsLNeWDGJ-19" target="blICFfli1qGLsLNeWDGJ-18">
          <mxGeometry relative="1" as="geometry" />
        </mxCell>
        <mxCell id="blICFfli1qGLsLNeWDGJ-19" value="Event Hub" style="image;aspect=fixed;html=1;points=[];align=center;fontSize=12;image=img/lib/azure2/analytics/Event_Hubs.svg;" vertex="1" parent="1">
          <mxGeometry y="525" width="75.93" height="68" as="geometry" />
        </mxCell>
        <mxCell id="blICFfli1qGLsLNeWDGJ-22" style="edgeStyle=orthogonalEdgeStyle;rounded=0;orthogonalLoop=1;jettySize=auto;html=1;flowAnimation=1;fillColor=#dae8fc;strokeColor=#6c8ebf;endArrow=block;endFill=1;dashed=1;strokeWidth=2;" edge="1" parent="1" source="blICFfli1qGLsLNeWDGJ-21" target="blICFfli1qGLsLNeWDGJ-19">
          <mxGeometry relative="1" as="geometry" />
        </mxCell>
        <mxCell id="blICFfli1qGLsLNeWDGJ-21" value="GW" style="rounded=1;whiteSpace=wrap;html=1;" vertex="1" parent="1">
          <mxGeometry x="-110" y="529" width="60" height="60" as="geometry" />
        </mxCell>
        <mxCell id="blICFfli1qGLsLNeWDGJ-23" value="Storage Account" style="image;aspect=fixed;html=1;points=[];align=center;fontSize=12;image=img/lib/azure2/storage/Storage_Accounts.svg;" vertex="1" parent="1">
          <mxGeometry x="269.68" y="645" width="65" height="52" as="geometry" />
        </mxCell>
        <mxCell id="blICFfli1qGLsLNeWDGJ-25" value="Grafana" style="shape=image;verticalLabelPosition=bottom;labelBackgroundColor=default;verticalAlign=top;aspect=fixed;imageAspect=0;image=data:image/svg+xml,PHN2ZyB4bWxuczp4bGluaz0iaHR0cDovL3d3dy53My5vcmcvMTk5OS94bGluayIgeG1sbnM9Imh0dHA6Ly93d3cudzMub3JnLzIwMDAvc3ZnIiB4bWw6c3BhY2U9InByZXNlcnZlIiBzdHlsZT0iZW5hYmxlLWJhY2tncm91bmQ6bmV3IDAgMCAzNTEgMzY1OyIgdmlld0JveD0iMCAwIDM1MSAzNjUiIGhlaWdodD0iMzY1cHgiIHdpZHRoPSIzNTFweCIgeT0iMHB4IiB4PSIwcHgiIGlkPSJMYXllcl8xIiB2ZXJzaW9uPSIxLjEiPiYjeGE7PHN0eWxlIHR5cGU9InRleHQvY3NzIj4mI3hhOwkuc3Qwe2ZpbGw6dXJsKCNTVkdJRF8xXyk7fSYjeGE7PC9zdHlsZT4mI3hhOzxnIGlkPSJMYXllcl8xXzFfIj4mI3hhOzwvZz4mI3hhOzxsaW5lYXJHcmFkaWVudCB5Mj0iOTklIiB4Mj0iMTc1LjUiIHkxPSIzMCUiIHgxPSIxNzUuNSIgZ3JhZGllbnRVbml0cz0idXNlclNwYWNlT25Vc2UiIGlkPSJTVkdJRF8xXyI+JiN4YTsJPHN0b3Agc3R5bGU9InN0b3AtY29sb3I6I0YwNUEyOCIgb2Zmc2V0PSIwIi8+JiN4YTsJPHN0b3Agc3R5bGU9InN0b3AtY29sb3I6I0ZCQ0EwQSIgb2Zmc2V0PSIxIi8+JiN4YTs8L2xpbmVhckdyYWRpZW50PiYjeGE7PHBhdGggZD0iTTM0MiwxNjEuMmMtMC42LTYuMS0xLjYtMTMuMS0zLjYtMjAuOWMtMi03LjctNS0xNi4yLTkuNC0yNWMtNC40LTguOC0xMC4xLTE3LjktMTcuNS0yNi44JiMxMDsmIzk7Yy0yLjktMy41LTYuMS02LjktOS41LTEwLjJjNS4xLTIwLjMtNi4yLTM3LjktNi4yLTM3LjljLTE5LjUtMS4yLTMxLjksNi4xLTM2LjUsOS40Yy0wLjgtMC4zLTEuNS0wLjctMi4zLTEmIzEwOyYjOTtjLTMuMy0xLjMtNi43LTIuNi0xMC4zLTMuN2MtMy41LTEuMS03LjEtMi4xLTEwLjgtM2MtMy43LTAuOS03LjQtMS42LTExLjItMi4yYy0wLjctMC4xLTEuMy0wLjItMi0wLjMmIzEwOyYjOTtjLTguNS0yNy4yLTMyLjktMzguNi0zMi45LTM4LjZjLTI3LjMsMTcuMy0zMi40LDQxLjUtMzIuNCw0MS41cy0wLjEsMC41LTAuMywxLjRjLTEuNSwwLjQtMywwLjktNC41LDEuM2MtMi4xLDAuNi00LjIsMS40LTYuMiwyLjImIzEwOyYjOTtjLTIuMSwwLjgtNC4xLDEuNi02LjIsMi41Yy00LjEsMS44LTguMiwzLjgtMTIuMiw2Yy0zLjksMi4yLTcuNyw0LjYtMTEuNCw3LjFjLTAuNS0wLjItMS0wLjQtMS0wLjRjLTM3LjgtMTQuNC03MS4zLDIuOS03MS4zLDIuOSYjMTA7JiM5O2MtMy4xLDQwLjIsMTUuMSw2NS41LDE4LjcsNzAuMWMtMC45LDIuNS0xLjcsNS0yLjUsNy41Yy0yLjgsOS4xLTQuOSwxOC40LTYuMiwyOC4xYy0wLjIsMS40LTAuNCwyLjgtMC41LDQuMiYjMTA7JiM5O0MxOC44LDE5Mi43LDguNSwyMjgsOC41LDIyOGMyOS4xLDMzLjUsNjMuMSwzNS42LDYzLjEsMzUuNmMwLDAsMC4xLTAuMSwwLjEtMC4xYzQuMyw3LjcsOS4zLDE1LDE0LjksMjEuOWMyLjQsMi45LDQuOCw1LjYsNy40LDguMyYjMTA7JiM5O2MtMTAuNiwzMC40LDEuNSw1NS42LDEuNSw1NS42YzMyLjQsMS4yLDUzLjctMTQuMiw1OC4yLTE3LjdjMy4yLDEuMSw2LjUsMi4xLDkuOCwyLjljMTAsMi42LDIwLjIsNC4xLDMwLjQsNC41JiMxMDsmIzk7YzIuNSwwLjEsNS4xLDAuMiw3LjYsMC4xbDEuMiwwbDAuOCwwbDEuNiwwbDEuNi0wLjFsMCwwLjFjMTUuMywyMS44LDQyLjEsMjQuOSw0Mi4xLDI0LjljMTkuMS0yMC4xLDIwLjItNDAuMSwyMC4yLTQ0LjRsMCwwJiMxMDsmIzk7YzAsMCwwLTAuMSwwLTAuM2MwLTAuNCwwLTAuNiwwLTAuNmwwLDBjMC0wLjMsMC0wLjYsMC0wLjljNC0yLjgsNy44LTUuOCwxMS40LTkuMWM3LjYtNi45LDE0LjMtMTQuOCwxOS45LTIzLjMmIzEwOyYjOTtjMC41LTAuOCwxLTEuNiwxLjUtMi40YzIxLjYsMS4yLDM2LjktMTMuNCwzNi45LTEzLjRjLTMuNi0yMi41LTE2LjQtMzMuNS0xOS4xLTM1LjZsMCwwYzAsMC0wLjEtMC4xLTAuMy0wLjImIzEwOyYjOTtjLTAuMi0wLjEtMC4yLTAuMi0wLjItMC4yYzAsMCwwLDAsMCwwYy0wLjEtMC4xLTAuMy0wLjItMC41LTAuM2MwLjEtMS40LDAuMi0yLjcsMC4zLTQuMWMwLjItMi40LDAuMi00LjksMC4yLTcuM2wwLTEuOGwwLTAuOSYjMTA7JiM5O2wwLTAuNWMwLTAuNiwwLTAuNCwwLTAuNmwtMC4xLTEuNWwtMC4xLTJjMC0wLjctMC4xLTEuMy0wLjItMS45Yy0wLjEtMC42LTAuMS0xLjMtMC4yLTEuOWwtMC4yLTEuOWwtMC4zLTEuOSYjMTA7JiM5O2MtMC40LTIuNS0wLjgtNC45LTEuNC03LjRjLTIuMy05LjctNi4xLTE4LjktMTEtMjcuMmMtNS04LjMtMTEuMi0xNS42LTE4LjMtMjEuOGMtNy02LjItMTQuOS0xMS4yLTIzLjEtMTQuOSYjMTA7JiM5O2MtOC4zLTMuNy0xNi45LTYuMS0yNS41LTcuMmMtNC4zLTAuNi04LjYtMC44LTEyLjktMC43bC0xLjYsMGwtMC40LDBjLTAuMSwwLTAuNiwwLTAuNSwwbC0wLjcsMGwtMS42LDAuMWMtMC42LDAtMS4yLDAuMS0xLjcsMC4xJiMxMDsmIzk7Yy0yLjIsMC4yLTQuNCwwLjUtNi41LDAuOWMtOC42LDEuNi0xNi43LDQuNy0yMy44LDljLTcuMSw0LjMtMTMuMyw5LjYtMTguMywxNS42Yy01LDYtOC45LDEyLjctMTEuNiwxOS42Yy0yLjcsNi45LTQuMiwxNC4xLTQuNiwyMSYjMTA7JiM5O2MtMC4xLDEuNy0wLjEsMy41LTAuMSw1LjJjMCwwLjQsMCwwLjksMCwxLjNsMC4xLDEuNGMwLjEsMC44LDAuMSwxLjcsMC4yLDIuNWMwLjMsMy41LDEsNi45LDEuOSwxMC4xYzEuOSw2LjUsNC45LDEyLjQsOC42LDE3LjQmIzEwOyYjOTtjMy43LDUsOC4yLDkuMSwxMi45LDEyLjRjNC43LDMuMiw5LjgsNS41LDE0LjgsN2M1LDEuNSwxMCwyLjEsMTQuNywyLjFjMC42LDAsMS4yLDAsMS43LDBjMC4zLDAsMC42LDAsMC45LDBjMC4zLDAsMC42LDAsMC45LTAuMSYjMTA7JiM5O2MwLjUsMCwxLTAuMSwxLjUtMC4xYzAuMSwwLDAuMywwLDAuNC0wLjFsMC41LTAuMWMwLjMsMCwwLjYtMC4xLDAuOS0wLjFjMC42LTAuMSwxLjEtMC4yLDEuNy0wLjNjMC42LTAuMSwxLjEtMC4yLDEuNi0wLjQmIzEwOyYjOTtjMS4xLTAuMiwyLjEtMC42LDMuMS0wLjljMi0wLjcsNC0xLjUsNS43LTIuNGMxLjgtMC45LDMuNC0yLDUtM2MwLjQtMC4zLDAuOS0wLjYsMS4zLTFjMS42LTEuMywxLjktMy43LDAuNi01LjMmIzEwOyYjOTtjLTEuMS0xLjQtMy4xLTEuOC00LjctMC45Yy0wLjQsMC4yLTAuOCwwLjQtMS4yLDAuNmMtMS40LDAuNy0yLjgsMS4zLTQuMywxLjhjLTEuNSwwLjUtMy4xLDAuOS00LjcsMS4yYy0wLjgsMC4xLTEuNiwwLjItMi41LDAuMyYjMTA7JiM5O2MtMC40LDAtMC44LDAuMS0xLjMsMC4xYy0wLjQsMC0wLjksMC0xLjIsMGMtMC40LDAtMC44LDAtMS4yLDBjLTAuNSwwLTEsMC0xLjUtMC4xYzAsMC0wLjMsMC0wLjEsMGwtMC4yLDBsLTAuMywwJiMxMDsmIzk7Yy0wLjIsMC0wLjUsMC0wLjctMC4xYy0wLjUtMC4xLTAuOS0wLjEtMS40LTAuMmMtMy43LTAuNS03LjQtMS42LTEwLjktMy4yYy0zLjYtMS42LTctMy44LTEwLjEtNi42Yy0zLjEtMi44LTUuOC02LjEtNy45LTkuOSYjMTA7JiM5O2MtMi4xLTMuOC0zLjYtOC00LjMtMTIuNGMtMC4zLTIuMi0wLjUtNC41LTAuNC02LjdjMC0wLjYsMC4xLTEuMiwwLjEtMS44YzAsMC4yLDAtMC4xLDAtMC4xbDAtMC4ybDAtMC41YzAtMC4zLDAuMS0wLjYsMC4xLTAuOSYjMTA7JiM5O2MwLjEtMS4yLDAuMy0yLjQsMC41LTMuNmMxLjctOS42LDYuNS0xOSwxMy45LTI2LjFjMS45LTEuOCwzLjktMy40LDYtNC45YzIuMS0xLjUsNC40LTIuOCw2LjgtMy45YzIuNC0xLjEsNC44LTIsNy40LTIuNyYjMTA7JiM5O2MyLjUtMC43LDUuMS0xLjEsNy44LTEuNGMxLjMtMC4xLDIuNi0wLjIsNC0wLjJjMC40LDAsMC42LDAsMC45LDBsMS4xLDBsMC43LDBjMC4zLDAsMCwwLDAuMSwwbDAuMywwbDEuMSwwLjEmIzEwOyYjOTtjMi45LDAuMiw1LjcsMC42LDguNSwxLjNjNS42LDEuMiwxMS4xLDMuMywxNi4yLDYuMWMxMC4yLDUuNywxOC45LDE0LjUsMjQuMiwyNS4xYzIuNyw1LjMsNC42LDExLDUuNSwxNi45YzAuMiwxLjUsMC40LDMsMC41LDQuNSYjMTA7JiM5O2wwLjEsMS4xbDAuMSwxLjFjMCwwLjQsMCwwLjgsMCwxLjFjMCwwLjQsMCwwLjgsMCwxLjFsMCwxbDAsMS4xYzAsMC43LTAuMSwxLjktMC4xLDIuNmMtMC4xLDEuNi0wLjMsMy4zLTAuNSw0LjkmIzEwOyYjOTtjLTAuMiwxLjYtMC41LDMuMi0wLjgsNC44Yy0wLjMsMS42LTAuNywzLjItMS4xLDQuN2MtMC44LDMuMS0xLjgsNi4yLTMsOS4zYy0yLjQsNi01LjYsMTEuOC05LjQsMTcuMSYjMTA7JiM5O2MtNy43LDEwLjYtMTguMiwxOS4yLTMwLjIsMjQuN2MtNiwyLjctMTIuMyw0LjctMTguOCw1LjdjLTMuMiwwLjYtNi41LDAuOS05LjgsMWwtMC42LDBsLTAuNSwwbC0xLjEsMGwtMS42LDBsLTAuOCwwJiMxMDsmIzk7YzAuNCwwLTAuMSwwLTAuMSwwbC0wLjMsMGMtMS44LDAtMy41LTAuMS01LjMtMC4zYy03LTAuNS0xMy45LTEuOC0yMC43LTMuN2MtNi43LTEuOS0xMy4yLTQuNi0xOS40LTcuOCYjMTA7JiM5O2MtMTIuMy02LjYtMjMuNC0xNS42LTMyLTI2LjVjLTQuMy01LjQtOC4xLTExLjMtMTEuMi0xNy40Yy0zLjEtNi4xLTUuNi0xMi42LTcuNC0xOS4xYy0xLjgtNi42LTIuOS0xMy4zLTMuNC0yMC4xbC0wLjEtMS4zbDAtMC4zJiMxMDsmIzk7bDAtMC4zbDAtMC42bDAtMS4xbDAtMC4zbDAtMC40bDAtMC44bDAtMS42bDAtMC4zYzAsMCwwLDAuMSwwLTAuMWwwLTAuNmMwLTAuOCwwLTEuNywwLTIuNWMwLjEtMy4zLDAuNC02LjgsMC44LTEwLjImIzEwOyYjOTtjMC40LTMuNCwxLTYuOSwxLjctMTAuM2MwLjctMy40LDEuNS02LjgsMi41LTEwLjJjMS45LTYuNyw0LjMtMTMuMiw3LjEtMTkuM2M1LjctMTIuMiwxMy4xLTIzLjEsMjItMzEuOGMyLjItMi4yLDQuNS00LjIsNi45LTYuMiYjMTA7JiM5O2MyLjQtMS45LDQuOS0zLjcsNy41LTUuNGMyLjUtMS43LDUuMi0zLjIsNy45LTQuNmMxLjMtMC43LDIuNy0xLjQsNC4xLTJjMC43LTAuMywxLjQtMC42LDIuMS0wLjljMC43LTAuMywxLjQtMC42LDIuMS0wLjkmIzEwOyYjOTtjMi44LTEuMiw1LjctMi4yLDguNy0zLjFjMC43LTAuMiwxLjUtMC40LDIuMi0wLjdjMC43LTAuMiwxLjUtMC40LDIuMi0wLjZjMS41LTAuNCwzLTAuOCw0LjUtMS4xYzAuNy0wLjIsMS41LTAuMywyLjMtMC41JiMxMDsmIzk7YzAuOC0wLjIsMS41LTAuMywyLjMtMC41YzAuOC0wLjEsMS41LTAuMywyLjMtMC40bDEuMS0wLjJsMS4yLTAuMmMwLjgtMC4xLDEuNS0wLjIsMi4zLTAuM2MwLjktMC4xLDEuNy0wLjIsMi42LTAuMyYjMTA7JiM5O2MwLjctMC4xLDEuOS0wLjIsMi42LTAuM2MwLjUtMC4xLDEuMS0wLjEsMS42LTAuMmwxLjEtMC4xbDAuNS0wLjFsMC42LDBjMC45LTAuMSwxLjctMC4xLDIuNi0wLjJsMS4zLTAuMWMwLDAsMC41LDAsMC4xLDBsMC4zLDAmIzEwOyYjOTtsMC42LDBjMC43LDAsMS41LTAuMSwyLjItMC4xYzIuOS0wLjEsNS45LTAuMSw4LjgsMGM1LjgsMC4yLDExLjUsMC45LDE3LDEuOWMxMS4xLDIuMSwyMS41LDUuNiwzMSwxMC4zJiMxMDsmIzk7YzkuNSw0LjYsMTcuOSwxMC4zLDI1LjMsMTYuNWMwLjUsMC40LDAuOSwwLjgsMS40LDEuMmMwLjQsMC40LDAuOSwwLjgsMS4zLDEuMmMwLjksMC44LDEuNywxLjYsMi42LDIuNGMwLjksMC44LDEuNywxLjYsMi41LDIuNCYjMTA7JiM5O2MwLjgsMC44LDEuNiwxLjYsMi40LDIuNWMzLjEsMy4zLDYsNi42LDguNiwxMGM1LjIsNi43LDkuNCwxMy41LDEyLjcsMTkuOWMwLjIsMC40LDAuNCwwLjgsMC42LDEuMmMwLjIsMC40LDAuNCwwLjgsMC42LDEuMiYjMTA7JiM5O2MwLjQsMC44LDAuOCwxLjYsMS4xLDIuNGMwLjQsMC44LDAuNywxLjUsMS4xLDIuM2MwLjMsMC44LDAuNywxLjUsMSwyLjNjMS4yLDMsMi40LDUuOSwzLjMsOC42YzEuNSw0LjQsMi42LDguMywzLjUsMTEuNyYjMTA7JiM5O2MwLjMsMS40LDEuNiwyLjMsMywyLjFjMS41LTAuMSwyLjYtMS4zLDIuNi0yLjhDMzQyLjYsMTcwLjQsMzQyLjUsMTY2LjEsMzQyLDE2MS4yeiIgY2xhc3M9InN0MCIvPiYjeGE7PC9zdmc+;" vertex="1" parent="1">
          <mxGeometry x="520" y="525" width="65.39" height="68" as="geometry" />
        </mxCell>
        <mxCell id="blICFfli1qGLsLNeWDGJ-27" value="" style="endArrow=none;html=1;rounded=0;" edge="1" parent="1">
          <mxGeometry width="50" height="50" relative="1" as="geometry">
            <mxPoint x="-280" y="480" as="sourcePoint" />
            <mxPoint x="640" y="480" as="targetPoint" />
          </mxGeometry>
        </mxCell>
        <mxCell id="blICFfli1qGLsLNeWDGJ-28" value="" style="endArrow=none;html=1;rounded=0;" edge="1" parent="1">
          <mxGeometry width="50" height="50" relative="1" as="geometry">
            <mxPoint x="-160" y="200" as="sourcePoint" />
            <mxPoint x="-160" y="760" as="targetPoint" />
          </mxGeometry>
        </mxCell>
        <mxCell id="blICFfli1qGLsLNeWDGJ-35" value="" style="rounded=0;whiteSpace=wrap;html=1;fillColor=none;strokeColor=#808080;dashed=1;dashPattern=12 12;glass=0;" vertex="1" parent="1">
          <mxGeometry x="105.5" y="300" width="114.5" height="140" as="geometry" />
        </mxCell>
        <mxCell id="blICFfli1qGLsLNeWDGJ-11" value="VM&lt;div&gt;Linux&lt;/div&gt;" style="image;aspect=fixed;html=1;points=[];align=center;fontSize=12;image=img/lib/azure2/compute/Virtual_Machine.svg;" vertex="1" parent="1">
          <mxGeometry x="131" y="260" width="69" height="64" as="geometry" />
        </mxCell>
      </root>
    </mxGraphModel>
  </diagram>
</mxfile>
